<svg width="235" height="218" viewBox="0 0 235 218" fill="none" xmlns="http://www.w3.org/2000/svg">
<path d="M13.3906 13.7344V13.6406C13.3906 12.6615 12.5521 10.2135 10.875 6.29688C10.5833 5.61979 10.4323 5.28125 10.4219 5.28125L9.96875 6.32812C8.23958 10.3594 7.375 12.8073 7.375 13.6719C7.375 13.8177 7.46354 13.8958 7.64062 13.9062C7.82812 13.9167 7.96875 13.9219 8.0625 13.9219L9.28125 13.9531H10.3906L10.5 13.9375C12.4271 13.9375 13.3906 13.8698 13.3906 13.7344ZM0.359375 22.0625C0.359375 21.8021 0.65625 21.5 1.25 21.1562C1.84375 20.8125 2.28125 20.375 2.5625 19.8438C2.84375 19.3125 3.23958 18.3542 3.75 16.9688C4.26042 15.5729 4.95312 13.8177 5.82812 11.7031C6.71354 9.58854 7.41146 7.69271 7.92188 6.01562C8.44271 4.32812 8.79688 3.26042 8.98438 2.8125C9.41146 1.79167 10.0156 1.28125 10.7969 1.28125H11.2344C11.4323 1.28125 11.6771 1.39062 11.9688 1.60938C12.5625 2.05729 13.1823 3.01562 13.8281 4.48438C14.0469 4.98438 14.375 5.84375 14.8125 7.0625C15.25 8.27083 16.125 10.6406 17.4375 14.1719C18.75 17.7031 19.4844 19.625 19.6406 19.9375C19.901 20.4792 20.3438 20.9167 20.9688 21.25C21.5938 21.5729 21.9062 21.8333 21.9062 22.0312C21.9062 22.4688 21.6458 22.7396 21.125 22.8438C20.7708 22.9167 19.875 22.9531 18.4375 22.9531L17.5312 22.9688C15.6042 22.9688 14.6406 22.7083 14.6406 22.1875C14.6406 22.0938 14.7604 21.8698 15 21.5156C15.25 21.1615 15.375 20.7135 15.375 20.1719C15.375 19.6302 15.1771 18.8542 14.7812 17.8438C14.3958 16.8333 14.0677 16.2083 13.7969 15.9688C13.5365 15.7292 12.4062 15.6094 10.4062 15.6094C8.40625 15.6094 7.23958 15.7188 6.90625 15.9375C6.57292 16.1562 6.21354 16.7448 5.82812 17.7031C5.44271 18.6615 5.25 19.4427 5.25 20.0469C5.25 20.6406 5.43229 21.1667 5.79688 21.625C6.17188 22.0833 6.35938 22.3229 6.35938 22.3438C6.35938 22.7188 5.71875 22.9062 4.4375 22.9062C3.16667 22.9062 2.16667 22.8594 1.4375 22.7656C0.71875 22.6615 0.359375 22.4271 0.359375 22.0625ZM34.1094 15.9844C34.9323 16.7656 35.3438 17.7552 35.3438 18.9531C35.3438 20.1406 34.8542 21.1615 33.875 22.0156C32.8958 22.8594 31.5417 23.2812 29.8125 23.2812H29.3906C27.4219 23.2812 25.9219 23.0365 24.8906 22.5469C24.3177 22.276 24.0312 21.6719 24.0312 20.7344V20.3438C24.0312 19.1458 24.2552 18.5469 24.7031 18.5469C25.0781 18.5469 25.5208 18.901 26.0312 19.6094C26.5417 20.3073 26.9688 20.776 27.3125 21.0156C27.9792 21.474 28.7604 21.7031 29.6562 21.7031C30.5625 21.7031 31.2292 21.5156 31.6562 21.1406C32.0833 20.7552 32.2969 20.25 32.2969 19.625C32.2969 19 31.9323 18.4219 31.2031 17.8906C30.8177 17.6094 29.9167 17.1667 28.5 16.5625C27.0938 15.9583 26.0417 15.3281 25.3438 14.6719C24.6458 14.0052 24.2969 13.0677 24.2969 11.8594C24.2969 10.651 24.8021 9.67188 25.8125 8.92188C26.8229 8.16146 28.0677 7.78125 29.5469 7.78125H29.9688C31.9062 7.78125 33.2656 8.01042 34.0469 8.46875C34.4531 8.70833 34.6562 9.375 34.6562 10.4688C34.6562 11.5625 34.3958 12.1094 33.875 12.1094C33.5833 12.1094 33.1823 11.7865 32.6719 11.1406C32.1719 10.4844 31.7135 10.0208 31.2969 9.75C30.8802 9.46875 30.3021 9.32812 29.5625 9.32812C28.8333 9.32812 28.2552 9.49479 27.8281 9.82812C27.401 10.1615 27.1875 10.6458 27.1875 11.2812C27.1875 11.9062 27.5781 12.4688 28.3594 12.9688C28.5573 13.1042 29.4219 13.5052 30.9531 14.1719C32.4844 14.8385 33.5365 15.4427 34.1094 15.9844ZM54.3281 15.7656H54.0625C52.6979 15.7656 51.5573 16.0729 50.6406 16.6875C49.7344 17.2917 49.2812 18.0469 49.2812 18.9531V19.2656C49.2812 19.7969 49.4427 20.276 49.7656 20.7031C50.099 21.1198 50.526 21.3281 51.0469 21.3281L51.2344 21.3594H51.7031C52.7865 21.3594 53.6719 20.9167 54.3594 20.0312C54.6615 19.6458 54.8125 18.8542 54.8125 17.6562C54.8125 17.5625 54.8125 17.4688 54.8125 17.375L54.8281 17V16.625C54.8281 16.0521 54.6615 15.7656 54.3281 15.7656ZM46.7344 10.7188C46.7344 9.94792 47.3438 9.26042 48.5625 8.65625C49.7917 8.04167 51.0625 7.73438 52.375 7.73438C52.4167 7.73438 52.4583 7.73438 52.5 7.73438C53.75 7.73438 54.75 7.88542 55.5 8.1875C57.0208 8.79167 57.8906 10.0729 58.1094 12.0312C58.1302 12.2292 58.1406 13.5417 58.1406 15.9688C58.1406 18.3854 58.2031 19.8021 58.3281 20.2188C58.4635 20.6354 58.8177 20.9427 59.3906 21.1406C59.974 21.3385 60.2656 21.526 60.2656 21.7031C60.2656 22.0781 60.0781 22.3646 59.7031 22.5625C58.9531 22.9583 58.2135 23.1562 57.4844 23.1562C56.7656 23.1562 56.2292 22.9896 55.875 22.6562C55.2396 22.0625 54.901 21.7656 54.8594 21.7656C54.8177 21.7656 54.2292 22.0312 53.0938 22.5625C51.9583 23.0833 50.9635 23.3438 50.1094 23.3438C48.8281 23.3438 47.8229 22.9896 47.0938 22.2812C46.3646 21.5729 46 20.7135 46 19.7031V19.3125C46 18.2292 46.4688 17.276 47.4062 16.4531C48.3438 15.6302 50.0312 14.9896 52.4688 14.5312C53.3542 14.3646 53.9115 14.2083 54.1406 14.0625C54.599 13.7708 54.8281 13.1771 54.8281 12.2812C54.8281 11.3854 54.5885 10.6979 54.1094 10.2188C53.6302 9.73958 52.9896 9.5 52.1875 9.5C51.3854 9.5 50.6094 9.96875 49.8594 10.9062C49.1198 11.8333 48.4427 12.2969 47.8281 12.2969C47.099 12.2969 46.7344 11.7708 46.7344 10.7188ZM81.2656 3.625C80.4115 3.04167 79.4479 2.75 78.375 2.75C77.3125 2.75 76.4427 3.03125 75.7656 3.59375C75.0885 4.14583 74.75 4.92708 74.75 5.9375C74.75 6.9375 75.2552 7.82292 76.2656 8.59375C76.8698 9.0625 78.1042 9.69792 79.9688 10.5C81.8333 11.3021 83.1302 12.0417 83.8594 12.7188C85.2552 14.0104 85.9531 15.3542 85.9531 16.75V17.3125C85.9531 19.0417 85.2656 20.4479 83.8906 21.5312C83.2552 22.0312 82.4635 22.4323 81.5156 22.7344C80.5677 23.026 79.6198 23.1719 78.6719 23.1719H78.0938C75.9479 23.1719 74.0677 22.849 72.4531 22.2031C71.724 21.9115 71.3594 21.1146 71.3594 19.8125V19.2656C71.3594 17.724 71.625 16.9531 72.1562 16.9531C72.5208 16.9531 73.0156 17.4479 73.6406 18.4375C74.2656 19.4271 74.9844 20.1719 75.7969 20.6719C76.6198 21.1719 77.6094 21.4219 78.7656 21.4219C79.9219 21.4219 80.8542 21.1198 81.5625 20.5156C82.2708 19.901 82.625 19.1458 82.625 18.25C82.625 17.0208 82.0521 15.9844 80.9062 15.1406C80.4167 14.7865 79.1875 14.1562 77.2188 13.25C75.25 12.3333 73.8854 11.4792 73.125 10.6875C72.0833 9.60417 71.5625 8.28125 71.5625 6.71875C71.5625 5.15625 72.1198 3.85938 73.2344 2.82812C73.849 2.25521 74.6146 1.8125 75.5312 1.5C76.4479 1.17708 77.3854 1.01562 78.3438 1.01562H78.9219C79.3177 1.01562 79.8802 1.08333 80.6094 1.21875L81.1562 1.32812C81.8021 1.45312 82.151 1.52083 82.2031 1.53125L82.6875 1.5625L83.1562 1.57812C83.5938 1.60938 83.901 1.66146 84.0781 1.73438C84.6927 1.98438 85 2.85417 85 4.34375C85 5.83333 84.7083 6.57812 84.125 6.57812C83.8333 6.57812 83.3958 6.16146 82.8125 5.32812C82.2292 4.49479 81.7135 3.92708 81.2656 3.625ZM92.2031 14.9531V15.5312C92.2031 17.3021 92.5469 18.7708 93.2344 19.9375C93.5573 20.4896 93.9688 20.9271 94.4688 21.25C94.9688 21.5729 95.474 21.7344 95.9844 21.7344H96.2969C97.2448 21.7344 98.0625 21.276 98.75 20.3594C99.4479 19.4323 99.7969 18.1198 99.7969 16.4219V15.3125C99.7969 13.6354 99.4479 12.2135 98.75 11.0469C98.0625 9.86979 97.1875 9.28125 96.125 9.28125H95.6406C94.6823 9.28125 93.8698 9.79688 93.2031 10.8281C92.5365 11.8594 92.2031 13.2344 92.2031 14.9531ZM103.562 15.0156V15.7969C103.562 16.6198 103.396 17.5208 103.062 18.5C102.365 20.5417 100.974 21.9688 98.8906 22.7812C97.9844 23.1354 97.1094 23.3125 96.2656 23.3125H95.75C93.7604 23.3125 92.099 22.6458 90.7656 21.3125C90.1615 20.7083 89.6719 19.9115 89.2969 18.9219C88.9219 17.9323 88.7344 16.8802 88.7344 15.7656V15.5C88.7344 14.4896 88.9115 13.4688 89.2656 12.4375C89.9531 10.4271 91.3021 9.03125 93.3125 8.25C94.2188 7.89583 95.0885 7.71875 95.9219 7.71875H96.7031C97.6302 7.71875 98.5417 7.92708 99.4375 8.34375C101.135 9.13542 102.318 10.3958 102.984 12.125C103.37 13.1458 103.562 14.1094 103.562 15.0156ZM118.469 16.0312V15.1094C118.469 13.4323 118.125 12.0938 117.438 11.0938C116.75 10.0938 115.885 9.59375 114.844 9.59375H114.688C114.115 9.59375 113.557 9.75521 113.016 10.0781C112.474 10.3906 112.057 10.7917 111.766 11.2812C111.484 11.7708 111.344 13.2135 111.344 15.6094V16.9375L111.359 17.1094V17.7656L111.375 17.9219V18.25C111.396 18.4792 111.406 18.6458 111.406 18.75C111.406 19.6354 111.688 20.3281 112.25 20.8281C112.823 21.3177 113.589 21.5625 114.547 21.5625H114.703C115.849 21.5625 116.76 21.0365 117.438 19.9844C118.125 18.9323 118.469 17.6146 118.469 16.0312ZM112.219 22.75C111.677 22.75 111.406 23.4479 111.406 24.8438C111.406 26.25 111.505 27.1406 111.703 27.5156C111.911 27.901 112.24 28.25 112.688 28.5625C113.146 28.875 113.375 29.1406 113.375 29.3594C113.375 29.8281 112.698 30.0625 111.344 30.0625H109.781C107.406 30.0625 106.219 29.8229 106.219 29.3438C106.219 29.1979 106.521 28.8333 107.125 28.25C107.448 27.9375 107.703 27.3021 107.891 26.3438C108.078 25.3958 108.172 23.5938 108.172 20.9375V14.4531L108.141 12.7812C108.141 11.7604 108.005 11.0156 107.734 10.5469C107.63 10.3698 107.359 10.1302 106.922 9.82812C106.484 9.51562 106.266 9.25 106.266 9.03125C106.266 8.8125 106.391 8.64062 106.641 8.51562C107.453 8.11979 108.526 7.92188 109.859 7.92188C110.203 7.92188 110.552 8.13021 110.906 8.54688C111.271 8.96354 111.474 9.17188 111.516 9.17188C111.682 9.17188 112.016 9.03125 112.516 8.75C113.026 8.45833 113.297 8.30208 113.328 8.28125C114.224 7.86458 115 7.65625 115.656 7.65625H116.469C117.052 7.65625 117.714 7.81771 118.453 8.14062C119.87 8.75521 120.885 9.90625 121.5 11.5938C121.865 12.5833 122.047 13.5469 122.047 14.4844V15.3594C122.047 16.3281 121.849 17.3229 121.453 18.3438C120.672 20.3646 119.349 21.7396 117.484 22.4688C116.693 22.7812 115.771 22.9375 114.719 22.9375L112.219 22.75ZM125.234 22.1406C125.234 21.9531 125.458 21.6146 125.906 21.125C126.354 20.625 126.63 20.125 126.734 19.625C126.849 19.125 126.906 16.4896 126.906 11.7188C126.906 6.94792 126.797 4.05729 126.578 3.04688C126.474 2.55729 126.255 2.19792 125.922 1.96875C125.318 1.54167 125.016 1.3125 125.016 1.28125C125.016 0.895833 125.219 0.625 125.625 0.46875C126.396 0.166667 127.297 0.015625 128.328 0.015625H128.844C129.323 0.015625 129.661 0.208333 129.859 0.59375C130.068 0.979167 130.172 1.82812 130.172 3.14062L130.156 3.71875C130.146 4.10417 130.141 4.48958 130.141 4.875L130.109 6.03125C130.109 6.41667 130.109 6.80208 130.109 7.1875C130.109 8.55208 130.349 9.23438 130.828 9.23438C130.88 9.22396 131.146 9.11458 131.625 8.90625C133.073 8.26042 134.286 7.9375 135.266 7.9375C137.099 7.9375 138.385 8.67188 139.125 10.1406C139.615 11.1406 139.859 13.599 139.859 17.5156C139.859 19.026 139.911 19.9688 140.016 20.3438C140.13 20.7083 140.427 21.0885 140.906 21.4844C141.396 21.8802 141.641 22.1302 141.641 22.2344C141.641 22.5573 141.427 22.776 141 22.8906C140.583 23.0052 139.51 23.0625 137.781 23.0625H137.234C136.099 23.0625 135.531 22.8333 135.531 22.375C135.531 22.2708 135.667 22.0104 135.938 21.5938C136.208 21.1667 136.385 20.6875 136.469 20.1562C136.552 19.625 136.594 18.2344 136.594 15.9844C136.594 13.7344 136.49 12.3177 136.281 11.7344C135.562 10.7969 134.766 10.224 133.891 10.0156C132.693 10.0156 131.734 10.4427 131.016 11.2969C130.484 11.9219 130.219 13.349 130.219 15.5781C130.219 17.7969 130.271 19.2135 130.375 19.8281C130.479 20.4323 130.703 20.9844 131.047 21.4844C131.401 21.974 131.578 22.276 131.578 22.3906C131.578 22.7656 130.521 22.9531 128.406 22.9531C126.292 22.9531 125.234 22.6823 125.234 22.1406ZM147.672 14.9531V15.5312C147.672 17.3021 148.016 18.7708 148.703 19.9375C149.026 20.4896 149.438 20.9271 149.938 21.25C150.438 21.5729 150.943 21.7344 151.453 21.7344H151.766C152.714 21.7344 153.531 21.276 154.219 20.3594C154.917 19.4323 155.266 18.1198 155.266 16.4219V15.3125C155.266 13.6354 154.917 12.2135 154.219 11.0469C153.531 9.86979 152.656 9.28125 151.594 9.28125H151.109C150.151 9.28125 149.339 9.79688 148.672 10.8281C148.005 11.8594 147.672 13.2344 147.672 14.9531ZM159.031 15.0156V15.7969C159.031 16.6198 158.865 17.5208 158.531 18.5C157.833 20.5417 156.443 21.9688 154.359 22.7812C153.453 23.1354 152.578 23.3125 151.734 23.3125H151.219C149.229 23.3125 147.568 22.6458 146.234 21.3125C145.63 20.7083 145.141 19.9115 144.766 18.9219C144.391 17.9323 144.203 16.8802 144.203 15.7656V15.5C144.203 14.4896 144.38 13.4688 144.734 12.4375C145.422 10.4271 146.771 9.03125 148.781 8.25C149.688 7.89583 150.557 7.71875 151.391 7.71875H152.172C153.099 7.71875 154.01 7.92708 154.906 8.34375C156.604 9.13542 157.786 10.3958 158.453 12.125C158.839 13.1458 159.031 14.1094 159.031 15.0156ZM173.047 20.0781C173.13 19.6719 173.172 18.2812 173.172 15.9062C173.172 13.5312 172.99 11.9792 172.625 11.25C172.26 10.5208 171.583 10.1562 170.594 10.1562C170 10.1562 169.385 10.3906 168.75 10.8594C168.115 11.3177 167.693 11.8281 167.484 12.3906C167.276 12.9531 167.172 14.2656 167.172 16.3281C167.172 18.3802 167.188 19.6458 167.219 20.125C167.26 20.6042 167.339 20.9792 167.453 21.25L167.656 21.6406C167.823 21.9635 167.906 22.1979 167.906 22.3438C167.906 22.7292 167.109 22.9219 165.516 22.9219C163.922 22.9219 162.885 22.7604 162.406 22.4375L162.125 22.1406C162.125 21.849 162.229 21.599 162.438 21.3906C163.062 20.7552 163.432 20.2708 163.547 19.9375C163.661 19.6042 163.719 18.1302 163.719 15.5156C163.719 12.8906 163.495 11.1771 163.047 10.375L162.719 9.95312C162.448 9.60938 162.312 9.34896 162.312 9.17188C162.312 8.98438 162.505 8.77083 162.891 8.53125C163.286 8.28125 163.896 8.15625 164.719 8.15625C165.552 8.15625 166.177 8.38021 166.594 8.82812C167.01 9.26562 167.307 9.48438 167.484 9.48438L167.953 9.26562L169.141 8.5625C170.109 8.05208 171.094 7.79688 172.094 7.79688C173.094 7.79688 174.047 8.10417 174.953 8.71875C175.859 9.32292 176.427 9.625 176.656 9.625L177.188 9.375L177.766 9.03125C178.255 8.73958 178.781 8.47917 179.344 8.25C179.885 8.02083 180.604 7.90625 181.5 7.90625C183.208 7.90625 184.417 8.61458 185.125 10.0312C185.646 11.0729 185.906 13.5104 185.906 17.3438C185.906 18.9896 185.958 19.9479 186.062 20.2188C186.167 20.4792 186.448 20.7969 186.906 21.1719C187.365 21.5469 187.594 21.7656 187.594 21.8281V22.2031L187.297 22.4844C186.797 22.7865 185.526 22.9375 183.484 22.9375C182.505 22.9375 182.016 22.6979 182.016 22.2188C182.016 22.1667 182.083 21.9323 182.219 21.5156C182.365 21.099 182.448 20.7656 182.469 20.5156C182.5 20.2552 182.516 18.9271 182.516 16.5312C182.516 14.1354 182.396 12.6354 182.156 12.0312C181.927 11.4167 181.635 10.9479 181.281 10.625C180.938 10.2917 180.411 10.125 179.703 10.125C178.995 10.125 178.396 10.3177 177.906 10.7031C177.417 11.0885 177.073 11.5208 176.875 12C176.677 12.4688 176.578 13.8958 176.578 16.2812C176.578 18.6667 176.651 20.0469 176.797 20.4219C176.943 20.7865 177.214 21.1458 177.609 21.5C178.016 21.8542 178.219 22.0885 178.219 22.2031C178.219 22.724 177.307 22.9844 175.484 22.9844H173.297C172.203 22.9844 171.656 22.8281 171.656 22.5156C171.656 22.1927 171.792 21.8854 172.062 21.5938C172.646 20.9792 172.974 20.474 173.047 20.0781ZM193.547 14.9531V15.5312C193.547 17.3021 193.891 18.7708 194.578 19.9375C194.901 20.4896 195.312 20.9271 195.812 21.25C196.312 21.5729 196.818 21.7344 197.328 21.7344H197.641C198.589 21.7344 199.406 21.276 200.094 20.3594C200.792 19.4323 201.141 18.1198 201.141 16.4219V15.3125C201.141 13.6354 200.792 12.2135 200.094 11.0469C199.406 9.86979 198.531 9.28125 197.469 9.28125H196.984C196.026 9.28125 195.214 9.79688 194.547 10.8281C193.88 11.8594 193.547 13.2344 193.547 14.9531ZM204.906 15.0156V15.7969C204.906 16.6198 204.74 17.5208 204.406 18.5C203.708 20.5417 202.318 21.9688 200.234 22.7812C199.328 23.1354 198.453 23.3125 197.609 23.3125H197.094C195.104 23.3125 193.443 22.6458 192.109 21.3125C191.505 20.7083 191.016 19.9115 190.641 18.9219C190.266 17.9323 190.078 16.8802 190.078 15.7656V15.5C190.078 14.4896 190.255 13.4688 190.609 12.4375C191.297 10.4271 192.646 9.03125 194.656 8.25C195.562 7.89583 196.432 7.71875 197.266 7.71875H198.047C198.974 7.71875 199.885 7.92708 200.781 8.34375C202.479 9.13542 203.661 10.3958 204.328 12.125C204.714 13.1458 204.906 14.1094 204.906 15.0156ZM215.5 22.3906C215.5 22.7969 214.557 23 212.672 23H211.016L210.359 22.9688L209.375 22.9531C208.271 22.9531 207.719 22.7552 207.719 22.3594C207.719 22.0781 207.964 21.7812 208.453 21.4688C208.953 21.1458 209.286 20.7344 209.453 20.2344C209.63 19.724 209.719 18.2292 209.719 15.75C209.719 13.2708 209.635 11.7656 209.469 11.2344C209.312 10.7031 209.062 10.3229 208.719 10.0938C208.104 9.6875 207.797 9.39062 207.797 9.20312C207.797 9.01562 207.906 8.84896 208.125 8.70312C208.771 8.26562 209.865 8.04688 211.406 8.04688H211.703C212.297 8.04688 212.719 8.34896 212.969 8.95312C213.219 9.54688 213.422 9.84375 213.578 9.84375C213.734 9.84375 214 9.69792 214.375 9.40625C214.76 9.11458 215.219 8.82292 215.75 8.53125C216.292 8.23958 216.891 8.09375 217.547 8.09375C218.203 8.09375 218.703 8.26562 219.047 8.60938C219.401 8.94271 219.578 9.375 219.578 9.90625C219.568 10.4479 219.427 10.8542 219.156 11.125C218.885 11.3958 218.594 11.5312 218.281 11.5312C217.969 11.5312 217.557 11.4062 217.047 11.1562C216.536 10.8958 216.109 10.7656 215.766 10.7656C215.422 10.7656 215.047 10.9115 214.641 11.2031C214.234 11.4844 213.885 11.9948 213.594 12.7344C213.312 13.4635 213.172 14.7188 213.172 16.5C213.172 18.2708 213.297 19.4167 213.547 19.9375C213.797 20.4479 214.182 20.9167 214.703 21.3438C215.234 21.7708 215.5 22.1198 215.5 22.3906ZM231.328 12.8438V12.3594C231.328 11.5885 231.052 10.8958 230.5 10.2812C229.948 9.65625 229.271 9.34375 228.469 9.34375H228.172C228.026 9.36458 227.927 9.375 227.875 9.375C227.146 9.375 226.453 9.79167 225.797 10.625C225.151 11.4583 224.828 12.349 224.828 13.2969V13.5C224.828 13.8333 225.026 14 225.422 14C225.578 14.0312 225.661 14.0469 225.672 14.0469L226.031 14.0625H226.125L226.234 14.0469L229.25 13.875L229.812 13.8125C230.823 13.8125 231.328 13.4896 231.328 12.8438ZM224.828 16.9844C224.828 18.1719 225.276 19.1667 226.172 19.9688C227.068 20.7708 228.203 21.1719 229.578 21.1719C230.13 21.1719 230.63 21.0938 231.078 20.9375C231.536 20.7708 232.031 20.5729 232.562 20.3438C233.104 20.1146 233.443 20 233.578 20C233.995 20 234.203 20.224 234.203 20.6719C234.203 21.276 233.432 21.9219 231.891 22.6094C230.891 23.0573 229.818 23.2812 228.672 23.2812H228.328C226.37 23.2812 224.745 22.6875 223.453 21.5C222.755 20.8542 222.214 20.0312 221.828 19.0312C221.443 18.0208 221.25 16.9375 221.25 15.7812L221.266 15.4219V15.0625C221.266 14.0625 221.495 13.0781 221.953 12.1094C222.422 11.1406 222.979 10.3438 223.625 9.71875C224.99 8.40625 226.609 7.74479 228.484 7.73438C231.318 7.73438 233.203 8.83854 234.141 11.0469C234.432 11.7448 234.578 12.3854 234.578 12.9688V13.2812C234.578 14 234.281 14.4844 233.688 14.7344C233.094 14.974 231.693 15.1719 229.484 15.3281C227.276 15.4844 226.078 15.5885 225.891 15.6406C225.182 15.8177 224.828 16.2656 224.828 16.9844ZM10.1719 40.8906C10.1719 41.0885 9.86979 41.3802 9.26562 41.7656C8.67188 42.151 8.30208 42.6771 8.15625 43.3438C8.02083 44 7.95312 46.6198 7.95312 51.2031C7.95312 55.776 8.03646 58.3958 8.20312 59.0625C8.38021 59.7188 8.76042 60.2135 9.34375 60.5469C9.9375 60.8698 10.2344 61.1719 10.2344 61.4531C10.2344 61.8385 9.76042 62.0312 8.8125 62.0312L8.46875 62.0156L7.75 62C7.51042 61.9896 7.27083 61.9844 7.03125 61.9844L6.34375 61.9531H4.23438C2.53646 61.9531 1.6875 61.8021 1.6875 61.5V61.2812C1.6875 61.0833 2.02083 60.7917 2.6875 60.4062C3.36458 60.0104 3.78646 59.4583 3.95312 58.75C4.11979 58.0312 4.20312 55.4844 4.20312 51.1094C4.20312 46.724 4.10417 44.1667 3.90625 43.4375C3.70833 42.6979 3.39583 42.2135 2.96875 41.9844C2.11458 41.5156 1.6875 41.1615 1.6875 40.9219C1.6875 40.5156 3.29688 40.3125 6.51562 40.3125L8.23438 40.2812H9.25C9.86458 40.2812 10.1719 40.4844 10.1719 40.8906ZM21.6719 61.1406C21.6719 60.9531 21.8958 60.6146 22.3438 60.125C22.7917 59.625 23.0677 59.125 23.1719 58.625C23.2865 58.125 23.3438 55.4896 23.3438 50.7188C23.3438 45.9479 23.2344 43.0573 23.0156 42.0469C22.9115 41.5573 22.6927 41.1979 22.3594 40.9688C21.7552 40.5417 21.4531 40.3125 21.4531 40.2812C21.4531 39.8958 21.6562 39.625 22.0625 39.4688C22.8333 39.1667 23.7344 39.0156 24.7656 39.0156H25.2812C25.7604 39.0156 26.099 39.2083 26.2969 39.5938C26.5052 39.9792 26.6094 40.8281 26.6094 42.1406L26.5938 42.7188C26.5833 43.1042 26.5781 43.4896 26.5781 43.875L26.5469 45.0312C26.5469 45.4167 26.5469 45.8021 26.5469 46.1875C26.5469 47.5521 26.7865 48.2344 27.2656 48.2344C27.3177 48.224 27.5833 48.1146 28.0625 47.9062C29.5104 47.2604 30.724 46.9375 31.7031 46.9375C33.5365 46.9375 34.8229 47.6719 35.5625 49.1406C36.0521 50.1406 36.2969 52.599 36.2969 56.5156C36.2969 58.026 36.349 58.9688 36.4531 59.3438C36.5677 59.7083 36.8646 60.0885 37.3438 60.4844C37.8333 60.8802 38.0781 61.1302 38.0781 61.2344C38.0781 61.5573 37.8646 61.776 37.4375 61.8906C37.0208 62.0052 35.9479 62.0625 34.2188 62.0625H33.6719C32.5365 62.0625 31.9688 61.8333 31.9688 61.375C31.9688 61.2708 32.1042 61.0104 32.375 60.5938C32.6458 60.1667 32.8229 59.6875 32.9062 59.1562C32.9896 58.625 33.0312 57.2344 33.0312 54.9844C33.0312 52.7344 32.9271 51.3177 32.7188 50.7344C32 49.7969 31.2031 49.224 30.3281 49.0156C29.1302 49.0156 28.1719 49.4427 27.4531 50.2969C26.9219 50.9219 26.6562 52.349 26.6562 54.5781C26.6562 56.7969 26.7083 58.2135 26.8125 58.8281C26.9167 59.4323 27.1406 59.9844 27.4844 60.4844C27.8385 60.974 28.0156 61.276 28.0156 61.3906C28.0156 61.7656 26.9583 61.9531 24.8438 61.9531C22.7292 61.9531 21.6719 61.6823 21.6719 61.1406ZM48.9219 54.7656H48.6562C47.2917 54.7656 46.151 55.0729 45.2344 55.6875C44.3281 56.2917 43.875 57.0469 43.875 57.9531V58.2656C43.875 58.7969 44.0365 59.276 44.3594 59.7031C44.6927 60.1198 45.1198 60.3281 45.6406 60.3281L45.8281 60.3594H46.2969C47.3802 60.3594 48.2656 59.9167 48.9531 59.0312C49.2552 58.6458 49.4062 57.8542 49.4062 56.6562C49.4062 56.5625 49.4062 56.4688 49.4062 56.375L49.4219 56V55.625C49.4219 55.0521 49.2552 54.7656 48.9219 54.7656ZM41.3281 49.7188C41.3281 48.9479 41.9375 48.2604 43.1562 47.6562C44.3854 47.0417 45.6562 46.7344 46.9688 46.7344C47.0104 46.7344 47.0521 46.7344 47.0938 46.7344C48.3438 46.7344 49.3438 46.8854 50.0938 47.1875C51.6146 47.7917 52.4844 49.0729 52.7031 51.0312C52.724 51.2292 52.7344 52.5417 52.7344 54.9688C52.7344 57.3854 52.7969 58.8021 52.9219 59.2188C53.0573 59.6354 53.4115 59.9427 53.9844 60.1406C54.5677 60.3385 54.8594 60.526 54.8594 60.7031C54.8594 61.0781 54.6719 61.3646 54.2969 61.5625C53.5469 61.9583 52.8073 62.1562 52.0781 62.1562C51.3594 62.1562 50.8229 61.9896 50.4688 61.6562C49.8333 61.0625 49.4948 60.7656 49.4531 60.7656C49.4115 60.7656 48.8229 61.0312 47.6875 61.5625C46.5521 62.0833 45.5573 62.3438 44.7031 62.3438C43.4219 62.3438 42.4167 61.9896 41.6875 61.2812C40.9583 60.5729 40.5938 59.7135 40.5938 58.7031V58.3125C40.5938 57.2292 41.0625 56.276 42 55.4531C42.9375 54.6302 44.625 53.9896 47.0625 53.5312C47.9479 53.3646 48.5052 53.2083 48.7344 53.0625C49.1927 52.7708 49.4219 52.1771 49.4219 51.2812C49.4219 50.3854 49.1823 49.6979 48.7031 49.2188C48.224 48.7396 47.5833 48.5 46.7812 48.5C45.9792 48.5 45.2031 48.9688 44.4531 49.9062C43.7135 50.8333 43.0365 51.2969 42.4219 51.2969C41.6927 51.2969 41.3281 50.7708 41.3281 49.7188ZM64.4688 62.2031H64.1094C63.6198 62.2031 63.1354 61.75 62.6562 60.8438C62.4167 60.3854 61.6823 58.5885 60.4531 55.4531C59.224 52.3177 58.474 50.5104 58.2031 50.0312C57.9323 49.5417 57.5104 49.1094 56.9375 48.7344C56.3646 48.349 56.0781 48.0573 56.0781 47.8594C56.0781 47.5365 56.3073 47.3281 56.7656 47.2344C57.224 47.1406 58.2708 47.0938 59.9062 47.0938C61.5417 47.0938 62.3594 47.3281 62.3594 47.7969C62.3594 47.8281 62.3021 48 62.1875 48.3125C62.0729 48.6146 62.0156 48.9479 62.0156 49.3125C62.0156 50.7396 62.8281 53.3333 64.4531 57.0938C64.7552 57.7812 64.9688 58.125 65.0938 58.125C65.2188 58.125 65.4219 57.8125 65.7031 57.1875C67.3802 53.4792 68.2188 50.9062 68.2188 49.4688C68.2188 49.1146 68.0833 48.7396 67.8125 48.3438C67.5417 47.9479 67.4062 47.7448 67.4062 47.7344C67.4062 47.2865 68.375 47.0625 70.3125 47.0625H70.6875C71.9583 47.0625 72.5938 47.2812 72.5938 47.7188C72.5938 48.0938 72.3177 48.4635 71.7656 48.8281C71.2135 49.1823 70.7917 49.625 70.5 50.1562C70.3646 50.3958 69.6719 52.0677 68.4219 55.1719C67.1719 58.2656 66.3281 60.2135 65.8906 61.0156C65.4531 61.8073 64.9792 62.2031 64.4688 62.2031ZM83.9844 51.8438V51.3594C83.9844 50.5885 83.7083 49.8958 83.1562 49.2812C82.6042 48.6562 81.9271 48.3438 81.125 48.3438H80.8281C80.6823 48.3646 80.5833 48.375 80.5312 48.375C79.8021 48.375 79.1094 48.7917 78.4531 49.625C77.8073 50.4583 77.4844 51.349 77.4844 52.2969V52.5C77.4844 52.8333 77.6823 53 78.0781 53C78.2344 53.0312 78.3177 53.0469 78.3281 53.0469L78.6875 53.0625H78.7812L78.8906 53.0469L81.9062 52.875L82.4688 52.8125C83.4792 52.8125 83.9844 52.4896 83.9844 51.8438ZM77.4844 55.9844C77.4844 57.1719 77.9323 58.1667 78.8281 58.9688C79.724 59.7708 80.8594 60.1719 82.2344 60.1719C82.7865 60.1719 83.2865 60.0938 83.7344 59.9375C84.1927 59.7708 84.6875 59.5729 85.2188 59.3438C85.7604 59.1146 86.099 59 86.2344 59C86.651 59 86.8594 59.224 86.8594 59.6719C86.8594 60.276 86.0885 60.9219 84.5469 61.6094C83.5469 62.0573 82.474 62.2812 81.3281 62.2812H80.9844C79.026 62.2812 77.401 61.6875 76.1094 60.5C75.4115 59.8542 74.8698 59.0312 74.4844 58.0312C74.099 57.0208 73.9062 55.9375 73.9062 54.7812L73.9219 54.4219V54.0625C73.9219 53.0625 74.151 52.0781 74.6094 51.1094C75.0781 50.1406 75.6354 49.3438 76.2812 48.7188C77.6458 47.4062 79.2656 46.7448 81.1406 46.7344C83.974 46.7344 85.8594 47.8385 86.7969 50.0469C87.0885 50.7448 87.2344 51.3854 87.2344 51.9688V52.2812C87.2344 53 86.9375 53.4844 86.3438 53.7344C85.75 53.974 84.349 54.1719 82.1406 54.3281C79.9323 54.4844 78.7344 54.5885 78.5469 54.6406C77.8385 54.8177 77.4844 55.2656 77.4844 55.9844ZM108.078 51.8438V51.3594C108.078 50.5885 107.802 49.8958 107.25 49.2812C106.698 48.6562 106.021 48.3438 105.219 48.3438H104.922C104.776 48.3646 104.677 48.375 104.625 48.375C103.896 48.375 103.203 48.7917 102.547 49.625C101.901 50.4583 101.578 51.349 101.578 52.2969V52.5C101.578 52.8333 101.776 53 102.172 53C102.328 53.0312 102.411 53.0469 102.422 53.0469L102.781 53.0625H102.875L102.984 53.0469L106 52.875L106.562 52.8125C107.573 52.8125 108.078 52.4896 108.078 51.8438ZM101.578 55.9844C101.578 57.1719 102.026 58.1667 102.922 58.9688C103.818 59.7708 104.953 60.1719 106.328 60.1719C106.88 60.1719 107.38 60.0938 107.828 59.9375C108.286 59.7708 108.781 59.5729 109.312 59.3438C109.854 59.1146 110.193 59 110.328 59C110.745 59 110.953 59.224 110.953 59.6719C110.953 60.276 110.182 60.9219 108.641 61.6094C107.641 62.0573 106.568 62.2812 105.422 62.2812H105.078C103.12 62.2812 101.495 61.6875 100.203 60.5C99.5052 59.8542 98.9635 59.0312 98.5781 58.0312C98.1927 57.0208 98 55.9375 98 54.7812L98.0156 54.4219V54.0625C98.0156 53.0625 98.2448 52.0781 98.7031 51.1094C99.1719 50.1406 99.7292 49.3438 100.375 48.7188C101.74 47.4062 103.359 46.7448 105.234 46.7344C108.068 46.7344 109.953 47.8385 110.891 50.0469C111.182 50.7448 111.328 51.3854 111.328 51.9688V52.2812C111.328 53 111.031 53.4844 110.438 53.7344C109.844 53.974 108.443 54.1719 106.234 54.3281C104.026 54.4844 102.828 54.5885 102.641 54.6406C101.932 54.8177 101.578 55.2656 101.578 55.9844ZM122.391 54.7656H122.125C120.76 54.7656 119.62 55.0729 118.703 55.6875C117.797 56.2917 117.344 57.0469 117.344 57.9531V58.2656C117.344 58.7969 117.505 59.276 117.828 59.7031C118.161 60.1198 118.589 60.3281 119.109 60.3281L119.297 60.3594H119.766C120.849 60.3594 121.734 59.9167 122.422 59.0312C122.724 58.6458 122.875 57.8542 122.875 56.6562C122.875 56.5625 122.875 56.4688 122.875 56.375L122.891 56V55.625C122.891 55.0521 122.724 54.7656 122.391 54.7656ZM114.797 49.7188C114.797 48.9479 115.406 48.2604 116.625 47.6562C117.854 47.0417 119.125 46.7344 120.438 46.7344C120.479 46.7344 120.521 46.7344 120.562 46.7344C121.812 46.7344 122.812 46.8854 123.562 47.1875C125.083 47.7917 125.953 49.0729 126.172 51.0312C126.193 51.2292 126.203 52.5417 126.203 54.9688C126.203 57.3854 126.266 58.8021 126.391 59.2188C126.526 59.6354 126.88 59.9427 127.453 60.1406C128.036 60.3385 128.328 60.526 128.328 60.7031C128.328 61.0781 128.141 61.3646 127.766 61.5625C127.016 61.9583 126.276 62.1562 125.547 62.1562C124.828 62.1562 124.292 61.9896 123.938 61.6562C123.302 61.0625 122.964 60.7656 122.922 60.7656C122.88 60.7656 122.292 61.0312 121.156 61.5625C120.021 62.0833 119.026 62.3438 118.172 62.3438C116.891 62.3438 115.885 61.9896 115.156 61.2812C114.427 60.5729 114.062 59.7135 114.062 58.7031V58.3125C114.062 57.2292 114.531 56.276 115.469 55.4531C116.406 54.6302 118.094 53.9896 120.531 53.5312C121.417 53.3646 121.974 53.2083 122.203 53.0625C122.661 52.7708 122.891 52.1771 122.891 51.2812C122.891 50.3854 122.651 49.6979 122.172 49.2188C121.693 48.7396 121.052 48.5 120.25 48.5C119.448 48.5 118.672 48.9688 117.922 49.9062C117.182 50.8333 116.505 51.2969 115.891 51.2969C115.161 51.2969 114.797 50.7708 114.797 49.7188ZM138.625 61.3906C138.625 61.7969 137.682 62 135.797 62H134.141L133.484 61.9688L132.5 61.9531C131.396 61.9531 130.844 61.7552 130.844 61.3594C130.844 61.0781 131.089 60.7812 131.578 60.4688C132.078 60.1458 132.411 59.7344 132.578 59.2344C132.755 58.724 132.844 57.2292 132.844 54.75C132.844 52.2708 132.76 50.7656 132.594 50.2344C132.438 49.7031 132.188 49.3229 131.844 49.0938C131.229 48.6875 130.922 48.3906 130.922 48.2031C130.922 48.0156 131.031 47.849 131.25 47.7031C131.896 47.2656 132.99 47.0469 134.531 47.0469H134.828C135.422 47.0469 135.844 47.349 136.094 47.9531C136.344 48.5469 136.547 48.8438 136.703 48.8438C136.859 48.8438 137.125 48.6979 137.5 48.4062C137.885 48.1146 138.344 47.8229 138.875 47.5312C139.417 47.2396 140.016 47.0938 140.672 47.0938C141.328 47.0938 141.828 47.2656 142.172 47.6094C142.526 47.9427 142.703 48.375 142.703 48.9062C142.693 49.4479 142.552 49.8542 142.281 50.125C142.01 50.3958 141.719 50.5312 141.406 50.5312C141.094 50.5312 140.682 50.4062 140.172 50.1562C139.661 49.8958 139.234 49.7656 138.891 49.7656C138.547 49.7656 138.172 49.9115 137.766 50.2031C137.359 50.4844 137.01 50.9948 136.719 51.7344C136.438 52.4635 136.297 53.7188 136.297 55.5C136.297 57.2708 136.422 58.4167 136.672 58.9375C136.922 59.4479 137.307 59.9167 137.828 60.3438C138.359 60.7708 138.625 61.1198 138.625 61.3906ZM146.969 61.875C145.5 61.875 144.766 61.6667 144.766 61.25C144.766 60.9062 144.958 60.625 145.344 60.4062C146.042 60.0104 146.448 59.6562 146.562 59.3438C146.677 59.0208 146.734 57.5156 146.734 54.8281C146.734 52.1302 146.651 50.5521 146.484 50.0938C146.328 49.625 146.036 49.2396 145.609 48.9375C145.182 48.6354 144.969 48.3906 144.969 48.2031C144.969 48.0156 145.109 47.8385 145.391 47.6719C146.047 47.2865 147.089 47.0938 148.516 47.0938C148.943 47.0938 149.276 47.2396 149.516 47.5312C149.599 47.6354 149.714 47.8646 149.859 48.2188C150.016 48.5625 150.12 48.7344 150.172 48.7344C150.37 48.724 150.677 48.5833 151.094 48.3125C152.531 47.3438 153.833 46.8594 155 46.8594H155.031H155.531C156.375 46.8594 157.135 47.0677 157.812 47.4844C158.49 47.901 159.01 48.526 159.375 49.3594C159.75 50.1927 159.938 52.0104 159.938 54.8125C159.938 57.6042 159.995 59.1667 160.109 59.5C160.234 59.8229 160.573 60.125 161.125 60.4062C161.688 60.6875 161.969 60.9635 161.969 61.2344C161.969 61.7031 160.49 61.9375 157.531 61.9375H157.062C156.125 61.9375 155.656 61.7135 155.656 61.2656C155.656 61.1719 155.771 60.9479 156 60.5938C156.229 60.2292 156.385 59.8281 156.469 59.3906C156.552 58.9531 156.594 57.5156 156.594 55.0781C156.594 52.6302 156.443 51.0573 156.141 50.3594C155.724 49.401 155.031 48.9219 154.062 48.9219C153.354 48.9219 152.667 49.0885 152 49.4219C151.344 49.7448 150.865 50.2083 150.562 50.8125C150.271 51.4062 150.125 52.8385 150.125 55.1094C150.125 57.3698 150.188 58.7396 150.312 59.2188C150.438 59.6875 150.589 60.0677 150.766 60.3594L151.344 61.2969C151.344 61.7031 150.526 61.9062 148.891 61.9062L147.938 61.875H146.969ZM174.109 51.8438V51.3594C174.109 50.5885 173.833 49.8958 173.281 49.2812C172.729 48.6562 172.052 48.3438 171.25 48.3438H170.953C170.807 48.3646 170.708 48.375 170.656 48.375C169.927 48.375 169.234 48.7917 168.578 49.625C167.932 50.4583 167.609 51.349 167.609 52.2969V52.5C167.609 52.8333 167.807 53 168.203 53C168.359 53.0312 168.443 53.0469 168.453 53.0469L168.812 53.0625H168.906L169.016 53.0469L172.031 52.875L172.594 52.8125C173.604 52.8125 174.109 52.4896 174.109 51.8438ZM167.609 55.9844C167.609 57.1719 168.057 58.1667 168.953 58.9688C169.849 59.7708 170.984 60.1719 172.359 60.1719C172.911 60.1719 173.411 60.0938 173.859 59.9375C174.318 59.7708 174.812 59.5729 175.344 59.3438C175.885 59.1146 176.224 59 176.359 59C176.776 59 176.984 59.224 176.984 59.6719C176.984 60.276 176.214 60.9219 174.672 61.6094C173.672 62.0573 172.599 62.2812 171.453 62.2812H171.109C169.151 62.2812 167.526 61.6875 166.234 60.5C165.536 59.8542 164.995 59.0312 164.609 58.0312C164.224 57.0208 164.031 55.9375 164.031 54.7812L164.047 54.4219V54.0625C164.047 53.0625 164.276 52.0781 164.734 51.1094C165.203 50.1406 165.76 49.3438 166.406 48.7188C167.771 47.4062 169.391 46.7448 171.266 46.7344C174.099 46.7344 175.984 47.8385 176.922 50.0469C177.214 50.7448 177.359 51.3854 177.359 51.9688V52.2812C177.359 53 177.062 53.4844 176.469 53.7344C175.875 53.974 174.474 54.1719 172.266 54.3281C170.057 54.4844 168.859 54.5885 168.672 54.6406C167.964 54.8177 167.609 55.2656 167.609 55.9844ZM190.562 51.2969C190.562 50.4531 190.292 49.7812 189.75 49.2812C189.208 48.7708 188.49 48.5156 187.594 48.5156H187.297C186.828 48.5156 186.328 48.6562 185.797 48.9375C185.266 49.2188 184.828 49.625 184.484 50.1562C183.797 51.2188 183.453 52.5365 183.453 54.1094V55.0312C183.453 56.5938 183.802 57.8854 184.5 58.9062C185.208 59.9271 186.068 60.4375 187.078 60.4375H187.531C188.417 60.4375 189.141 60.1354 189.703 59.5312C190.266 58.9271 190.547 58.1562 190.547 57.2188L190.578 56.8906V56.5625L190.609 55.75C190.609 55.25 190.609 54.75 190.609 54.25L190.625 53.75V53.2656L190.609 53.0938V52.2656L190.594 52.1094V51.7812C190.573 51.5729 190.562 51.4115 190.562 51.2969ZM190.641 46.875C190.734 46.6458 190.781 45.9583 190.781 44.8125C190.781 43.6667 190.693 42.8281 190.516 42.2969C190.339 41.7552 190.026 41.3125 189.578 40.9688C189.141 40.6146 188.922 40.349 188.922 40.1719C188.922 39.9948 189.042 39.8385 189.281 39.7031C189.927 39.3281 190.979 39.1406 192.438 39.1406H192.812C193.542 39.1406 193.958 39.5312 194.062 40.3125C194.094 40.5521 194.109 43.5312 194.109 49.25C194.109 54.9583 194.151 58.0938 194.234 58.6562C194.318 59.2083 194.516 59.6406 194.828 59.9531C194.891 60.0156 195.089 60.1771 195.422 60.4375C195.766 60.6875 195.938 60.9115 195.938 61.1094C195.938 61.2969 195.792 61.4688 195.5 61.625C194.906 61.9479 193.938 62.1094 192.594 62.1094C192.125 62.1094 191.75 61.9688 191.469 61.6875C190.917 61.1354 190.615 60.8594 190.562 60.8594C190.521 60.8594 190.286 60.9792 189.859 61.2188C189.432 61.4583 188.917 61.7031 188.312 61.9531C187.719 62.1927 186.979 62.3125 186.094 62.3125C185.208 62.3125 184.391 62.1198 183.641 61.7344C182.255 61.026 181.281 59.8542 180.719 58.2188C180.385 57.2396 180.219 56.1667 180.219 55C180.219 52.6458 180.891 50.7292 182.234 49.25C183.589 47.7708 185.453 47.0312 187.828 47.0312L189.875 47.2188C190.292 47.2188 190.547 47.1042 190.641 46.875ZM201.594 51.3906C201.219 51.3906 200.792 51.224 200.312 50.8906C199.844 50.5469 199.609 50.0677 199.609 49.4531V49.0312C199.609 48.6458 199.797 48.2344 200.172 47.7969C200.557 47.349 201 47.125 201.5 47.125L201.641 47.0938H202.062C202.167 47.1146 202.24 47.125 202.281 47.125C202.74 47.125 203.151 47.3385 203.516 47.7656C203.88 48.1927 204.062 48.6615 204.062 49.1719V49.25C204.062 49.6979 203.891 50.1615 203.547 50.6406C203.203 51.1198 202.745 51.3594 202.172 51.3594L202.031 51.3906H201.594ZM201.922 62.0156H201.562C201.458 61.9948 201.385 61.9844 201.344 61.9844C200.875 61.9844 200.458 61.7656 200.094 61.3281C199.729 60.8906 199.547 60.4271 199.547 59.9375V59.875C199.547 59.3646 199.745 58.8802 200.141 58.4219C200.536 57.9531 201.042 57.7188 201.656 57.7188H202.016C202.401 57.7188 202.828 57.8906 203.297 58.2344C203.776 58.5677 204.016 59.0365 204.016 59.6406V60C204.016 60.5625 203.786 61.0417 203.328 61.4375C202.88 61.8229 202.411 62.0156 201.922 62.0156ZM25.5762 144.765C25.5762 154.315 25.8105 159.853 26.2793 161.376C26.7773 162.87 27.9932 164.306 29.9268 165.683C31.8896 167.03 32.8711 168.158 32.8711 169.066C32.8711 170.355 31.3623 171 28.3447 171H14.458C9.8877 171 7.60254 170.253 7.60254 168.759C7.60254 167.997 8.59863 167.03 10.5908 165.858C12.6123 164.687 13.9307 163.236 14.5459 161.508C15.1904 159.779 15.5127 153.861 15.5127 143.754C15.5127 133.646 15.1758 127.831 14.502 126.308C13.8574 124.755 12.334 123.905 9.93164 123.759C7.55859 123.612 6.37207 122.953 6.37207 121.781C6.37207 121.02 7.08984 120.258 8.52539 119.496C9.19922 119.145 10.7959 118.529 13.3154 117.65C15.8643 116.742 17.959 115.966 19.5996 115.321C21.2402 114.677 22.5586 114.354 23.5547 114.354C24.5801 114.354 25.2979 114.735 25.708 115.497C26.1475 116.229 26.3672 117.533 26.3672 119.408L25.752 129.999L25.6641 131.845V133.646L25.5762 137.338V144.765ZM72.7734 171H71.3672L69.917 170.956L62.7539 170.868L61.3477 170.824L54.1846 170.78C49.8486 170.78 47.2559 170.619 46.4062 170.297C45.0879 169.799 44.4287 168.788 44.4287 167.265C44.4287 165.741 45.5127 163.661 47.6807 161.024C47.7393 160.937 50.4053 158.212 55.6787 152.851C60.9521 147.46 64.3652 143.593 65.918 141.249C68.5547 137.294 69.873 133.69 69.873 130.438C69.873 127.187 69.0381 124.638 67.3682 122.792C65.6982 120.946 63.6621 120.023 61.2598 120.023C57.0703 120.023 53.9062 122.118 51.7676 126.308C50.2441 129.267 48.8525 130.746 47.5928 130.746C45.5713 130.746 44.5605 129.618 44.5605 127.362C44.5605 125.077 45.0293 123.246 45.9668 121.869C46.9336 120.492 48.2666 119.247 49.9658 118.134C53.7744 115.614 58.2861 114.354 63.501 114.354C68.7158 114.354 72.7881 115.746 75.7178 118.529C78.6475 121.312 80.1123 125.048 80.1123 129.735C80.1123 133.339 78.8672 136.811 76.377 140.15C73.8867 143.49 69.7412 147.724 63.9404 152.851C58.1396 157.948 55.2393 161.068 55.2393 162.211C55.2393 163.09 57.6709 163.529 62.5342 163.529C67.3975 163.529 70.7373 163.236 72.5537 162.65C74.3994 162.064 76.0547 161.2 77.5195 160.058C78.9844 158.915 80.1416 158.344 80.9912 158.344C81.8408 158.344 82.2656 159.369 82.2656 161.42C82.2656 165.492 81.5039 168.231 79.9805 169.638C78.9844 170.546 76.582 171 72.7734 171ZM100.371 145.125H100.688C101.332 145.125 101.654 145.271 101.654 145.564C101.654 145.857 101.402 146.631 100.898 147.885C95.332 161.807 92.0332 169.934 91.002 172.266C90.4512 173.508 89.8477 174.129 89.1914 174.129H88.875C88.2305 174.129 87.9082 174 87.9082 173.742C87.9082 172.465 91.418 163.635 98.4375 147.252C99.0469 145.834 99.6914 145.125 100.371 145.125ZM112.342 160.506C112.342 164.326 112.436 166.541 112.623 167.15C112.822 167.748 113.309 168.322 114.082 168.873C114.867 169.412 115.26 169.863 115.26 170.227C115.26 170.742 114.656 171 113.449 171H107.895C106.066 171 105.152 170.701 105.152 170.104C105.152 169.799 105.551 169.412 106.348 168.943C107.156 168.475 107.684 167.895 107.93 167.203C108.188 166.512 108.316 164.145 108.316 160.102C108.316 156.059 108.182 153.732 107.912 153.123C107.654 152.502 107.045 152.162 106.084 152.104C105.135 152.045 104.66 151.781 104.66 151.312C104.66 151.008 104.947 150.703 105.521 150.398C105.791 150.258 106.43 150.012 107.438 149.66C108.457 149.297 109.295 148.986 109.951 148.729C110.607 148.471 111.135 148.342 111.533 148.342C111.943 148.342 112.23 148.494 112.395 148.799C112.57 149.092 112.658 149.613 112.658 150.363L112.412 154.6L112.377 155.338V156.059L112.342 157.535V160.506ZM131.221 171H130.658L130.078 170.982L127.213 170.947L126.65 170.93L123.785 170.912C122.051 170.912 121.014 170.848 120.674 170.719C120.146 170.52 119.883 170.115 119.883 169.506C119.883 168.896 120.316 168.064 121.184 167.01C121.207 166.975 122.273 165.885 124.383 163.74C126.492 161.584 127.857 160.037 128.479 159.1C129.533 157.518 130.061 156.076 130.061 154.775C130.061 153.475 129.727 152.455 129.059 151.717C128.391 150.979 127.576 150.609 126.615 150.609C124.939 150.609 123.674 151.447 122.818 153.123C122.209 154.307 121.652 154.898 121.148 154.898C120.34 154.898 119.936 154.447 119.936 153.545C119.936 152.631 120.123 151.898 120.498 151.348C120.885 150.797 121.418 150.299 122.098 149.854C123.621 148.846 125.426 148.342 127.512 148.342C129.598 148.342 131.227 148.898 132.398 150.012C133.57 151.125 134.156 152.619 134.156 154.494C134.156 155.936 133.658 157.324 132.662 158.66C131.666 159.996 130.008 161.689 127.688 163.74C125.367 165.779 124.207 167.027 124.207 167.484C124.207 167.836 125.18 168.012 127.125 168.012C129.07 168.012 130.406 167.895 131.133 167.66C131.871 167.426 132.533 167.08 133.119 166.623C133.705 166.166 134.168 165.938 134.508 165.938C134.848 165.938 135.018 166.348 135.018 167.168C135.018 168.797 134.713 169.893 134.104 170.455C133.705 170.818 132.744 171 131.221 171ZM178.623 147.836V147.602C178.623 145.154 176.527 139.034 172.334 129.242C171.605 127.549 171.227 126.703 171.201 126.703L170.068 129.32C165.745 139.398 163.584 145.518 163.584 147.68C163.584 148.044 163.805 148.24 164.248 148.266C164.717 148.292 165.068 148.305 165.303 148.305L168.35 148.383H171.123L171.396 148.344C176.214 148.344 178.623 148.174 178.623 147.836ZM146.045 168.656C146.045 168.005 146.787 167.25 148.271 166.391C149.756 165.531 150.85 164.438 151.553 163.109C152.256 161.781 153.245 159.385 154.521 155.922C155.798 152.432 157.529 148.044 159.717 142.758C161.93 137.471 163.675 132.732 164.951 128.539C166.253 124.32 167.139 121.651 167.607 120.531C168.675 117.979 170.186 116.703 172.139 116.703H173.232C173.727 116.703 174.339 116.977 175.068 117.523C176.553 118.643 178.102 121.039 179.717 124.711C180.264 125.961 181.084 128.109 182.178 131.156C183.271 134.177 185.459 140.102 188.74 148.93C192.021 157.758 193.857 162.562 194.248 163.344C194.899 164.698 196.006 165.792 197.568 166.625C199.131 167.432 199.912 168.083 199.912 168.578C199.912 169.672 199.261 170.349 197.959 170.609C197.074 170.792 194.834 170.883 191.24 170.883L188.975 170.922C184.157 170.922 181.748 170.271 181.748 168.969C181.748 168.734 182.048 168.174 182.646 167.289C183.271 166.404 183.584 165.284 183.584 163.93C183.584 162.576 183.089 160.635 182.1 158.109C181.136 155.583 180.316 154.021 179.639 153.422C178.988 152.823 176.162 152.523 171.162 152.523C166.162 152.523 163.245 152.797 162.412 153.344C161.579 153.891 160.68 155.362 159.717 157.758C158.753 160.154 158.271 162.107 158.271 163.617C158.271 165.102 158.727 166.417 159.639 167.562C160.576 168.708 161.045 169.307 161.045 169.359C161.045 170.297 159.443 170.766 156.24 170.766C153.063 170.766 150.563 170.648 148.74 170.414C146.943 170.154 146.045 169.568 146.045 168.656ZM209.092 148.096V148.658C209.092 150.029 208.588 151.383 207.58 152.719C206.584 154.055 205.693 154.723 204.908 154.723H204.803C204.381 154.723 204.17 154.494 204.17 154.037L205.312 152.508C205.816 151.84 206.068 151.201 206.068 150.592C206.068 150.24 205.746 149.801 205.102 149.273C204.457 148.746 204.135 148.154 204.135 147.498V147.375L204.152 147.252C204.152 146.736 204.369 146.279 204.803 145.881C205.248 145.482 205.77 145.283 206.367 145.283H206.631L206.771 145.301C207.428 145.301 207.979 145.547 208.424 146.039C208.869 146.531 209.092 147.217 209.092 148.096ZM223.172 163.107C224.098 163.986 224.561 165.1 224.561 166.447C224.561 167.783 224.01 168.932 222.908 169.893C221.807 170.842 220.283 171.316 218.338 171.316H217.863C215.648 171.316 213.961 171.041 212.801 170.49C212.156 170.186 211.834 169.506 211.834 168.451V168.012C211.834 166.664 212.086 165.99 212.59 165.99C213.012 165.99 213.51 166.389 214.084 167.186C214.658 167.971 215.139 168.498 215.525 168.768C216.275 169.283 217.154 169.541 218.162 169.541C219.182 169.541 219.932 169.33 220.412 168.908C220.893 168.475 221.133 167.906 221.133 167.203C221.133 166.5 220.723 165.85 219.902 165.252C219.469 164.936 218.455 164.438 216.861 163.758C215.279 163.078 214.096 162.369 213.311 161.631C212.525 160.881 212.133 159.826 212.133 158.467C212.133 157.107 212.701 156.006 213.838 155.162C214.975 154.307 216.375 153.879 218.039 153.879H218.514C220.693 153.879 222.223 154.137 223.102 154.652C223.559 154.922 223.787 155.672 223.787 156.902C223.787 158.133 223.494 158.748 222.908 158.748C222.58 158.748 222.129 158.385 221.555 157.658C220.992 156.92 220.477 156.398 220.008 156.094C219.539 155.777 218.889 155.619 218.057 155.619C217.236 155.619 216.586 155.807 216.105 156.182C215.625 156.557 215.385 157.102 215.385 157.816C215.385 158.52 215.824 159.152 216.703 159.715C216.926 159.867 217.898 160.318 219.621 161.068C221.344 161.818 222.527 162.498 223.172 163.107ZM9.57812 202.766H9.3125C7.94792 202.766 6.80729 203.073 5.89062 203.688C4.98438 204.292 4.53125 205.047 4.53125 205.953V206.266C4.53125 206.797 4.69271 207.276 5.01562 207.703C5.34896 208.12 5.77604 208.328 6.29688 208.328L6.48438 208.359H6.95312C8.03646 208.359 8.92188 207.917 9.60938 207.031C9.91146 206.646 10.0625 205.854 10.0625 204.656C10.0625 204.562 10.0625 204.469 10.0625 204.375L10.0781 204V203.625C10.0781 203.052 9.91146 202.766 9.57812 202.766ZM1.98438 197.719C1.98438 196.948 2.59375 196.26 3.8125 195.656C5.04167 195.042 6.3125 194.734 7.625 194.734C7.66667 194.734 7.70833 194.734 7.75 194.734C9 194.734 10 194.885 10.75 195.188C12.2708 195.792 13.1406 197.073 13.3594 199.031C13.3802 199.229 13.3906 200.542 13.3906 202.969C13.3906 205.385 13.4531 206.802 13.5781 207.219C13.7135 207.635 14.0677 207.943 14.6406 208.141C15.224 208.339 15.5156 208.526 15.5156 208.703C15.5156 209.078 15.3281 209.365 14.9531 209.562C14.2031 209.958 13.4635 210.156 12.7344 210.156C12.0156 210.156 11.4792 209.99 11.125 209.656C10.4896 209.062 10.151 208.766 10.1094 208.766C10.0677 208.766 9.47917 209.031 8.34375 209.562C7.20833 210.083 6.21354 210.344 5.35938 210.344C4.07812 210.344 3.07292 209.99 2.34375 209.281C1.61458 208.573 1.25 207.714 1.25 206.703V206.312C1.25 205.229 1.71875 204.276 2.65625 203.453C3.59375 202.63 5.28125 201.99 7.71875 201.531C8.60417 201.365 9.16146 201.208 9.39062 201.062C9.84896 200.771 10.0781 200.177 10.0781 199.281C10.0781 198.385 9.83854 197.698 9.35938 197.219C8.88021 196.74 8.23958 196.5 7.4375 196.5C6.63542 196.5 5.85938 196.969 5.10938 197.906C4.36979 198.833 3.69271 199.297 3.07812 199.297C2.34896 199.297 1.98438 198.771 1.98438 197.719ZM20.1875 209.875C18.7188 209.875 17.9844 209.667 17.9844 209.25C17.9844 208.906 18.1771 208.625 18.5625 208.406C19.2604 208.01 19.6667 207.656 19.7812 207.344C19.8958 207.021 19.9531 205.516 19.9531 202.828C19.9531 200.13 19.8698 198.552 19.7031 198.094C19.5469 197.625 19.2552 197.24 18.8281 196.938C18.401 196.635 18.1875 196.391 18.1875 196.203C18.1875 196.016 18.3281 195.839 18.6094 195.672C19.2656 195.286 20.3073 195.094 21.7344 195.094C22.1615 195.094 22.4948 195.24 22.7344 195.531C22.8177 195.635 22.9323 195.865 23.0781 196.219C23.2344 196.562 23.3385 196.734 23.3906 196.734C23.5885 196.724 23.8958 196.583 24.3125 196.312C25.75 195.344 27.0521 194.859 28.2188 194.859H28.25H28.75C29.5938 194.859 30.3542 195.068 31.0312 195.484C31.7083 195.901 32.2292 196.526 32.5938 197.359C32.9688 198.193 33.1562 200.01 33.1562 202.812C33.1562 205.604 33.2135 207.167 33.3281 207.5C33.4531 207.823 33.7917 208.125 34.3438 208.406C34.9062 208.688 35.1875 208.964 35.1875 209.234C35.1875 209.703 33.7083 209.938 30.75 209.938H30.2812C29.3438 209.938 28.875 209.714 28.875 209.266C28.875 209.172 28.9896 208.948 29.2188 208.594C29.4479 208.229 29.6042 207.828 29.6875 207.391C29.7708 206.953 29.8125 205.516 29.8125 203.078C29.8125 200.63 29.6615 199.057 29.3594 198.359C28.9427 197.401 28.25 196.922 27.2812 196.922C26.5729 196.922 25.8854 197.089 25.2188 197.422C24.5625 197.745 24.0833 198.208 23.7812 198.812C23.4896 199.406 23.3438 200.839 23.3438 203.109C23.3438 205.37 23.4062 206.74 23.5312 207.219C23.6562 207.688 23.8073 208.068 23.9844 208.359L24.5625 209.297C24.5625 209.703 23.7448 209.906 22.1094 209.906L21.1562 209.875H20.1875ZM47.8125 199.297C47.8125 198.453 47.5417 197.781 47 197.281C46.4583 196.771 45.7396 196.516 44.8438 196.516H44.5469C44.0781 196.516 43.5781 196.656 43.0469 196.938C42.5156 197.219 42.0781 197.625 41.7344 198.156C41.0469 199.219 40.7031 200.536 40.7031 202.109V203.031C40.7031 204.594 41.0521 205.885 41.75 206.906C42.4583 207.927 43.3177 208.438 44.3281 208.438H44.7812C45.6667 208.438 46.3906 208.135 46.9531 207.531C47.5156 206.927 47.7969 206.156 47.7969 205.219L47.8281 204.891V204.562L47.8594 203.75C47.8594 203.25 47.8594 202.75 47.8594 202.25L47.875 201.75V201.266L47.8594 201.094V200.266L47.8438 200.109V199.781C47.8229 199.573 47.8125 199.411 47.8125 199.297ZM47.8906 194.875C47.9844 194.646 48.0312 193.958 48.0312 192.812C48.0312 191.667 47.9427 190.828 47.7656 190.297C47.5885 189.755 47.276 189.312 46.8281 188.969C46.3906 188.615 46.1719 188.349 46.1719 188.172C46.1719 187.995 46.2917 187.839 46.5312 187.703C47.1771 187.328 48.2292 187.141 49.6875 187.141H50.0625C50.7917 187.141 51.2083 187.531 51.3125 188.312C51.3438 188.552 51.3594 191.531 51.3594 197.25C51.3594 202.958 51.401 206.094 51.4844 206.656C51.5677 207.208 51.7656 207.641 52.0781 207.953C52.1406 208.016 52.3385 208.177 52.6719 208.438C53.0156 208.688 53.1875 208.911 53.1875 209.109C53.1875 209.297 53.0417 209.469 52.75 209.625C52.1562 209.948 51.1875 210.109 49.8438 210.109C49.375 210.109 49 209.969 48.7188 209.688C48.1667 209.135 47.8646 208.859 47.8125 208.859C47.7708 208.859 47.5365 208.979 47.1094 209.219C46.6823 209.458 46.1667 209.703 45.5625 209.953C44.9688 210.193 44.2292 210.312 43.3438 210.312C42.4583 210.312 41.6406 210.12 40.8906 209.734C39.5052 209.026 38.5312 207.854 37.9688 206.219C37.6354 205.24 37.4688 204.167 37.4688 203C37.4688 200.646 38.1406 198.729 39.4844 197.25C40.8385 195.771 42.7031 195.031 45.0781 195.031L47.125 195.219C47.5417 195.219 47.7969 195.104 47.8906 194.875ZM75.5938 199.281C75.1562 199.281 74.5469 198.828 73.7656 197.922C72.9948 197.016 72.099 196.562 71.0781 196.562C70.0677 196.562 69.2188 197.068 68.5312 198.078C67.8438 199.078 67.5 200.5 67.5 202.344C67.5 204.188 67.9219 205.63 68.7656 206.672C69.6198 207.703 70.7292 208.219 72.0938 208.219C72.8438 208.219 73.4688 208.125 73.9688 207.938C74.4792 207.75 74.9479 207.552 75.375 207.344C75.8125 207.125 76.1198 207.016 76.2969 207.016C76.599 207.016 76.75 207.214 76.75 207.609C76.75 208.214 76.1406 208.812 74.9219 209.406C73.7031 210 72.5208 210.297 71.375 210.297C69.1458 210.297 67.3542 209.599 66 208.203C65.4479 207.63 64.9844 206.896 64.6094 206C64.2344 205.094 64.0469 204.125 64.0469 203.094V202.328C64.0469 202.307 64.0469 202.281 64.0469 202.25C64.0469 202.229 64.0469 202.208 64.0469 202.188C64.0469 201.281 64.25 200.344 64.6562 199.375C65.4583 197.479 66.75 196.167 68.5312 195.438C69.5625 195.021 70.5885 194.812 71.6094 194.812H71.9688C73.375 194.812 74.5677 195.057 75.5469 195.547C76.3385 195.943 76.7344 196.604 76.7344 197.531C76.7344 198.146 76.6094 198.594 76.3594 198.875C76.1198 199.146 75.8646 199.281 75.5938 199.281ZM82.7969 201.953V202.531C82.7969 204.302 83.1406 205.771 83.8281 206.938C84.151 207.49 84.5625 207.927 85.0625 208.25C85.5625 208.573 86.0677 208.734 86.5781 208.734H86.8906C87.8385 208.734 88.6562 208.276 89.3438 207.359C90.0417 206.432 90.3906 205.12 90.3906 203.422V202.312C90.3906 200.635 90.0417 199.214 89.3438 198.047C88.6562 196.87 87.7812 196.281 86.7188 196.281H86.2344C85.276 196.281 84.4635 196.797 83.7969 197.828C83.1302 198.859 82.7969 200.234 82.7969 201.953ZM94.1562 202.016V202.797C94.1562 203.62 93.9896 204.521 93.6562 205.5C92.9583 207.542 91.5677 208.969 89.4844 209.781C88.5781 210.135 87.7031 210.312 86.8594 210.312H86.3438C84.3542 210.312 82.6927 209.646 81.3594 208.312C80.7552 207.708 80.2656 206.911 79.8906 205.922C79.5156 204.932 79.3281 203.88 79.3281 202.766V202.5C79.3281 201.49 79.5052 200.469 79.8594 199.438C80.5469 197.427 81.8958 196.031 83.9062 195.25C84.8125 194.896 85.6823 194.719 86.5156 194.719H87.2969C88.224 194.719 89.1354 194.927 90.0312 195.344C91.7292 196.135 92.9115 197.396 93.5781 199.125C93.9635 200.146 94.1562 201.109 94.1562 202.016ZM112.672 208.297C113.13 208.651 113.359 208.906 113.359 209.062C113.359 209.208 113.281 209.349 113.125 209.484C112.677 209.891 111.719 210.094 110.25 210.094C109.771 210.094 109.396 210.016 109.125 209.859C108.865 209.693 108.63 209.396 108.422 208.969C108.224 208.542 108.057 208.328 107.922 208.328C107.786 208.339 107.484 208.51 107.016 208.844C105.703 209.792 104.448 210.266 103.25 210.266C103.24 210.266 103.224 210.266 103.203 210.266H102.734C101.016 210.266 99.7708 209.536 99 208.078C98.6042 207.318 98.401 205.458 98.3906 202.5C98.3906 199.531 98.3438 197.901 98.25 197.609C98.1562 197.307 97.8229 197.026 97.25 196.766C96.6875 196.495 96.4062 196.286 96.4062 196.141C96.4062 195.755 96.5885 195.505 96.9531 195.391C97.7656 195.13 98.8021 195 100.062 195C100.792 195 101.255 195.297 101.453 195.891C101.714 196.651 101.844 198.469 101.844 201.344C101.844 204.208 101.969 205.948 102.219 206.562C102.646 207.615 103.422 208.141 104.547 208.141C105.13 208.141 105.708 207.99 106.281 207.688C106.865 207.385 107.318 206.979 107.641 206.469C107.964 205.958 108.125 204.557 108.125 202.266C108.125 199.964 108.047 198.516 107.891 197.922C107.745 197.328 107.516 196.865 107.203 196.531C106.891 196.188 106.734 195.917 106.734 195.719C106.734 195.26 107.958 195.031 110.406 195.031C110.917 195.031 111.25 195.146 111.406 195.375C111.562 195.594 111.641 196 111.641 196.594L111.594 197.516L111.516 201.672C111.516 204.38 111.594 206.073 111.75 206.75C111.906 207.417 112.214 207.932 112.672 208.297ZM118.094 209.875C116.625 209.875 115.891 209.667 115.891 209.25C115.891 208.906 116.083 208.625 116.469 208.406C117.167 208.01 117.573 207.656 117.688 207.344C117.802 207.021 117.859 205.516 117.859 202.828C117.859 200.13 117.776 198.552 117.609 198.094C117.453 197.625 117.161 197.24 116.734 196.938C116.307 196.635 116.094 196.391 116.094 196.203C116.094 196.016 116.234 195.839 116.516 195.672C117.172 195.286 118.214 195.094 119.641 195.094C120.068 195.094 120.401 195.24 120.641 195.531C120.724 195.635 120.839 195.865 120.984 196.219C121.141 196.562 121.245 196.734 121.297 196.734C121.495 196.724 121.802 196.583 122.219 196.312C123.656 195.344 124.958 194.859 126.125 194.859H126.156H126.656C127.5 194.859 128.26 195.068 128.938 195.484C129.615 195.901 130.135 196.526 130.5 197.359C130.875 198.193 131.062 200.01 131.062 202.812C131.062 205.604 131.12 207.167 131.234 207.5C131.359 207.823 131.698 208.125 132.25 208.406C132.812 208.688 133.094 208.964 133.094 209.234C133.094 209.703 131.615 209.938 128.656 209.938H128.188C127.25 209.938 126.781 209.714 126.781 209.266C126.781 209.172 126.896 208.948 127.125 208.594C127.354 208.229 127.51 207.828 127.594 207.391C127.677 206.953 127.719 205.516 127.719 203.078C127.719 200.63 127.568 199.057 127.266 198.359C126.849 197.401 126.156 196.922 125.188 196.922C124.479 196.922 123.792 197.089 123.125 197.422C122.469 197.745 121.99 198.208 121.688 198.812C121.396 199.406 121.25 200.839 121.25 203.109C121.25 205.37 121.312 206.74 121.438 207.219C121.562 207.688 121.714 208.068 121.891 208.359L122.469 209.297C122.469 209.703 121.651 209.906 120.016 209.906L119.062 209.875H118.094ZM142.031 207.938L144.406 207.578C144.677 207.578 144.812 207.792 144.812 208.219C144.812 208.635 144.411 209.068 143.609 209.516C142.807 209.964 141.964 210.188 141.078 210.188H140.766C140.068 210.188 139.438 210.005 138.875 209.641C138.312 209.276 137.901 208.828 137.641 208.297C137.193 207.37 136.969 205.615 136.969 203.031C136.969 200.438 136.875 198.818 136.688 198.172C136.51 197.526 136.276 197.083 135.984 196.844C135.443 196.406 135.172 196.167 135.172 196.125C135.172 195.854 135.312 195.625 135.594 195.438C136.312 194.958 136.703 194.688 136.766 194.625C136.839 194.552 137.24 193.698 137.969 192.062C138.333 191.25 138.745 190.844 139.203 190.844C139.672 190.844 139.984 191.01 140.141 191.344C140.182 191.427 140.271 191.88 140.406 192.703C140.552 193.526 140.755 194.057 141.016 194.297C141.276 194.526 141.854 194.75 142.75 194.969C143.646 195.177 144.094 195.479 144.094 195.875C144.094 196.271 143.599 196.568 142.609 196.766C141.62 196.964 141.021 197.219 140.812 197.531C140.448 198.062 140.266 199.562 140.266 202.031C140.266 204.5 140.38 206.057 140.609 206.703C140.901 207.526 141.375 207.938 142.031 207.938ZM152.891 189.938C152.891 190.396 152.693 190.823 152.297 191.219C151.911 191.604 151.526 191.797 151.141 191.797C151.057 191.818 150.99 191.828 150.938 191.828L150.594 191.859C150.073 191.859 149.604 191.688 149.188 191.344C148.781 191 148.578 190.557 148.578 190.016V189.734C148.578 189.193 148.792 188.74 149.219 188.375C149.656 188 150.156 187.812 150.719 187.812H150.797L151.328 187.875C151.651 187.875 151.984 188.052 152.328 188.406C152.682 188.75 152.859 189.099 152.859 189.453L152.891 189.594V189.938ZM147.922 196.906C147.38 196.646 147.109 196.401 147.109 196.172C147.109 195.943 147.219 195.76 147.438 195.625C148.198 195.167 149.401 194.938 151.047 194.938H151.5C152.062 194.938 152.38 195.198 152.453 195.719C152.495 196 152.516 197.896 152.516 201.406C152.516 204.906 152.589 206.917 152.734 207.438C152.88 207.948 153.229 208.344 153.781 208.625C154.333 208.896 154.609 209.172 154.609 209.453C154.609 209.849 153.318 210.047 150.734 210.047L150.266 210.062H148.359C147.599 210.062 147.219 209.875 147.219 209.5C147.219 209.188 147.448 208.885 147.906 208.594C148.375 208.302 148.698 207.979 148.875 207.625C149.073 207.24 149.172 206.339 149.172 204.922L149.188 204.422V203.938L149.203 203.203V202.719L149.219 202.234C149.219 199.766 149.135 198.328 148.969 197.922C148.812 197.505 148.464 197.167 147.922 196.906ZM159.344 209.875C157.875 209.875 157.141 209.667 157.141 209.25C157.141 208.906 157.333 208.625 157.719 208.406C158.417 208.01 158.823 207.656 158.938 207.344C159.052 207.021 159.109 205.516 159.109 202.828C159.109 200.13 159.026 198.552 158.859 198.094C158.703 197.625 158.411 197.24 157.984 196.938C157.557 196.635 157.344 196.391 157.344 196.203C157.344 196.016 157.484 195.839 157.766 195.672C158.422 195.286 159.464 195.094 160.891 195.094C161.318 195.094 161.651 195.24 161.891 195.531C161.974 195.635 162.089 195.865 162.234 196.219C162.391 196.562 162.495 196.734 162.547 196.734C162.745 196.724 163.052 196.583 163.469 196.312C164.906 195.344 166.208 194.859 167.375 194.859H167.406H167.906C168.75 194.859 169.51 195.068 170.188 195.484C170.865 195.901 171.385 196.526 171.75 197.359C172.125 198.193 172.312 200.01 172.312 202.812C172.312 205.604 172.37 207.167 172.484 207.5C172.609 207.823 172.948 208.125 173.5 208.406C174.062 208.688 174.344 208.964 174.344 209.234C174.344 209.703 172.865 209.938 169.906 209.938H169.438C168.5 209.938 168.031 209.714 168.031 209.266C168.031 209.172 168.146 208.948 168.375 208.594C168.604 208.229 168.76 207.828 168.844 207.391C168.927 206.953 168.969 205.516 168.969 203.078C168.969 200.63 168.818 199.057 168.516 198.359C168.099 197.401 167.406 196.922 166.438 196.922C165.729 196.922 165.042 197.089 164.375 197.422C163.719 197.745 163.24 198.208 162.938 198.812C162.646 199.406 162.5 200.839 162.5 203.109C162.5 205.37 162.562 206.74 162.688 207.219C162.812 207.688 162.964 208.068 163.141 208.359L163.719 209.297C163.719 209.703 162.901 209.906 161.266 209.906L160.312 209.875H159.344ZM183.141 195.734H182.734C182.182 195.734 181.646 196.052 181.125 196.688C180.604 197.323 180.344 198.062 180.344 198.906L180.312 199.156L180.297 199.547V199.953L180.312 200.078C180.312 201.161 180.547 202.036 181.016 202.703C181.484 203.37 182.182 203.703 183.109 203.703H183.219C183.938 203.703 184.552 203.422 185.062 202.859C185.573 202.297 185.828 201.552 185.828 200.625V200.016C185.797 199.766 185.781 199.562 185.781 199.406C185.781 198.417 185.505 197.557 184.953 196.828C184.411 196.099 183.807 195.734 183.141 195.734ZM181.75 209.625C181.021 209.625 180.401 209.88 179.891 210.391C179.38 210.901 179.125 211.542 179.125 212.312V212.438C179.125 213.323 179.474 214.021 180.172 214.531C180.87 215.042 181.823 215.297 183.031 215.297H183.438C184.896 215.297 186.068 214.964 186.953 214.297C187.839 213.63 188.281 212.849 188.281 211.953L188.266 211.828C188.266 211.234 188.021 210.755 187.531 210.391C187.042 210.036 186.464 209.859 185.797 209.859C185.38 209.807 185.078 209.781 184.891 209.781L184.359 209.734H184.094L183.156 209.672L182.516 209.625H181.75ZM191.359 195.562C191.359 196.156 190.984 196.536 190.234 196.703C189.484 196.859 189.109 197.167 189.109 197.625L189.156 197.953L189.219 198.328L189.297 198.734C189.349 199.078 189.375 199.562 189.375 200.188C189.375 200.812 189.198 201.458 188.844 202.125C187.854 203.969 185.948 204.979 183.125 205.156C182.219 205.219 181.641 205.297 181.391 205.391C180.849 205.599 180.578 205.948 180.578 206.438C180.578 206.927 180.979 207.271 181.781 207.469C181.896 207.5 182.932 207.599 184.891 207.766C186.849 207.922 188.156 208.167 188.812 208.5C190.198 209.188 190.891 210.182 190.891 211.484C190.891 213.193 190.125 214.583 188.594 215.656C187.073 216.729 185.078 217.266 182.609 217.266C180.87 217.266 179.422 216.932 178.266 216.266C177.734 215.964 177.302 215.568 176.969 215.078C176.646 214.599 176.484 214.099 176.484 213.578C176.484 212.651 176.76 211.88 177.312 211.266C178.198 210.286 178.641 209.766 178.641 209.703C178.641 209.641 178.448 209.365 178.062 208.875C177.677 208.385 177.484 207.875 177.484 207.344C177.484 206.812 177.734 206.24 178.234 205.625C178.745 205 179 204.651 179 204.578C179 204.505 178.688 203.974 178.062 202.984C177.438 201.984 177.125 201.036 177.125 200.141C177.125 199.245 177.318 198.448 177.703 197.75C178.797 195.76 180.833 194.766 183.812 194.766H184.266L186.438 194.906L187.234 194.938C187.505 194.948 187.781 194.953 188.062 194.953L189.719 194.844C190.812 194.844 191.359 195.083 191.359 195.562ZM196.312 210.375C195.771 210.375 195.276 210.182 194.828 209.797C194.38 209.411 194.156 208.906 194.156 208.281V208.141C194.156 207.536 194.385 207.036 194.844 206.641C195.312 206.245 195.786 206.047 196.266 206.047H196.547C196.703 206.078 196.818 206.094 196.891 206.094C197.255 206.094 197.635 206.292 198.031 206.688C198.427 207.083 198.625 207.542 198.625 208.062V208.281C198.625 208.76 198.432 209.224 198.047 209.672C197.672 210.109 197.24 210.328 196.75 210.328L196.391 210.375H196.312ZM204.406 210.375C203.865 210.375 203.37 210.182 202.922 209.797C202.474 209.411 202.25 208.906 202.25 208.281V208.141C202.25 207.536 202.479 207.036 202.938 206.641C203.406 206.245 203.88 206.047 204.359 206.047H204.641C204.797 206.078 204.911 206.094 204.984 206.094C205.349 206.094 205.729 206.292 206.125 206.688C206.521 207.083 206.719 207.542 206.719 208.062V208.281C206.719 208.76 206.526 209.224 206.141 209.672C205.766 210.109 205.333 210.328 204.844 210.328L204.484 210.375H204.406ZM212.5 210.375C211.958 210.375 211.464 210.182 211.016 209.797C210.568 209.411 210.344 208.906 210.344 208.281V208.141C210.344 207.536 210.573 207.036 211.031 206.641C211.5 206.245 211.974 206.047 212.453 206.047H212.734C212.891 206.078 213.005 206.094 213.078 206.094C213.443 206.094 213.823 206.292 214.219 206.688C214.615 207.083 214.812 207.542 214.812 208.062V208.281C214.812 208.76 214.62 209.224 214.234 209.672C213.859 210.109 213.427 210.328 212.938 210.328L212.578 210.375H212.5Z" fill="#064E3B"/>
</svg>
