<svg width="234" height="228" viewBox="0 0 234 228" fill="none" xmlns="http://www.w3.org/2000/svg">
<path d="M13.3906 20.7344V20.6406C13.3906 19.6615 12.5521 17.2135 10.875 13.2969C10.5833 12.6198 10.4323 12.2812 10.4219 12.2812L9.96875 13.3281C8.23958 17.3594 7.375 19.8073 7.375 20.6719C7.375 20.8177 7.46354 20.8958 7.64062 20.9062C7.82812 20.9167 7.96875 20.9219 8.0625 20.9219L9.28125 20.9531H10.3906L10.5 20.9375C12.4271 20.9375 13.3906 20.8698 13.3906 20.7344ZM0.359375 29.0625C0.359375 28.8021 0.65625 28.5 1.25 28.1562C1.84375 27.8125 2.28125 27.375 2.5625 26.8438C2.84375 26.3125 3.23958 25.3542 3.75 23.9688C4.26042 22.5729 4.95312 20.8177 5.82812 18.7031C6.71354 16.5885 7.41146 14.6927 7.92188 13.0156C8.44271 11.3281 8.79688 10.2604 8.98438 9.8125C9.41146 8.79167 10.0156 8.28125 10.7969 8.28125H11.2344C11.4323 8.28125 11.6771 8.39062 11.9688 8.60938C12.5625 9.05729 13.1823 10.0156 13.8281 11.4844C14.0469 11.9844 14.375 12.8438 14.8125 14.0625C15.25 15.2708 16.125 17.6406 17.4375 21.1719C18.75 24.7031 19.4844 26.625 19.6406 26.9375C19.901 27.4792 20.3438 27.9167 20.9688 28.25C21.5938 28.5729 21.9062 28.8333 21.9062 29.0312C21.9062 29.4688 21.6458 29.7396 21.125 29.8438C20.7708 29.9167 19.875 29.9531 18.4375 29.9531L17.5312 29.9688C15.6042 29.9688 14.6406 29.7083 14.6406 29.1875C14.6406 29.0938 14.7604 28.8698 15 28.5156C15.25 28.1615 15.375 27.7135 15.375 27.1719C15.375 26.6302 15.1771 25.8542 14.7812 24.8438C14.3958 23.8333 14.0677 23.2083 13.7969 22.9688C13.5365 22.7292 12.4062 22.6094 10.4062 22.6094C8.40625 22.6094 7.23958 22.7188 6.90625 22.9375C6.57292 23.1562 6.21354 23.7448 5.82812 24.7031C5.44271 25.6615 5.25 26.4427 5.25 27.0469C5.25 27.6406 5.43229 28.1667 5.79688 28.625C6.17188 29.0833 6.35938 29.3229 6.35938 29.3438C6.35938 29.7188 5.71875 29.9062 4.4375 29.9062C3.16667 29.9062 2.16667 29.8594 1.4375 29.7656C0.71875 29.6615 0.359375 29.4271 0.359375 29.0625ZM34.1094 22.9844C34.9323 23.7656 35.3438 24.7552 35.3438 25.9531C35.3438 27.1406 34.8542 28.1615 33.875 29.0156C32.8958 29.8594 31.5417 30.2812 29.8125 30.2812H29.3906C27.4219 30.2812 25.9219 30.0365 24.8906 29.5469C24.3177 29.276 24.0312 28.6719 24.0312 27.7344V27.3438C24.0312 26.1458 24.2552 25.5469 24.7031 25.5469C25.0781 25.5469 25.5208 25.901 26.0312 26.6094C26.5417 27.3073 26.9688 27.776 27.3125 28.0156C27.9792 28.474 28.7604 28.7031 29.6562 28.7031C30.5625 28.7031 31.2292 28.5156 31.6562 28.1406C32.0833 27.7552 32.2969 27.25 32.2969 26.625C32.2969 26 31.9323 25.4219 31.2031 24.8906C30.8177 24.6094 29.9167 24.1667 28.5 23.5625C27.0938 22.9583 26.0417 22.3281 25.3438 21.6719C24.6458 21.0052 24.2969 20.0677 24.2969 18.8594C24.2969 17.651 24.8021 16.6719 25.8125 15.9219C26.8229 15.1615 28.0677 14.7812 29.5469 14.7812H29.9688C31.9062 14.7812 33.2656 15.0104 34.0469 15.4688C34.4531 15.7083 34.6562 16.375 34.6562 17.4688C34.6562 18.5625 34.3958 19.1094 33.875 19.1094C33.5833 19.1094 33.1823 18.7865 32.6719 18.1406C32.1719 17.4844 31.7135 17.0208 31.2969 16.75C30.8802 16.4688 30.3021 16.3281 29.5625 16.3281C28.8333 16.3281 28.2552 16.4948 27.8281 16.8281C27.401 17.1615 27.1875 17.6458 27.1875 18.2812C27.1875 18.9062 27.5781 19.4688 28.3594 19.9688C28.5573 20.1042 29.4219 20.5052 30.9531 21.1719C32.4844 21.8385 33.5365 22.4427 34.1094 22.9844ZM54.3281 22.7656H54.0625C52.6979 22.7656 51.5573 23.0729 50.6406 23.6875C49.7344 24.2917 49.2812 25.0469 49.2812 25.9531V26.2656C49.2812 26.7969 49.4427 27.276 49.7656 27.7031C50.099 28.1198 50.526 28.3281 51.0469 28.3281L51.2344 28.3594H51.7031C52.7865 28.3594 53.6719 27.9167 54.3594 27.0312C54.6615 26.6458 54.8125 25.8542 54.8125 24.6562C54.8125 24.5625 54.8125 24.4688 54.8125 24.375L54.8281 24V23.625C54.8281 23.0521 54.6615 22.7656 54.3281 22.7656ZM46.7344 17.7188C46.7344 16.9479 47.3438 16.2604 48.5625 15.6562C49.7917 15.0417 51.0625 14.7344 52.375 14.7344C52.4167 14.7344 52.4583 14.7344 52.5 14.7344C53.75 14.7344 54.75 14.8854 55.5 15.1875C57.0208 15.7917 57.8906 17.0729 58.1094 19.0312C58.1302 19.2292 58.1406 20.5417 58.1406 22.9688C58.1406 25.3854 58.2031 26.8021 58.3281 27.2188C58.4635 27.6354 58.8177 27.9427 59.3906 28.1406C59.974 28.3385 60.2656 28.526 60.2656 28.7031C60.2656 29.0781 60.0781 29.3646 59.7031 29.5625C58.9531 29.9583 58.2135 30.1562 57.4844 30.1562C56.7656 30.1562 56.2292 29.9896 55.875 29.6562C55.2396 29.0625 54.901 28.7656 54.8594 28.7656C54.8177 28.7656 54.2292 29.0312 53.0938 29.5625C51.9583 30.0833 50.9635 30.3438 50.1094 30.3438C48.8281 30.3438 47.8229 29.9896 47.0938 29.2812C46.3646 28.5729 46 27.7135 46 26.7031V26.3125C46 25.2292 46.4688 24.276 47.4062 23.4531C48.3438 22.6302 50.0312 21.9896 52.4688 21.5312C53.3542 21.3646 53.9115 21.2083 54.1406 21.0625C54.599 20.7708 54.8281 20.1771 54.8281 19.2812C54.8281 18.3854 54.5885 17.6979 54.1094 17.2188C53.6302 16.7396 52.9896 16.5 52.1875 16.5C51.3854 16.5 50.6094 16.9688 49.8594 17.9062C49.1198 18.8333 48.4427 19.2969 47.8281 19.2969C47.099 19.2969 46.7344 18.7708 46.7344 17.7188ZM75.2656 14.5781C75.2656 12.9844 75.1146 11.8229 74.8125 11.0938C74.6458 10.6979 74.2708 10.3021 73.6875 9.90625C73.1146 9.5 72.8281 9.16146 72.8281 8.89062C72.8281 8.56771 73.6927 8.40625 75.4219 8.40625C75.5885 8.40625 75.8802 8.39583 76.2969 8.375C76.724 8.34375 77.0573 8.32292 77.2969 8.3125L78.0625 8.26562C78.5729 8.23438 78.9583 8.21875 79.2188 8.21875H79.6094C80.2969 8.21875 80.6406 8.43229 80.6406 8.85938C80.6406 8.99479 80.4479 9.25 80.0625 9.625C79.6771 9.98958 79.4062 10.3802 79.25 10.7969C79.1042 11.2031 79.0312 12.224 79.0312 13.8594L79 14.6562L78.9844 15.8438V17.0625C78.9635 17.6042 78.9531 18.0417 78.9531 18.375V19.4844L78.9375 20.2969V22.8906C78.9375 24.349 78.849 25.6979 78.6719 26.9375C78.2656 29.7604 76.9635 31.7604 74.7656 32.9375C73.8385 33.4375 72.9167 33.6875 72 33.6875C70.3229 33.6875 69.4844 33.2708 69.4844 32.4375C69.4844 31.9479 69.6562 31.5417 70 31.2188C70.3438 30.8958 70.8802 30.7344 71.6094 30.7344L72.5312 30.7969C72.9583 30.7969 73.3385 30.6354 73.6719 30.3125C74.0052 30 74.349 29.3125 74.7031 28.25C75.0573 27.1771 75.2344 25.375 75.2344 22.8438L75.2969 20.5V15.75L75.2812 15.3594C75.2708 15.099 75.2656 14.8385 75.2656 14.5781ZM99.3594 28.2969C99.8177 28.651 100.047 28.9062 100.047 29.0625C100.047 29.2083 99.9688 29.349 99.8125 29.4844C99.3646 29.8906 98.4062 30.0938 96.9375 30.0938C96.4583 30.0938 96.0833 30.0156 95.8125 29.8594C95.5521 29.6927 95.3177 29.3958 95.1094 28.9688C94.9115 28.5417 94.7448 28.3281 94.6094 28.3281C94.474 28.3385 94.1719 28.5104 93.7031 28.8438C92.3906 29.7917 91.1354 30.2656 89.9375 30.2656C89.9271 30.2656 89.9115 30.2656 89.8906 30.2656H89.4219C87.7031 30.2656 86.4583 29.5365 85.6875 28.0781C85.2917 27.3177 85.0885 25.4583 85.0781 22.5C85.0781 19.5312 85.0312 17.901 84.9375 17.6094C84.8438 17.3073 84.5104 17.026 83.9375 16.7656C83.375 16.4948 83.0938 16.2865 83.0938 16.1406C83.0938 15.7552 83.276 15.5052 83.6406 15.3906C84.4531 15.1302 85.4896 15 86.75 15C87.4792 15 87.9427 15.2969 88.1406 15.8906C88.401 16.651 88.5312 18.4688 88.5312 21.3438C88.5312 24.2083 88.6562 25.9479 88.9062 26.5625C89.3333 27.6146 90.1094 28.1406 91.2344 28.1406C91.8177 28.1406 92.3958 27.9896 92.9688 27.6875C93.5521 27.3854 94.0052 26.9792 94.3281 26.4688C94.651 25.9583 94.8125 24.5573 94.8125 22.2656C94.8125 19.9635 94.7344 18.5156 94.5781 17.9219C94.4323 17.3281 94.2031 16.8646 93.8906 16.5312C93.5781 16.1875 93.4219 15.9167 93.4219 15.7188C93.4219 15.2604 94.6458 15.0312 97.0938 15.0312C97.6042 15.0312 97.9375 15.1458 98.0938 15.375C98.25 15.5938 98.3281 16 98.3281 16.5938L98.2812 17.5156L98.2031 21.6719C98.2031 24.3802 98.2812 26.0729 98.4375 26.75C98.5938 27.4167 98.901 27.9323 99.3594 28.2969ZM104.781 29.875C103.312 29.875 102.578 29.6667 102.578 29.25C102.578 28.9062 102.771 28.625 103.156 28.4062C103.854 28.0104 104.26 27.6562 104.375 27.3438C104.49 27.0208 104.547 25.5156 104.547 22.8281C104.547 20.1302 104.464 18.5521 104.297 18.0938C104.141 17.625 103.849 17.2396 103.422 16.9375C102.995 16.6354 102.781 16.3906 102.781 16.2031C102.781 16.0156 102.922 15.8385 103.203 15.6719C103.859 15.2865 104.901 15.0938 106.328 15.0938C106.755 15.0938 107.089 15.2396 107.328 15.5312C107.411 15.6354 107.526 15.8646 107.672 16.2188C107.828 16.5625 107.932 16.7344 107.984 16.7344C108.182 16.724 108.49 16.5833 108.906 16.3125C110.344 15.3438 111.646 14.8594 112.812 14.8594H112.844H113.344C114.188 14.8594 114.948 15.0677 115.625 15.4844C116.302 15.901 116.823 16.526 117.188 17.3594C117.562 18.1927 117.75 20.0104 117.75 22.8125C117.75 25.6042 117.807 27.1667 117.922 27.5C118.047 27.8229 118.385 28.125 118.938 28.4062C119.5 28.6875 119.781 28.9635 119.781 29.2344C119.781 29.7031 118.302 29.9375 115.344 29.9375H114.875C113.938 29.9375 113.469 29.7135 113.469 29.2656C113.469 29.1719 113.583 28.9479 113.812 28.5938C114.042 28.2292 114.198 27.8281 114.281 27.3906C114.365 26.9531 114.406 25.5156 114.406 23.0781C114.406 20.6302 114.255 19.0573 113.953 18.3594C113.536 17.401 112.844 16.9219 111.875 16.9219C111.167 16.9219 110.479 17.0885 109.812 17.4219C109.156 17.7448 108.677 18.2083 108.375 18.8125C108.083 19.4062 107.938 20.8385 107.938 23.1094C107.938 25.3698 108 26.7396 108.125 27.2188C108.25 27.6875 108.401 28.0677 108.578 28.3594L109.156 29.2969C109.156 29.7031 108.339 29.9062 106.703 29.9062L105.75 29.875H104.781ZM127.828 9.9375C127.828 10.3958 127.63 10.8229 127.234 11.2188C126.849 11.6042 126.464 11.7969 126.078 11.7969C125.995 11.8177 125.927 11.8281 125.875 11.8281L125.531 11.8594C125.01 11.8594 124.542 11.6875 124.125 11.3438C123.719 11 123.516 10.5573 123.516 10.0156V9.73438C123.516 9.19271 123.729 8.73958 124.156 8.375C124.594 8 125.094 7.8125 125.656 7.8125H125.734L126.266 7.875C126.589 7.875 126.922 8.05208 127.266 8.40625C127.62 8.75 127.797 9.09896 127.797 9.45312L127.828 9.59375V9.9375ZM122.859 16.9062C122.318 16.6458 122.047 16.401 122.047 16.1719C122.047 15.9427 122.156 15.7604 122.375 15.625C123.135 15.1667 124.339 14.9375 125.984 14.9375H126.438C127 14.9375 127.318 15.1979 127.391 15.7188C127.432 16 127.453 17.8958 127.453 21.4062C127.453 24.9062 127.526 26.9167 127.672 27.4375C127.818 27.9479 128.167 28.3438 128.719 28.625C129.271 28.8958 129.547 29.1719 129.547 29.4531C129.547 29.849 128.255 30.0469 125.672 30.0469L125.203 30.0625H123.297C122.536 30.0625 122.156 29.875 122.156 29.5C122.156 29.1875 122.385 28.8854 122.844 28.5938C123.312 28.3021 123.635 27.9792 123.812 27.625C124.01 27.2396 124.109 26.3385 124.109 24.9219L124.125 24.4219V23.9375L124.141 23.2031V22.7188L124.156 22.2344C124.156 19.7656 124.073 18.3281 123.906 17.9219C123.75 17.5052 123.401 17.1667 122.859 16.9062ZM135.484 21.9531V22.5312C135.484 24.3021 135.828 25.7708 136.516 26.9375C136.839 27.4896 137.25 27.9271 137.75 28.25C138.25 28.5729 138.755 28.7344 139.266 28.7344H139.578C140.526 28.7344 141.344 28.276 142.031 27.3594C142.729 26.4323 143.078 25.1198 143.078 23.4219V22.3125C143.078 20.6354 142.729 19.2135 142.031 18.0469C141.344 16.8698 140.469 16.2812 139.406 16.2812H138.922C137.964 16.2812 137.151 16.7969 136.484 17.8281C135.818 18.8594 135.484 20.2344 135.484 21.9531ZM146.844 22.0156V22.7969C146.844 23.6198 146.677 24.5208 146.344 25.5C145.646 27.5417 144.255 28.9688 142.172 29.7812C141.266 30.1354 140.391 30.3125 139.547 30.3125H139.031C137.042 30.3125 135.38 29.6458 134.047 28.3125C133.443 27.7083 132.953 26.9115 132.578 25.9219C132.203 24.9323 132.016 23.8802 132.016 22.7656V22.5C132.016 21.4896 132.193 20.4688 132.547 19.4375C133.234 17.4271 134.583 16.0312 136.594 15.25C137.5 14.8958 138.37 14.7188 139.203 14.7188H139.984C140.911 14.7188 141.823 14.9271 142.719 15.3438C144.417 16.1354 145.599 17.3958 146.266 19.125C146.651 20.1458 146.844 21.1094 146.844 22.0156ZM157.438 29.3906C157.438 29.7969 156.495 30 154.609 30H152.953L152.297 29.9688L151.312 29.9531C150.208 29.9531 149.656 29.7552 149.656 29.3594C149.656 29.0781 149.901 28.7812 150.391 28.4688C150.891 28.1458 151.224 27.7344 151.391 27.2344C151.568 26.724 151.656 25.2292 151.656 22.75C151.656 20.2708 151.573 18.7656 151.406 18.2344C151.25 17.7031 151 17.3229 150.656 17.0938C150.042 16.6875 149.734 16.3906 149.734 16.2031C149.734 16.0156 149.844 15.849 150.062 15.7031C150.708 15.2656 151.802 15.0469 153.344 15.0469H153.641C154.234 15.0469 154.656 15.349 154.906 15.9531C155.156 16.5469 155.359 16.8438 155.516 16.8438C155.672 16.8438 155.938 16.6979 156.312 16.4062C156.698 16.1146 157.156 15.8229 157.688 15.5312C158.229 15.2396 158.828 15.0938 159.484 15.0938C160.141 15.0938 160.641 15.2656 160.984 15.6094C161.339 15.9427 161.516 16.375 161.516 16.9062C161.505 17.4479 161.365 17.8542 161.094 18.125C160.823 18.3958 160.531 18.5312 160.219 18.5312C159.906 18.5312 159.495 18.4062 158.984 18.1562C158.474 17.8958 158.047 17.7656 157.703 17.7656C157.359 17.7656 156.984 17.9115 156.578 18.2031C156.172 18.4844 155.823 18.9948 155.531 19.7344C155.25 20.4635 155.109 21.7188 155.109 23.5C155.109 25.2708 155.234 26.4167 155.484 26.9375C155.734 27.4479 156.12 27.9167 156.641 28.3438C157.172 28.7708 157.438 29.1198 157.438 29.3906ZM180.516 8.89062C180.516 9.08854 180.214 9.38021 179.609 9.76562C179.016 10.151 178.646 10.6771 178.5 11.3438C178.365 12 178.297 14.6198 178.297 19.2031C178.297 23.776 178.38 26.3958 178.547 27.0625C178.724 27.7188 179.104 28.2135 179.688 28.5469C180.281 28.8698 180.578 29.1719 180.578 29.4531C180.578 29.8385 180.104 30.0312 179.156 30.0312L178.812 30.0156L178.094 30C177.854 29.9896 177.615 29.9844 177.375 29.9844L176.688 29.9531H174.578C172.88 29.9531 172.031 29.8021 172.031 29.5V29.2812C172.031 29.0833 172.365 28.7917 173.031 28.4062C173.708 28.0104 174.13 27.4583 174.297 26.75C174.464 26.0312 174.547 23.4844 174.547 19.1094C174.547 14.724 174.448 12.1667 174.25 11.4375C174.052 10.6979 173.74 10.2135 173.312 9.98438C172.458 9.51562 172.031 9.16146 172.031 8.92188C172.031 8.51562 173.641 8.3125 176.859 8.3125L178.578 8.28125H179.594C180.208 8.28125 180.516 8.48438 180.516 8.89062ZM1.57812 68.1406C1.57812 67.9531 1.80208 67.6146 2.25 67.125C2.69792 66.625 2.97396 66.125 3.07812 65.625C3.19271 65.125 3.25 62.4896 3.25 57.7188C3.25 52.9479 3.14062 50.0573 2.92188 49.0469C2.81771 48.5573 2.59896 48.1979 2.26562 47.9688C1.66146 47.5417 1.35938 47.3125 1.35938 47.2812C1.35938 46.8958 1.5625 46.625 1.96875 46.4688C2.73958 46.1667 3.64062 46.0156 4.67188 46.0156H5.1875C5.66667 46.0156 6.00521 46.2083 6.20312 46.5938C6.41146 46.9792 6.51562 47.8281 6.51562 49.1406L6.5 49.7188C6.48958 50.1042 6.48438 50.4896 6.48438 50.875L6.45312 52.0312C6.45312 52.4167 6.45312 52.8021 6.45312 53.1875C6.45312 54.5521 6.69271 55.2344 7.17188 55.2344C7.22396 55.224 7.48958 55.1146 7.96875 54.9062C9.41667 54.2604 10.6302 53.9375 11.6094 53.9375C13.4427 53.9375 14.7292 54.6719 15.4688 56.1406C15.9583 57.1406 16.2031 59.599 16.2031 63.5156C16.2031 65.026 16.2552 65.9688 16.3594 66.3438C16.474 66.7083 16.7708 67.0885 17.25 67.4844C17.7396 67.8802 17.9844 68.1302 17.9844 68.2344C17.9844 68.5573 17.7708 68.776 17.3438 68.8906C16.9271 69.0052 15.8542 69.0625 14.125 69.0625H13.5781C12.4427 69.0625 11.875 68.8333 11.875 68.375C11.875 68.2708 12.0104 68.0104 12.2812 67.5938C12.5521 67.1667 12.7292 66.6875 12.8125 66.1562C12.8958 65.625 12.9375 64.2344 12.9375 61.9844C12.9375 59.7344 12.8333 58.3177 12.625 57.7344C11.9062 56.7969 11.1094 56.224 10.2344 56.0156C9.03646 56.0156 8.07812 56.4427 7.35938 57.2969C6.82812 57.9219 6.5625 59.349 6.5625 61.5781C6.5625 63.7969 6.61458 65.2135 6.71875 65.8281C6.82292 66.4323 7.04688 66.9844 7.39062 67.4844C7.74479 67.974 7.92188 68.276 7.92188 68.3906C7.92188 68.7656 6.86458 68.9531 4.75 68.9531C2.63542 68.9531 1.57812 68.6823 1.57812 68.1406ZM28.8281 61.7656H28.5625C27.1979 61.7656 26.0573 62.0729 25.1406 62.6875C24.2344 63.2917 23.7812 64.0469 23.7812 64.9531V65.2656C23.7812 65.7969 23.9427 66.276 24.2656 66.7031C24.599 67.1198 25.026 67.3281 25.5469 67.3281L25.7344 67.3594H26.2031C27.2865 67.3594 28.1719 66.9167 28.8594 66.0312C29.1615 65.6458 29.3125 64.8542 29.3125 63.6562C29.3125 63.5625 29.3125 63.4688 29.3125 63.375L29.3281 63V62.625C29.3281 62.0521 29.1615 61.7656 28.8281 61.7656ZM21.2344 56.7188C21.2344 55.9479 21.8438 55.2604 23.0625 54.6562C24.2917 54.0417 25.5625 53.7344 26.875 53.7344C26.9167 53.7344 26.9583 53.7344 27 53.7344C28.25 53.7344 29.25 53.8854 30 54.1875C31.5208 54.7917 32.3906 56.0729 32.6094 58.0312C32.6302 58.2292 32.6406 59.5417 32.6406 61.9688C32.6406 64.3854 32.7031 65.8021 32.8281 66.2188C32.9635 66.6354 33.3177 66.9427 33.8906 67.1406C34.474 67.3385 34.7656 67.526 34.7656 67.7031C34.7656 68.0781 34.5781 68.3646 34.2031 68.5625C33.4531 68.9583 32.7135 69.1562 31.9844 69.1562C31.2656 69.1562 30.7292 68.9896 30.375 68.6562C29.7396 68.0625 29.401 67.7656 29.3594 67.7656C29.3177 67.7656 28.7292 68.0312 27.5938 68.5625C26.4583 69.0833 25.4635 69.3438 24.6094 69.3438C23.3281 69.3438 22.3229 68.9896 21.5938 68.2812C20.8646 67.5729 20.5 66.7135 20.5 65.7031V65.3125C20.5 64.2292 20.9688 63.276 21.9062 62.4531C22.8438 61.6302 24.5312 60.9896 26.9688 60.5312C27.8542 60.3646 28.4115 60.2083 28.6406 60.0625C29.099 59.7708 29.3281 59.1771 29.3281 58.2812C29.3281 57.3854 29.0885 56.6979 28.6094 56.2188C28.1302 55.7396 27.4896 55.5 26.6875 55.5C25.8854 55.5 25.1094 55.9688 24.3594 56.9062C23.6198 57.8333 22.9427 58.2969 22.3281 58.2969C21.599 58.2969 21.2344 57.7708 21.2344 56.7188ZM44.375 69.2031H44.0156C43.526 69.2031 43.0417 68.75 42.5625 67.8438C42.3229 67.3854 41.5885 65.5885 40.3594 62.4531C39.1302 59.3177 38.3802 57.5104 38.1094 57.0312C37.8385 56.5417 37.4167 56.1094 36.8438 55.7344C36.2708 55.349 35.9844 55.0573 35.9844 54.8594C35.9844 54.5365 36.2135 54.3281 36.6719 54.2344C37.1302 54.1406 38.1771 54.0938 39.8125 54.0938C41.4479 54.0938 42.2656 54.3281 42.2656 54.7969C42.2656 54.8281 42.2083 55 42.0938 55.3125C41.9792 55.6146 41.9219 55.9479 41.9219 56.3125C41.9219 57.7396 42.7344 60.3333 44.3594 64.0938C44.6615 64.7812 44.875 65.125 45 65.125C45.125 65.125 45.3281 64.8125 45.6094 64.1875C47.2865 60.4792 48.125 57.9062 48.125 56.4688C48.125 56.1146 47.9896 55.7396 47.7188 55.3438C47.4479 54.9479 47.3125 54.7448 47.3125 54.7344C47.3125 54.2865 48.2812 54.0625 50.2188 54.0625H50.5938C51.8646 54.0625 52.5 54.2812 52.5 54.7188C52.5 55.0938 52.224 55.4635 51.6719 55.8281C51.1198 56.1823 50.6979 56.625 50.4062 57.1562C50.2708 57.3958 49.5781 59.0677 48.3281 62.1719C47.0781 65.2656 46.2344 67.2135 45.7969 68.0156C45.3594 68.8073 44.8854 69.2031 44.375 69.2031ZM63.8906 58.8438V58.3594C63.8906 57.5885 63.6146 56.8958 63.0625 56.2812C62.5104 55.6562 61.8333 55.3438 61.0312 55.3438H60.7344C60.5885 55.3646 60.4896 55.375 60.4375 55.375C59.7083 55.375 59.0156 55.7917 58.3594 56.625C57.7135 57.4583 57.3906 58.349 57.3906 59.2969V59.5C57.3906 59.8333 57.5885 60 57.9844 60C58.1406 60.0312 58.224 60.0469 58.2344 60.0469L58.5938 60.0625H58.6875L58.7969 60.0469L61.8125 59.875L62.375 59.8125C63.3854 59.8125 63.8906 59.4896 63.8906 58.8438ZM57.3906 62.9844C57.3906 64.1719 57.8385 65.1667 58.7344 65.9688C59.6302 66.7708 60.7656 67.1719 62.1406 67.1719C62.6927 67.1719 63.1927 67.0938 63.6406 66.9375C64.099 66.7708 64.5938 66.5729 65.125 66.3438C65.6667 66.1146 66.0052 66 66.1406 66C66.5573 66 66.7656 66.224 66.7656 66.6719C66.7656 67.276 65.9948 67.9219 64.4531 68.6094C63.4531 69.0573 62.3802 69.2812 61.2344 69.2812H60.8906C58.9323 69.2812 57.3073 68.6875 56.0156 67.5C55.3177 66.8542 54.776 66.0312 54.3906 65.0312C54.0052 64.0208 53.8125 62.9375 53.8125 61.7812L53.8281 61.4219V61.0625C53.8281 60.0625 54.0573 59.0781 54.5156 58.1094C54.9844 57.1406 55.5417 56.3438 56.1875 55.7188C57.5521 54.4062 59.1719 53.7448 61.0469 53.7344C63.8802 53.7344 65.7656 54.8385 66.7031 57.0469C66.9948 57.7448 67.1406 58.3854 67.1406 58.9688V59.2812C67.1406 60 66.8438 60.4844 66.25 60.7344C65.6562 60.974 64.2552 61.1719 62.0469 61.3281C59.8385 61.4844 58.6406 61.5885 58.4531 61.6406C57.7448 61.8177 57.3906 62.2656 57.3906 62.9844ZM87.9844 58.8438V58.3594C87.9844 57.5885 87.7083 56.8958 87.1562 56.2812C86.6042 55.6562 85.9271 55.3438 85.125 55.3438H84.8281C84.6823 55.3646 84.5833 55.375 84.5312 55.375C83.8021 55.375 83.1094 55.7917 82.4531 56.625C81.8073 57.4583 81.4844 58.349 81.4844 59.2969V59.5C81.4844 59.8333 81.6823 60 82.0781 60C82.2344 60.0312 82.3177 60.0469 82.3281 60.0469L82.6875 60.0625H82.7812L82.8906 60.0469L85.9062 59.875L86.4688 59.8125C87.4792 59.8125 87.9844 59.4896 87.9844 58.8438ZM81.4844 62.9844C81.4844 64.1719 81.9323 65.1667 82.8281 65.9688C83.724 66.7708 84.8594 67.1719 86.2344 67.1719C86.7865 67.1719 87.2865 67.0938 87.7344 66.9375C88.1927 66.7708 88.6875 66.5729 89.2188 66.3438C89.7604 66.1146 90.099 66 90.2344 66C90.651 66 90.8594 66.224 90.8594 66.6719C90.8594 67.276 90.0885 67.9219 88.5469 68.6094C87.5469 69.0573 86.474 69.2812 85.3281 69.2812H84.9844C83.026 69.2812 81.401 68.6875 80.1094 67.5C79.4115 66.8542 78.8698 66.0312 78.4844 65.0312C78.099 64.0208 77.9062 62.9375 77.9062 61.7812L77.9219 61.4219V61.0625C77.9219 60.0625 78.151 59.0781 78.6094 58.1094C79.0781 57.1406 79.6354 56.3438 80.2812 55.7188C81.6458 54.4062 83.2656 53.7448 85.1406 53.7344C87.974 53.7344 89.8594 54.8385 90.7969 57.0469C91.0885 57.7448 91.2344 58.3854 91.2344 58.9688V59.2812C91.2344 60 90.9375 60.4844 90.3438 60.7344C89.75 60.974 88.349 61.1719 86.1406 61.3281C83.9323 61.4844 82.7344 61.5885 82.5469 61.6406C81.8385 61.8177 81.4844 62.2656 81.4844 62.9844ZM102.297 61.7656H102.031C100.667 61.7656 99.526 62.0729 98.6094 62.6875C97.7031 63.2917 97.25 64.0469 97.25 64.9531V65.2656C97.25 65.7969 97.4115 66.276 97.7344 66.7031C98.0677 67.1198 98.4948 67.3281 99.0156 67.3281L99.2031 67.3594H99.6719C100.755 67.3594 101.641 66.9167 102.328 66.0312C102.63 65.6458 102.781 64.8542 102.781 63.6562C102.781 63.5625 102.781 63.4688 102.781 63.375L102.797 63V62.625C102.797 62.0521 102.63 61.7656 102.297 61.7656ZM94.7031 56.7188C94.7031 55.9479 95.3125 55.2604 96.5312 54.6562C97.7604 54.0417 99.0312 53.7344 100.344 53.7344C100.385 53.7344 100.427 53.7344 100.469 53.7344C101.719 53.7344 102.719 53.8854 103.469 54.1875C104.99 54.7917 105.859 56.0729 106.078 58.0312C106.099 58.2292 106.109 59.5417 106.109 61.9688C106.109 64.3854 106.172 65.8021 106.297 66.2188C106.432 66.6354 106.786 66.9427 107.359 67.1406C107.943 67.3385 108.234 67.526 108.234 67.7031C108.234 68.0781 108.047 68.3646 107.672 68.5625C106.922 68.9583 106.182 69.1562 105.453 69.1562C104.734 69.1562 104.198 68.9896 103.844 68.6562C103.208 68.0625 102.87 67.7656 102.828 67.7656C102.786 67.7656 102.198 68.0312 101.062 68.5625C99.9271 69.0833 98.9323 69.3438 98.0781 69.3438C96.7969 69.3438 95.7917 68.9896 95.0625 68.2812C94.3333 67.5729 93.9688 66.7135 93.9688 65.7031V65.3125C93.9688 64.2292 94.4375 63.276 95.375 62.4531C96.3125 61.6302 98 60.9896 100.438 60.5312C101.323 60.3646 101.88 60.2083 102.109 60.0625C102.568 59.7708 102.797 59.1771 102.797 58.2812C102.797 57.3854 102.557 56.6979 102.078 56.2188C101.599 55.7396 100.958 55.5 100.156 55.5C99.3542 55.5 98.5781 55.9688 97.8281 56.9062C97.0885 57.8333 96.4115 58.2969 95.7969 58.2969C95.0677 58.2969 94.7031 57.7708 94.7031 56.7188ZM118.531 68.3906C118.531 68.7969 117.589 69 115.703 69H114.047L113.391 68.9688L112.406 68.9531C111.302 68.9531 110.75 68.7552 110.75 68.3594C110.75 68.0781 110.995 67.7812 111.484 67.4688C111.984 67.1458 112.318 66.7344 112.484 66.2344C112.661 65.724 112.75 64.2292 112.75 61.75C112.75 59.2708 112.667 57.7656 112.5 57.2344C112.344 56.7031 112.094 56.3229 111.75 56.0938C111.135 55.6875 110.828 55.3906 110.828 55.2031C110.828 55.0156 110.938 54.849 111.156 54.7031C111.802 54.2656 112.896 54.0469 114.438 54.0469H114.734C115.328 54.0469 115.75 54.349 116 54.9531C116.25 55.5469 116.453 55.8438 116.609 55.8438C116.766 55.8438 117.031 55.6979 117.406 55.4062C117.792 55.1146 118.25 54.8229 118.781 54.5312C119.323 54.2396 119.922 54.0938 120.578 54.0938C121.234 54.0938 121.734 54.2656 122.078 54.6094C122.432 54.9427 122.609 55.375 122.609 55.9062C122.599 56.4479 122.458 56.8542 122.188 57.125C121.917 57.3958 121.625 57.5312 121.312 57.5312C121 57.5312 120.589 57.4062 120.078 57.1562C119.568 56.8958 119.141 56.7656 118.797 56.7656C118.453 56.7656 118.078 56.9115 117.672 57.2031C117.266 57.4844 116.917 57.9948 116.625 58.7344C116.344 59.4635 116.203 60.7188 116.203 62.5C116.203 64.2708 116.328 65.4167 116.578 65.9375C116.828 66.4479 117.214 66.9167 117.734 67.3438C118.266 67.7708 118.531 68.1198 118.531 68.3906ZM126.875 68.875C125.406 68.875 124.672 68.6667 124.672 68.25C124.672 67.9062 124.865 67.625 125.25 67.4062C125.948 67.0104 126.354 66.6562 126.469 66.3438C126.583 66.0208 126.641 64.5156 126.641 61.8281C126.641 59.1302 126.557 57.5521 126.391 57.0938C126.234 56.625 125.943 56.2396 125.516 55.9375C125.089 55.6354 124.875 55.3906 124.875 55.2031C124.875 55.0156 125.016 54.8385 125.297 54.6719C125.953 54.2865 126.995 54.0938 128.422 54.0938C128.849 54.0938 129.182 54.2396 129.422 54.5312C129.505 54.6354 129.62 54.8646 129.766 55.2188C129.922 55.5625 130.026 55.7344 130.078 55.7344C130.276 55.724 130.583 55.5833 131 55.3125C132.438 54.3438 133.74 53.8594 134.906 53.8594H134.938H135.438C136.281 53.8594 137.042 54.0677 137.719 54.4844C138.396 54.901 138.917 55.526 139.281 56.3594C139.656 57.1927 139.844 59.0104 139.844 61.8125C139.844 64.6042 139.901 66.1667 140.016 66.5C140.141 66.8229 140.479 67.125 141.031 67.4062C141.594 67.6875 141.875 67.9635 141.875 68.2344C141.875 68.7031 140.396 68.9375 137.438 68.9375H136.969C136.031 68.9375 135.562 68.7135 135.562 68.2656C135.562 68.1719 135.677 67.9479 135.906 67.5938C136.135 67.2292 136.292 66.8281 136.375 66.3906C136.458 65.9531 136.5 64.5156 136.5 62.0781C136.5 59.6302 136.349 58.0573 136.047 57.3594C135.63 56.401 134.938 55.9219 133.969 55.9219C133.26 55.9219 132.573 56.0885 131.906 56.4219C131.25 56.7448 130.771 57.2083 130.469 57.8125C130.177 58.4062 130.031 59.8385 130.031 62.1094C130.031 64.3698 130.094 65.7396 130.219 66.2188C130.344 66.6875 130.495 67.0677 130.672 67.3594L131.25 68.2969C131.25 68.7031 130.432 68.9062 128.797 68.9062L127.844 68.875H126.875ZM154.016 58.8438V58.3594C154.016 57.5885 153.74 56.8958 153.188 56.2812C152.635 55.6562 151.958 55.3438 151.156 55.3438H150.859C150.714 55.3646 150.615 55.375 150.562 55.375C149.833 55.375 149.141 55.7917 148.484 56.625C147.839 57.4583 147.516 58.349 147.516 59.2969V59.5C147.516 59.8333 147.714 60 148.109 60C148.266 60.0312 148.349 60.0469 148.359 60.0469L148.719 60.0625H148.812L148.922 60.0469L151.938 59.875L152.5 59.8125C153.51 59.8125 154.016 59.4896 154.016 58.8438ZM147.516 62.9844C147.516 64.1719 147.964 65.1667 148.859 65.9688C149.755 66.7708 150.891 67.1719 152.266 67.1719C152.818 67.1719 153.318 67.0938 153.766 66.9375C154.224 66.7708 154.719 66.5729 155.25 66.3438C155.792 66.1146 156.13 66 156.266 66C156.682 66 156.891 66.224 156.891 66.6719C156.891 67.276 156.12 67.9219 154.578 68.6094C153.578 69.0573 152.505 69.2812 151.359 69.2812H151.016C149.057 69.2812 147.432 68.6875 146.141 67.5C145.443 66.8542 144.901 66.0312 144.516 65.0312C144.13 64.0208 143.938 62.9375 143.938 61.7812L143.953 61.4219V61.0625C143.953 60.0625 144.182 59.0781 144.641 58.1094C145.109 57.1406 145.667 56.3438 146.312 55.7188C147.677 54.4062 149.297 53.7448 151.172 53.7344C154.005 53.7344 155.891 54.8385 156.828 57.0469C157.12 57.7448 157.266 58.3854 157.266 58.9688V59.2812C157.266 60 156.969 60.4844 156.375 60.7344C155.781 60.974 154.38 61.1719 152.172 61.3281C149.964 61.4844 148.766 61.5885 148.578 61.6406C147.87 61.8177 147.516 62.2656 147.516 62.9844ZM170.469 58.2969C170.469 57.4531 170.198 56.7812 169.656 56.2812C169.115 55.7708 168.396 55.5156 167.5 55.5156H167.203C166.734 55.5156 166.234 55.6562 165.703 55.9375C165.172 56.2188 164.734 56.625 164.391 57.1562C163.703 58.2188 163.359 59.5365 163.359 61.1094V62.0312C163.359 63.5938 163.708 64.8854 164.406 65.9062C165.115 66.9271 165.974 67.4375 166.984 67.4375H167.438C168.323 67.4375 169.047 67.1354 169.609 66.5312C170.172 65.9271 170.453 65.1562 170.453 64.2188L170.484 63.8906V63.5625L170.516 62.75C170.516 62.25 170.516 61.75 170.516 61.25L170.531 60.75V60.2656L170.516 60.0938V59.2656L170.5 59.1094V58.7812C170.479 58.5729 170.469 58.4115 170.469 58.2969ZM170.547 53.875C170.641 53.6458 170.688 52.9583 170.688 51.8125C170.688 50.6667 170.599 49.8281 170.422 49.2969C170.245 48.7552 169.932 48.3125 169.484 47.9688C169.047 47.6146 168.828 47.349 168.828 47.1719C168.828 46.9948 168.948 46.8385 169.188 46.7031C169.833 46.3281 170.885 46.1406 172.344 46.1406H172.719C173.448 46.1406 173.865 46.5312 173.969 47.3125C174 47.5521 174.016 50.5312 174.016 56.25C174.016 61.9583 174.057 65.0938 174.141 65.6562C174.224 66.2083 174.422 66.6406 174.734 66.9531C174.797 67.0156 174.995 67.1771 175.328 67.4375C175.672 67.6875 175.844 67.9115 175.844 68.1094C175.844 68.2969 175.698 68.4688 175.406 68.625C174.812 68.9479 173.844 69.1094 172.5 69.1094C172.031 69.1094 171.656 68.9688 171.375 68.6875C170.823 68.1354 170.521 67.8594 170.469 67.8594C170.427 67.8594 170.193 67.9792 169.766 68.2188C169.339 68.4583 168.823 68.7031 168.219 68.9531C167.625 69.1927 166.885 69.3125 166 69.3125C165.115 69.3125 164.297 69.1198 163.547 68.7344C162.161 68.026 161.188 66.8542 160.625 65.2188C160.292 64.2396 160.125 63.1667 160.125 62C160.125 59.6458 160.797 57.7292 162.141 56.25C163.495 54.7708 165.359 54.0312 167.734 54.0312L169.781 54.2188C170.198 54.2188 170.453 54.1042 170.547 53.875ZM181.5 58.3906C181.125 58.3906 180.698 58.224 180.219 57.8906C179.75 57.5469 179.516 57.0677 179.516 56.4531V56.0312C179.516 55.6458 179.703 55.2344 180.078 54.7969C180.464 54.349 180.906 54.125 181.406 54.125L181.547 54.0938H181.969C182.073 54.1146 182.146 54.125 182.188 54.125C182.646 54.125 183.057 54.3385 183.422 54.7656C183.786 55.1927 183.969 55.6615 183.969 56.1719V56.25C183.969 56.6979 183.797 57.1615 183.453 57.6406C183.109 58.1198 182.651 58.3594 182.078 58.3594L181.938 58.3906H181.5ZM181.828 69.0156H181.469C181.365 68.9948 181.292 68.9844 181.25 68.9844C180.781 68.9844 180.365 68.7656 180 68.3281C179.635 67.8906 179.453 67.4271 179.453 66.9375V66.875C179.453 66.3646 179.651 65.8802 180.047 65.4219C180.443 64.9531 180.948 64.7188 181.562 64.7188H181.922C182.307 64.7188 182.734 64.8906 183.203 65.2344C183.682 65.5677 183.922 66.0365 183.922 66.6406V67C183.922 67.5625 183.693 68.0417 183.234 68.4375C182.786 68.8229 182.318 69.0156 181.828 69.0156ZM22.7344 157.68C22.7344 166.169 22.9427 171.091 23.3594 172.445C23.8021 173.773 24.8828 175.049 26.6016 176.273C28.3464 177.471 29.2188 178.474 29.2188 179.281C29.2188 180.427 27.8776 181 25.1953 181H12.8516C8.78906 181 6.75781 180.336 6.75781 179.008C6.75781 178.331 7.64323 177.471 9.41406 176.43C11.2109 175.388 12.3828 174.099 12.9297 172.562C13.5026 171.026 13.7891 165.766 13.7891 156.781C13.7891 147.797 13.4896 142.628 12.8906 141.273C12.3177 139.893 10.9635 139.138 8.82812 139.008C6.71875 138.878 5.66406 138.292 5.66406 137.25C5.66406 136.573 6.30208 135.896 7.57812 135.219C8.17708 134.906 9.59635 134.359 11.8359 133.578C14.1016 132.771 15.9635 132.081 17.4219 131.508C18.8802 130.935 20.0521 130.648 20.9375 130.648C21.849 130.648 22.487 130.987 22.8516 131.664C23.2422 132.315 23.4375 133.474 23.4375 135.141L22.8906 144.555L22.8125 146.195V147.797L22.7344 151.078V157.68ZM52.5781 137.914C52.5781 137.914 52.5521 137.914 52.5 137.914C48.5677 137.914 46.6016 140.401 46.6016 145.375C46.6016 147.615 47.0052 149.034 47.8125 149.633C48.2292 149.919 49.6875 150.062 52.1875 150.062C57.8125 150.062 62.2656 151.391 65.5469 154.047C67.5 155.635 68.9583 157.484 69.9219 159.594C70.9115 161.677 71.4062 163.682 71.4062 165.609V166.898C71.4062 171.716 69.5833 175.766 65.9375 179.047C62.2917 182.302 57.6823 183.93 52.1094 183.93H50.8594C47.8906 183.93 45.1042 183.331 42.5 182.133C39.9219 180.935 38.6328 179.451 38.6328 177.68V176.664C38.6328 174.815 39.7005 173.891 41.8359 173.891C42.7214 173.891 44.2318 174.698 46.3672 176.312C48.5286 177.901 50.7682 178.695 53.0859 178.695C56.1068 178.695 58.5677 177.354 60.4688 174.672C61.7969 172.797 62.4609 170.102 62.4609 166.586C62.4609 165.128 62.0964 163.617 61.3672 162.055C60.638 160.492 59.6615 159.216 58.4375 158.227C56.224 156.456 52.9297 155.57 48.5547 155.57L47.3828 155.648C46.888 155.674 46.0156 155.688 44.7656 155.688C43.5417 155.688 42.6562 155.232 42.1094 154.32C41.5625 153.383 41.2891 151.495 41.2891 148.656C41.2891 145.818 41.6406 142.706 42.3438 139.32C43.0469 135.909 43.6979 133.839 44.2969 133.109C45.2865 131.885 49.0365 131.273 55.5469 131.273C59.5312 131.273 62.3958 131.117 64.1406 130.805L65.2734 130.57C66.237 130.362 66.9271 130.258 67.3438 130.258C69.1927 130.258 70.1172 131.221 70.1172 133.148C70.1172 136.534 68.0729 138.227 63.9844 138.227C62.474 138.227 61.1589 138.201 60.0391 138.148L57.5391 138.031C55.0391 137.953 53.3854 137.914 52.5781 137.914ZM89.6582 155.125H89.9746C90.6191 155.125 90.9414 155.271 90.9414 155.564C90.9414 155.857 90.6895 156.631 90.1855 157.885C84.6191 171.807 81.3203 179.934 80.2891 182.266C79.7383 183.508 79.1348 184.129 78.4785 184.129H78.1621C77.5176 184.129 77.1953 184 77.1953 183.742C77.1953 182.465 80.7051 173.635 87.7246 157.252C88.334 155.834 88.9785 155.125 89.6582 155.125ZM101.629 170.506C101.629 174.326 101.723 176.541 101.91 177.15C102.109 177.748 102.596 178.322 103.369 178.873C104.154 179.412 104.547 179.863 104.547 180.227C104.547 180.742 103.943 181 102.736 181H97.1816C95.3535 181 94.4395 180.701 94.4395 180.104C94.4395 179.799 94.8379 179.412 95.6348 178.943C96.4434 178.475 96.9707 177.895 97.2168 177.203C97.4746 176.512 97.6035 174.145 97.6035 170.102C97.6035 166.059 97.4688 163.732 97.1992 163.123C96.9414 162.502 96.332 162.162 95.3711 162.104C94.4219 162.045 93.9473 161.781 93.9473 161.312C93.9473 161.008 94.2344 160.703 94.8086 160.398C95.0781 160.258 95.7168 160.012 96.7246 159.66C97.7441 159.297 98.582 158.986 99.2383 158.729C99.8945 158.471 100.422 158.342 100.82 158.342C101.23 158.342 101.518 158.494 101.682 158.799C101.857 159.092 101.945 159.613 101.945 160.363L101.699 164.6L101.664 165.338V166.059L101.629 167.535V170.506ZM120.402 162.332C120.402 161.312 120.068 160.398 119.4 159.59C118.744 158.781 117.854 158.377 116.729 158.377H116.096C115.369 158.377 114.689 158.693 114.057 159.326C113.436 159.947 113.125 160.768 113.125 161.787V162.209C113.125 163.205 113.617 164.254 114.602 165.355C115.598 166.457 116.635 167.008 117.713 167.008C118.346 167.008 118.943 166.562 119.506 165.672C120.08 164.77 120.367 163.973 120.367 163.281L120.402 163.018V162.332ZM111.947 174.004V174.479C111.947 175.803 112.398 176.957 113.301 177.941C114.203 178.926 115.311 179.418 116.623 179.418H117.08C118.076 179.418 118.979 179.043 119.787 178.293C120.607 177.543 121.018 176.617 121.018 175.516V175.041C121.018 173.787 120.502 172.686 119.471 171.736C117.795 170.189 116.406 169.416 115.305 169.416H115.164C114.402 169.416 113.594 170.084 112.738 171.42C112.211 172.24 111.947 173.102 111.947 174.004ZM108.414 175.059C108.414 173.922 108.678 172.955 109.205 172.158C109.732 171.35 110.266 170.717 110.805 170.26C111.977 169.264 112.562 168.754 112.562 168.73L111.262 167.377C109.973 166.029 109.328 164.529 109.328 162.877C109.328 161.225 110.02 159.83 111.402 158.693C112.785 157.557 114.449 156.988 116.395 156.988H116.799C118.861 156.988 120.496 157.516 121.703 158.57C122.922 159.625 123.531 161.037 123.531 162.807C123.531 164.166 122.799 165.537 121.334 166.92C120.561 167.646 120.174 168.086 120.174 168.238L121.809 169.539C123.59 170.957 124.48 172.633 124.48 174.566V174.953C124.48 175.914 124.252 176.805 123.795 177.625C123.338 178.445 122.74 179.137 122.002 179.699C120.514 180.824 118.598 181.387 116.254 181.387C113.922 181.387 112.029 180.801 110.576 179.629C109.135 178.457 108.414 176.934 108.414 175.059ZM169.348 157.836V157.602C169.348 155.154 167.251 149.034 163.059 139.242C162.329 137.549 161.952 136.703 161.926 136.703L160.793 139.32C156.47 149.398 154.309 155.518 154.309 157.68C154.309 158.044 154.53 158.24 154.973 158.266C155.441 158.292 155.793 158.305 156.027 158.305L159.074 158.383H161.848L162.121 158.344C166.939 158.344 169.348 158.174 169.348 157.836ZM136.77 178.656C136.77 178.005 137.512 177.25 138.996 176.391C140.48 175.531 141.574 174.438 142.277 173.109C142.98 171.781 143.97 169.385 145.246 165.922C146.522 162.432 148.254 158.044 150.441 152.758C152.655 147.471 154.4 142.732 155.676 138.539C156.978 134.32 157.863 131.651 158.332 130.531C159.4 127.979 160.91 126.703 162.863 126.703H163.957C164.452 126.703 165.064 126.977 165.793 127.523C167.277 128.643 168.827 131.039 170.441 134.711C170.988 135.961 171.809 138.109 172.902 141.156C173.996 144.177 176.184 150.102 179.465 158.93C182.746 167.758 184.582 172.562 184.973 173.344C185.624 174.698 186.73 175.792 188.293 176.625C189.855 177.432 190.637 178.083 190.637 178.578C190.637 179.672 189.986 180.349 188.684 180.609C187.798 180.792 185.559 180.883 181.965 180.883L179.699 180.922C174.882 180.922 172.473 180.271 172.473 178.969C172.473 178.734 172.772 178.174 173.371 177.289C173.996 176.404 174.309 175.284 174.309 173.93C174.309 172.576 173.814 170.635 172.824 168.109C171.861 165.583 171.04 164.021 170.363 163.422C169.712 162.823 166.887 162.523 161.887 162.523C156.887 162.523 153.97 162.797 153.137 163.344C152.303 163.891 151.405 165.362 150.441 167.758C149.478 170.154 148.996 172.107 148.996 173.617C148.996 175.102 149.452 176.417 150.363 177.562C151.301 178.708 151.77 179.307 151.77 179.359C151.77 180.297 150.168 180.766 146.965 180.766C143.788 180.766 141.288 180.648 139.465 180.414C137.668 180.154 136.77 179.568 136.77 178.656ZM199.816 158.096V158.658C199.816 160.029 199.312 161.383 198.305 162.719C197.309 164.055 196.418 164.723 195.633 164.723H195.527C195.105 164.723 194.895 164.494 194.895 164.037L196.037 162.508C196.541 161.84 196.793 161.201 196.793 160.592C196.793 160.24 196.471 159.801 195.826 159.273C195.182 158.746 194.859 158.154 194.859 157.498V157.375L194.877 157.252C194.877 156.736 195.094 156.279 195.527 155.881C195.973 155.482 196.494 155.283 197.092 155.283H197.355L197.496 155.301C198.152 155.301 198.703 155.547 199.148 156.039C199.594 156.531 199.816 157.217 199.816 158.096ZM213.896 173.107C214.822 173.986 215.285 175.1 215.285 176.447C215.285 177.783 214.734 178.932 213.633 179.893C212.531 180.842 211.008 181.316 209.062 181.316H208.588C206.373 181.316 204.686 181.041 203.525 180.49C202.881 180.186 202.559 179.506 202.559 178.451V178.012C202.559 176.664 202.811 175.99 203.314 175.99C203.736 175.99 204.234 176.389 204.809 177.186C205.383 177.971 205.863 178.498 206.25 178.768C207 179.283 207.879 179.541 208.887 179.541C209.906 179.541 210.656 179.33 211.137 178.908C211.617 178.475 211.857 177.906 211.857 177.203C211.857 176.5 211.447 175.85 210.627 175.252C210.193 174.936 209.18 174.438 207.586 173.758C206.004 173.078 204.82 172.369 204.035 171.631C203.25 170.881 202.857 169.826 202.857 168.467C202.857 167.107 203.426 166.006 204.562 165.162C205.699 164.307 207.1 163.879 208.764 163.879H209.238C211.418 163.879 212.947 164.137 213.826 164.652C214.283 164.922 214.512 165.672 214.512 166.902C214.512 168.133 214.219 168.748 213.633 168.748C213.305 168.748 212.854 168.385 212.279 167.658C211.717 166.92 211.201 166.398 210.732 166.094C210.264 165.777 209.613 165.619 208.781 165.619C207.961 165.619 207.311 165.807 206.83 166.182C206.35 166.557 206.109 167.102 206.109 167.816C206.109 168.52 206.549 169.152 207.428 169.715C207.65 169.867 208.623 170.318 210.346 171.068C212.068 171.818 213.252 172.498 213.896 173.107ZM9.57812 212.766H9.3125C7.94792 212.766 6.80729 213.073 5.89062 213.688C4.98438 214.292 4.53125 215.047 4.53125 215.953V216.266C4.53125 216.797 4.69271 217.276 5.01562 217.703C5.34896 218.12 5.77604 218.328 6.29688 218.328L6.48438 218.359H6.95312C8.03646 218.359 8.92188 217.917 9.60938 217.031C9.91146 216.646 10.0625 215.854 10.0625 214.656C10.0625 214.562 10.0625 214.469 10.0625 214.375L10.0781 214V213.625C10.0781 213.052 9.91146 212.766 9.57812 212.766ZM1.98438 207.719C1.98438 206.948 2.59375 206.26 3.8125 205.656C5.04167 205.042 6.3125 204.734 7.625 204.734C7.66667 204.734 7.70833 204.734 7.75 204.734C9 204.734 10 204.885 10.75 205.188C12.2708 205.792 13.1406 207.073 13.3594 209.031C13.3802 209.229 13.3906 210.542 13.3906 212.969C13.3906 215.385 13.4531 216.802 13.5781 217.219C13.7135 217.635 14.0677 217.943 14.6406 218.141C15.224 218.339 15.5156 218.526 15.5156 218.703C15.5156 219.078 15.3281 219.365 14.9531 219.562C14.2031 219.958 13.4635 220.156 12.7344 220.156C12.0156 220.156 11.4792 219.99 11.125 219.656C10.4896 219.062 10.151 218.766 10.1094 218.766C10.0677 218.766 9.47917 219.031 8.34375 219.562C7.20833 220.083 6.21354 220.344 5.35938 220.344C4.07812 220.344 3.07292 219.99 2.34375 219.281C1.61458 218.573 1.25 217.714 1.25 216.703V216.312C1.25 215.229 1.71875 214.276 2.65625 213.453C3.59375 212.63 5.28125 211.99 7.71875 211.531C8.60417 211.365 9.16146 211.208 9.39062 211.062C9.84896 210.771 10.0781 210.177 10.0781 209.281C10.0781 208.385 9.83854 207.698 9.35938 207.219C8.88021 206.74 8.23958 206.5 7.4375 206.5C6.63542 206.5 5.85938 206.969 5.10938 207.906C4.36979 208.833 3.69271 209.297 3.07812 209.297C2.34896 209.297 1.98438 208.771 1.98438 207.719ZM20.1875 219.875C18.7188 219.875 17.9844 219.667 17.9844 219.25C17.9844 218.906 18.1771 218.625 18.5625 218.406C19.2604 218.01 19.6667 217.656 19.7812 217.344C19.8958 217.021 19.9531 215.516 19.9531 212.828C19.9531 210.13 19.8698 208.552 19.7031 208.094C19.5469 207.625 19.2552 207.24 18.8281 206.938C18.401 206.635 18.1875 206.391 18.1875 206.203C18.1875 206.016 18.3281 205.839 18.6094 205.672C19.2656 205.286 20.3073 205.094 21.7344 205.094C22.1615 205.094 22.4948 205.24 22.7344 205.531C22.8177 205.635 22.9323 205.865 23.0781 206.219C23.2344 206.562 23.3385 206.734 23.3906 206.734C23.5885 206.724 23.8958 206.583 24.3125 206.312C25.75 205.344 27.0521 204.859 28.2188 204.859H28.25H28.75C29.5938 204.859 30.3542 205.068 31.0312 205.484C31.7083 205.901 32.2292 206.526 32.5938 207.359C32.9688 208.193 33.1562 210.01 33.1562 212.812C33.1562 215.604 33.2135 217.167 33.3281 217.5C33.4531 217.823 33.7917 218.125 34.3438 218.406C34.9062 218.688 35.1875 218.964 35.1875 219.234C35.1875 219.703 33.7083 219.938 30.75 219.938H30.2812C29.3438 219.938 28.875 219.714 28.875 219.266C28.875 219.172 28.9896 218.948 29.2188 218.594C29.4479 218.229 29.6042 217.828 29.6875 217.391C29.7708 216.953 29.8125 215.516 29.8125 213.078C29.8125 210.63 29.6615 209.057 29.3594 208.359C28.9427 207.401 28.25 206.922 27.2812 206.922C26.5729 206.922 25.8854 207.089 25.2188 207.422C24.5625 207.745 24.0833 208.208 23.7812 208.812C23.4896 209.406 23.3438 210.839 23.3438 213.109C23.3438 215.37 23.4062 216.74 23.5312 217.219C23.6562 217.688 23.8073 218.068 23.9844 218.359L24.5625 219.297C24.5625 219.703 23.7448 219.906 22.1094 219.906L21.1562 219.875H20.1875ZM47.8125 209.297C47.8125 208.453 47.5417 207.781 47 207.281C46.4583 206.771 45.7396 206.516 44.8438 206.516H44.5469C44.0781 206.516 43.5781 206.656 43.0469 206.938C42.5156 207.219 42.0781 207.625 41.7344 208.156C41.0469 209.219 40.7031 210.536 40.7031 212.109V213.031C40.7031 214.594 41.0521 215.885 41.75 216.906C42.4583 217.927 43.3177 218.438 44.3281 218.438H44.7812C45.6667 218.438 46.3906 218.135 46.9531 217.531C47.5156 216.927 47.7969 216.156 47.7969 215.219L47.8281 214.891V214.562L47.8594 213.75C47.8594 213.25 47.8594 212.75 47.8594 212.25L47.875 211.75V211.266L47.8594 211.094V210.266L47.8438 210.109V209.781C47.8229 209.573 47.8125 209.411 47.8125 209.297ZM47.8906 204.875C47.9844 204.646 48.0312 203.958 48.0312 202.812C48.0312 201.667 47.9427 200.828 47.7656 200.297C47.5885 199.755 47.276 199.312 46.8281 198.969C46.3906 198.615 46.1719 198.349 46.1719 198.172C46.1719 197.995 46.2917 197.839 46.5312 197.703C47.1771 197.328 48.2292 197.141 49.6875 197.141H50.0625C50.7917 197.141 51.2083 197.531 51.3125 198.312C51.3438 198.552 51.3594 201.531 51.3594 207.25C51.3594 212.958 51.401 216.094 51.4844 216.656C51.5677 217.208 51.7656 217.641 52.0781 217.953C52.1406 218.016 52.3385 218.177 52.6719 218.438C53.0156 218.688 53.1875 218.911 53.1875 219.109C53.1875 219.297 53.0417 219.469 52.75 219.625C52.1562 219.948 51.1875 220.109 49.8438 220.109C49.375 220.109 49 219.969 48.7188 219.688C48.1667 219.135 47.8646 218.859 47.8125 218.859C47.7708 218.859 47.5365 218.979 47.1094 219.219C46.6823 219.458 46.1667 219.703 45.5625 219.953C44.9688 220.193 44.2292 220.312 43.3438 220.312C42.4583 220.312 41.6406 220.12 40.8906 219.734C39.5052 219.026 38.5312 217.854 37.9688 216.219C37.6354 215.24 37.4688 214.167 37.4688 213C37.4688 210.646 38.1406 208.729 39.4844 207.25C40.8385 205.771 42.7031 205.031 45.0781 205.031L47.125 205.219C47.5417 205.219 47.7969 205.104 47.8906 204.875ZM75.5938 209.281C75.1562 209.281 74.5469 208.828 73.7656 207.922C72.9948 207.016 72.099 206.562 71.0781 206.562C70.0677 206.562 69.2188 207.068 68.5312 208.078C67.8438 209.078 67.5 210.5 67.5 212.344C67.5 214.188 67.9219 215.63 68.7656 216.672C69.6198 217.703 70.7292 218.219 72.0938 218.219C72.8438 218.219 73.4688 218.125 73.9688 217.938C74.4792 217.75 74.9479 217.552 75.375 217.344C75.8125 217.125 76.1198 217.016 76.2969 217.016C76.599 217.016 76.75 217.214 76.75 217.609C76.75 218.214 76.1406 218.812 74.9219 219.406C73.7031 220 72.5208 220.297 71.375 220.297C69.1458 220.297 67.3542 219.599 66 218.203C65.4479 217.63 64.9844 216.896 64.6094 216C64.2344 215.094 64.0469 214.125 64.0469 213.094V212.328C64.0469 212.307 64.0469 212.281 64.0469 212.25C64.0469 212.229 64.0469 212.208 64.0469 212.188C64.0469 211.281 64.25 210.344 64.6562 209.375C65.4583 207.479 66.75 206.167 68.5312 205.438C69.5625 205.021 70.5885 204.812 71.6094 204.812H71.9688C73.375 204.812 74.5677 205.057 75.5469 205.547C76.3385 205.943 76.7344 206.604 76.7344 207.531C76.7344 208.146 76.6094 208.594 76.3594 208.875C76.1198 209.146 75.8646 209.281 75.5938 209.281ZM82.7969 211.953V212.531C82.7969 214.302 83.1406 215.771 83.8281 216.938C84.151 217.49 84.5625 217.927 85.0625 218.25C85.5625 218.573 86.0677 218.734 86.5781 218.734H86.8906C87.8385 218.734 88.6562 218.276 89.3438 217.359C90.0417 216.432 90.3906 215.12 90.3906 213.422V212.312C90.3906 210.635 90.0417 209.214 89.3438 208.047C88.6562 206.87 87.7812 206.281 86.7188 206.281H86.2344C85.276 206.281 84.4635 206.797 83.7969 207.828C83.1302 208.859 82.7969 210.234 82.7969 211.953ZM94.1562 212.016V212.797C94.1562 213.62 93.9896 214.521 93.6562 215.5C92.9583 217.542 91.5677 218.969 89.4844 219.781C88.5781 220.135 87.7031 220.312 86.8594 220.312H86.3438C84.3542 220.312 82.6927 219.646 81.3594 218.312C80.7552 217.708 80.2656 216.911 79.8906 215.922C79.5156 214.932 79.3281 213.88 79.3281 212.766V212.5C79.3281 211.49 79.5052 210.469 79.8594 209.438C80.5469 207.427 81.8958 206.031 83.9062 205.25C84.8125 204.896 85.6823 204.719 86.5156 204.719H87.2969C88.224 204.719 89.1354 204.927 90.0312 205.344C91.7292 206.135 92.9115 207.396 93.5781 209.125C93.9635 210.146 94.1562 211.109 94.1562 212.016ZM112.672 218.297C113.13 218.651 113.359 218.906 113.359 219.062C113.359 219.208 113.281 219.349 113.125 219.484C112.677 219.891 111.719 220.094 110.25 220.094C109.771 220.094 109.396 220.016 109.125 219.859C108.865 219.693 108.63 219.396 108.422 218.969C108.224 218.542 108.057 218.328 107.922 218.328C107.786 218.339 107.484 218.51 107.016 218.844C105.703 219.792 104.448 220.266 103.25 220.266C103.24 220.266 103.224 220.266 103.203 220.266H102.734C101.016 220.266 99.7708 219.536 99 218.078C98.6042 217.318 98.401 215.458 98.3906 212.5C98.3906 209.531 98.3438 207.901 98.25 207.609C98.1562 207.307 97.8229 207.026 97.25 206.766C96.6875 206.495 96.4062 206.286 96.4062 206.141C96.4062 205.755 96.5885 205.505 96.9531 205.391C97.7656 205.13 98.8021 205 100.062 205C100.792 205 101.255 205.297 101.453 205.891C101.714 206.651 101.844 208.469 101.844 211.344C101.844 214.208 101.969 215.948 102.219 216.562C102.646 217.615 103.422 218.141 104.547 218.141C105.13 218.141 105.708 217.99 106.281 217.688C106.865 217.385 107.318 216.979 107.641 216.469C107.964 215.958 108.125 214.557 108.125 212.266C108.125 209.964 108.047 208.516 107.891 207.922C107.745 207.328 107.516 206.865 107.203 206.531C106.891 206.188 106.734 205.917 106.734 205.719C106.734 205.26 107.958 205.031 110.406 205.031C110.917 205.031 111.25 205.146 111.406 205.375C111.562 205.594 111.641 206 111.641 206.594L111.594 207.516L111.516 211.672C111.516 214.38 111.594 216.073 111.75 216.75C111.906 217.417 112.214 217.932 112.672 218.297ZM118.094 219.875C116.625 219.875 115.891 219.667 115.891 219.25C115.891 218.906 116.083 218.625 116.469 218.406C117.167 218.01 117.573 217.656 117.688 217.344C117.802 217.021 117.859 215.516 117.859 212.828C117.859 210.13 117.776 208.552 117.609 208.094C117.453 207.625 117.161 207.24 116.734 206.938C116.307 206.635 116.094 206.391 116.094 206.203C116.094 206.016 116.234 205.839 116.516 205.672C117.172 205.286 118.214 205.094 119.641 205.094C120.068 205.094 120.401 205.24 120.641 205.531C120.724 205.635 120.839 205.865 120.984 206.219C121.141 206.562 121.245 206.734 121.297 206.734C121.495 206.724 121.802 206.583 122.219 206.312C123.656 205.344 124.958 204.859 126.125 204.859H126.156H126.656C127.5 204.859 128.26 205.068 128.938 205.484C129.615 205.901 130.135 206.526 130.5 207.359C130.875 208.193 131.062 210.01 131.062 212.812C131.062 215.604 131.12 217.167 131.234 217.5C131.359 217.823 131.698 218.125 132.25 218.406C132.812 218.688 133.094 218.964 133.094 219.234C133.094 219.703 131.615 219.938 128.656 219.938H128.188C127.25 219.938 126.781 219.714 126.781 219.266C126.781 219.172 126.896 218.948 127.125 218.594C127.354 218.229 127.51 217.828 127.594 217.391C127.677 216.953 127.719 215.516 127.719 213.078C127.719 210.63 127.568 209.057 127.266 208.359C126.849 207.401 126.156 206.922 125.188 206.922C124.479 206.922 123.792 207.089 123.125 207.422C122.469 207.745 121.99 208.208 121.688 208.812C121.396 209.406 121.25 210.839 121.25 213.109C121.25 215.37 121.312 216.74 121.438 217.219C121.562 217.688 121.714 218.068 121.891 218.359L122.469 219.297C122.469 219.703 121.651 219.906 120.016 219.906L119.062 219.875H118.094ZM142.031 217.938L144.406 217.578C144.677 217.578 144.812 217.792 144.812 218.219C144.812 218.635 144.411 219.068 143.609 219.516C142.807 219.964 141.964 220.188 141.078 220.188H140.766C140.068 220.188 139.438 220.005 138.875 219.641C138.312 219.276 137.901 218.828 137.641 218.297C137.193 217.37 136.969 215.615 136.969 213.031C136.969 210.438 136.875 208.818 136.688 208.172C136.51 207.526 136.276 207.083 135.984 206.844C135.443 206.406 135.172 206.167 135.172 206.125C135.172 205.854 135.312 205.625 135.594 205.438C136.312 204.958 136.703 204.688 136.766 204.625C136.839 204.552 137.24 203.698 137.969 202.062C138.333 201.25 138.745 200.844 139.203 200.844C139.672 200.844 139.984 201.01 140.141 201.344C140.182 201.427 140.271 201.88 140.406 202.703C140.552 203.526 140.755 204.057 141.016 204.297C141.276 204.526 141.854 204.75 142.75 204.969C143.646 205.177 144.094 205.479 144.094 205.875C144.094 206.271 143.599 206.568 142.609 206.766C141.62 206.964 141.021 207.219 140.812 207.531C140.448 208.062 140.266 209.562 140.266 212.031C140.266 214.5 140.38 216.057 140.609 216.703C140.901 217.526 141.375 217.938 142.031 217.938ZM152.891 199.938C152.891 200.396 152.693 200.823 152.297 201.219C151.911 201.604 151.526 201.797 151.141 201.797C151.057 201.818 150.99 201.828 150.938 201.828L150.594 201.859C150.073 201.859 149.604 201.688 149.188 201.344C148.781 201 148.578 200.557 148.578 200.016V199.734C148.578 199.193 148.792 198.74 149.219 198.375C149.656 198 150.156 197.812 150.719 197.812H150.797L151.328 197.875C151.651 197.875 151.984 198.052 152.328 198.406C152.682 198.75 152.859 199.099 152.859 199.453L152.891 199.594V199.938ZM147.922 206.906C147.38 206.646 147.109 206.401 147.109 206.172C147.109 205.943 147.219 205.76 147.438 205.625C148.198 205.167 149.401 204.938 151.047 204.938H151.5C152.062 204.938 152.38 205.198 152.453 205.719C152.495 206 152.516 207.896 152.516 211.406C152.516 214.906 152.589 216.917 152.734 217.438C152.88 217.948 153.229 218.344 153.781 218.625C154.333 218.896 154.609 219.172 154.609 219.453C154.609 219.849 153.318 220.047 150.734 220.047L150.266 220.062H148.359C147.599 220.062 147.219 219.875 147.219 219.5C147.219 219.188 147.448 218.885 147.906 218.594C148.375 218.302 148.698 217.979 148.875 217.625C149.073 217.24 149.172 216.339 149.172 214.922L149.188 214.422V213.938L149.203 213.203V212.719L149.219 212.234C149.219 209.766 149.135 208.328 148.969 207.922C148.812 207.505 148.464 207.167 147.922 206.906ZM159.344 219.875C157.875 219.875 157.141 219.667 157.141 219.25C157.141 218.906 157.333 218.625 157.719 218.406C158.417 218.01 158.823 217.656 158.938 217.344C159.052 217.021 159.109 215.516 159.109 212.828C159.109 210.13 159.026 208.552 158.859 208.094C158.703 207.625 158.411 207.24 157.984 206.938C157.557 206.635 157.344 206.391 157.344 206.203C157.344 206.016 157.484 205.839 157.766 205.672C158.422 205.286 159.464 205.094 160.891 205.094C161.318 205.094 161.651 205.24 161.891 205.531C161.974 205.635 162.089 205.865 162.234 206.219C162.391 206.562 162.495 206.734 162.547 206.734C162.745 206.724 163.052 206.583 163.469 206.312C164.906 205.344 166.208 204.859 167.375 204.859H167.406H167.906C168.75 204.859 169.51 205.068 170.188 205.484C170.865 205.901 171.385 206.526 171.75 207.359C172.125 208.193 172.312 210.01 172.312 212.812C172.312 215.604 172.37 217.167 172.484 217.5C172.609 217.823 172.948 218.125 173.5 218.406C174.062 218.688 174.344 218.964 174.344 219.234C174.344 219.703 172.865 219.938 169.906 219.938H169.438C168.5 219.938 168.031 219.714 168.031 219.266C168.031 219.172 168.146 218.948 168.375 218.594C168.604 218.229 168.76 217.828 168.844 217.391C168.927 216.953 168.969 215.516 168.969 213.078C168.969 210.63 168.818 209.057 168.516 208.359C168.099 207.401 167.406 206.922 166.438 206.922C165.729 206.922 165.042 207.089 164.375 207.422C163.719 207.745 163.24 208.208 162.938 208.812C162.646 209.406 162.5 210.839 162.5 213.109C162.5 215.37 162.562 216.74 162.688 217.219C162.812 217.688 162.964 218.068 163.141 218.359L163.719 219.297C163.719 219.703 162.901 219.906 161.266 219.906L160.312 219.875H159.344ZM183.141 205.734H182.734C182.182 205.734 181.646 206.052 181.125 206.688C180.604 207.323 180.344 208.062 180.344 208.906L180.312 209.156L180.297 209.547V209.953L180.312 210.078C180.312 211.161 180.547 212.036 181.016 212.703C181.484 213.37 182.182 213.703 183.109 213.703H183.219C183.938 213.703 184.552 213.422 185.062 212.859C185.573 212.297 185.828 211.552 185.828 210.625V210.016C185.797 209.766 185.781 209.562 185.781 209.406C185.781 208.417 185.505 207.557 184.953 206.828C184.411 206.099 183.807 205.734 183.141 205.734ZM181.75 219.625C181.021 219.625 180.401 219.88 179.891 220.391C179.38 220.901 179.125 221.542 179.125 222.312V222.438C179.125 223.323 179.474 224.021 180.172 224.531C180.87 225.042 181.823 225.297 183.031 225.297H183.438C184.896 225.297 186.068 224.964 186.953 224.297C187.839 223.63 188.281 222.849 188.281 221.953L188.266 221.828C188.266 221.234 188.021 220.755 187.531 220.391C187.042 220.036 186.464 219.859 185.797 219.859C185.38 219.807 185.078 219.781 184.891 219.781L184.359 219.734H184.094L183.156 219.672L182.516 219.625H181.75ZM191.359 205.562C191.359 206.156 190.984 206.536 190.234 206.703C189.484 206.859 189.109 207.167 189.109 207.625L189.156 207.953L189.219 208.328L189.297 208.734C189.349 209.078 189.375 209.562 189.375 210.188C189.375 210.812 189.198 211.458 188.844 212.125C187.854 213.969 185.948 214.979 183.125 215.156C182.219 215.219 181.641 215.297 181.391 215.391C180.849 215.599 180.578 215.948 180.578 216.438C180.578 216.927 180.979 217.271 181.781 217.469C181.896 217.5 182.932 217.599 184.891 217.766C186.849 217.922 188.156 218.167 188.812 218.5C190.198 219.188 190.891 220.182 190.891 221.484C190.891 223.193 190.125 224.583 188.594 225.656C187.073 226.729 185.078 227.266 182.609 227.266C180.87 227.266 179.422 226.932 178.266 226.266C177.734 225.964 177.302 225.568 176.969 225.078C176.646 224.599 176.484 224.099 176.484 223.578C176.484 222.651 176.76 221.88 177.312 221.266C178.198 220.286 178.641 219.766 178.641 219.703C178.641 219.641 178.448 219.365 178.062 218.875C177.677 218.385 177.484 217.875 177.484 217.344C177.484 216.812 177.734 216.24 178.234 215.625C178.745 215 179 214.651 179 214.578C179 214.505 178.688 213.974 178.062 212.984C177.438 211.984 177.125 211.036 177.125 210.141C177.125 209.245 177.318 208.448 177.703 207.75C178.797 205.76 180.833 204.766 183.812 204.766H184.266L186.438 204.906L187.234 204.938C187.505 204.948 187.781 204.953 188.062 204.953L189.719 204.844C190.812 204.844 191.359 205.083 191.359 205.562ZM196.312 220.375C195.771 220.375 195.276 220.182 194.828 219.797C194.38 219.411 194.156 218.906 194.156 218.281V218.141C194.156 217.536 194.385 217.036 194.844 216.641C195.312 216.245 195.786 216.047 196.266 216.047H196.547C196.703 216.078 196.818 216.094 196.891 216.094C197.255 216.094 197.635 216.292 198.031 216.688C198.427 217.083 198.625 217.542 198.625 218.062V218.281C198.625 218.76 198.432 219.224 198.047 219.672C197.672 220.109 197.24 220.328 196.75 220.328L196.391 220.375H196.312ZM204.406 220.375C203.865 220.375 203.37 220.182 202.922 219.797C202.474 219.411 202.25 218.906 202.25 218.281V218.141C202.25 217.536 202.479 217.036 202.938 216.641C203.406 216.245 203.88 216.047 204.359 216.047H204.641C204.797 216.078 204.911 216.094 204.984 216.094C205.349 216.094 205.729 216.292 206.125 216.688C206.521 217.083 206.719 217.542 206.719 218.062V218.281C206.719 218.76 206.526 219.224 206.141 219.672C205.766 220.109 205.333 220.328 204.844 220.328L204.484 220.375H204.406ZM212.5 220.375C211.958 220.375 211.464 220.182 211.016 219.797C210.568 219.411 210.344 218.906 210.344 218.281V218.141C210.344 217.536 210.573 217.036 211.031 216.641C211.5 216.245 211.974 216.047 212.453 216.047H212.734C212.891 216.078 213.005 216.094 213.078 216.094C213.443 216.094 213.823 216.292 214.219 216.688C214.615 217.083 214.812 217.542 214.812 218.062V218.281C214.812 218.76 214.62 219.224 214.234 219.672C213.859 220.109 213.427 220.328 212.938 220.328L212.578 220.375H212.5Z" fill="#064E3B"/>
</svg>
