<svg width="242" height="220" viewBox="0 0 242 220" fill="none" xmlns="http://www.w3.org/2000/svg">
    <path d="M15.0645 15.5762V15.4707C15.0645 14.3691 14.1211 11.6152 12.2344 7.20898C11.9062 6.44727 11.7363 6.06641 11.7246 6.06641L11.2148 7.24414C9.26953 11.7793 8.29688 14.5332 8.29688 15.5059C8.29688 15.6699 8.39648 15.7578 8.5957 15.7695C8.80664 15.7812 8.96484 15.7871 9.07031 15.7871L10.4414 15.8223H11.6895L11.8125 15.8047C13.9805 15.8047 15.0645 15.7285 15.0645 15.5762ZM0.404297 24.9453C0.404297 24.6523 0.738281 24.3125 1.40625 23.9258C2.07422 23.5391 2.56641 23.0469 2.88281 22.4492C3.19922 21.8516 3.64453 20.7734 4.21875 19.2148C4.79297 17.6445 5.57227 15.6699 6.55664 13.291C7.55273 10.9121 8.33789 8.7793 8.91211 6.89258C9.49805 4.99414 9.89648 3.79297 10.1074 3.28906C10.5879 2.14062 11.2676 1.56641 12.1465 1.56641H12.6387C12.8613 1.56641 13.1367 1.68945 13.4648 1.93555C14.1328 2.43945 14.8301 3.51758 15.5566 5.16992C15.8027 5.73242 16.1719 6.69922 16.6641 8.07031C17.1562 9.42969 18.1406 12.0957 19.6172 16.0684C21.0938 20.041 21.9199 22.2031 22.0957 22.5547C22.3887 23.1641 22.8867 23.6562 23.5898 24.0312C24.293 24.3945 24.6445 24.6875 24.6445 24.9102C24.6445 25.4023 24.3516 25.707 23.7656 25.8242C23.3672 25.9062 22.3594 25.9473 20.7422 25.9473L19.7227 25.9648C17.5547 25.9648 16.4707 25.6719 16.4707 25.0859C16.4707 24.9805 16.6055 24.7285 16.875 24.3301C17.1562 23.9316 17.2969 23.4277 17.2969 22.8184C17.2969 22.209 17.0742 21.3359 16.6289 20.1992C16.1953 19.0625 15.8262 18.3594 15.5215 18.0898C15.2285 17.8203 13.957 17.6855 11.707 17.6855C9.45703 17.6855 8.14453 17.8086 7.76953 18.0547C7.39453 18.3008 6.99023 18.9629 6.55664 20.041C6.12305 21.1191 5.90625 21.998 5.90625 22.6777C5.90625 23.3457 6.11133 23.9375 6.52148 24.4531C6.94336 24.9688 7.1543 25.2383 7.1543 25.2617C7.1543 25.6836 6.43359 25.8945 4.99219 25.8945C3.5625 25.8945 2.4375 25.8418 1.61719 25.7363C0.808594 25.6191 0.404297 25.3555 0.404297 24.9453Z" fill="#064E3B"/>
    <path d="M38.373 18.1074C39.2988 18.9863 39.7617 20.0996 39.7617 21.4473C39.7617 22.7832 39.2109 23.9316 38.1094 24.8926C37.0078 25.8418 35.4844 26.3164 33.5391 26.3164H33.0645C30.8496 26.3164 29.1621 26.041 28.002 25.4902C27.3574 25.1855 27.0352 24.5059 27.0352 23.4512V23.0117C27.0352 21.6641 27.2871 20.9902 27.791 20.9902C28.2129 20.9902 28.7109 21.3887 29.2852 22.1855C29.8594 22.9707 30.3398 23.498 30.7266 23.7676C31.4766 24.2832 32.3555 24.541 33.3633 24.541C34.3828 24.541 35.1328 24.3301 35.6133 23.9082C36.0938 23.4746 36.334 22.9062 36.334 22.2031C36.334 21.5 35.9238 20.8496 35.1035 20.252C34.6699 19.9355 33.6562 19.4375 32.0625 18.7578C30.4805 18.0781 29.2969 17.3691 28.5117 16.6309C27.7266 15.8809 27.334 14.8262 27.334 13.4668C27.334 12.1074 27.9023 11.0059 29.0391 10.1621C30.1758 9.30664 31.5762 8.87891 33.2402 8.87891H33.7148C35.8945 8.87891 37.4238 9.13672 38.3027 9.65234C38.7598 9.92188 38.9883 10.6719 38.9883 11.9023C38.9883 13.1328 38.6953 13.748 38.1094 13.748C37.7812 13.748 37.3301 13.3848 36.7559 12.6582C36.1934 11.9199 35.6777 11.3984 35.209 11.0938C34.7402 10.7773 34.0898 10.6191 33.2578 10.6191C32.4375 10.6191 31.7871 10.8066 31.3066 11.1816C30.8262 11.5566 30.5859 12.1016 30.5859 12.8164C30.5859 13.5195 31.0254 14.1523 31.9043 14.7148C32.127 14.8672 33.0996 15.3184 34.8223 16.0684C36.5449 16.8184 37.7285 17.498 38.373 18.1074Z" fill="#064E3B"/>
    <path d="M61.1191 17.8613H60.8203C59.2852 17.8613 58.002 18.207 56.9707 18.8984C55.9512 19.5781 55.4414 20.4277 55.4414 21.4473V21.7988C55.4414 22.3965 55.623 22.9355 55.9863 23.416C56.3613 23.8848 56.8418 24.1191 57.4277 24.1191L57.6387 24.1543H58.166C59.3848 24.1543 60.3809 23.6562 61.1543 22.6602C61.4941 22.2266 61.6641 21.3359 61.6641 19.9883C61.6641 19.8828 61.6641 19.7773 61.6641 19.6719L61.6816 19.25V18.8281C61.6816 18.1836 61.4941 17.8613 61.1191 17.8613ZM52.5762 12.1836C52.5762 11.3164 53.2617 10.543 54.6328 9.86328C56.0156 9.17188 57.4453 8.82617 58.9219 8.82617C58.9688 8.82617 59.0156 8.82617 59.0625 8.82617C60.4688 8.82617 61.5938 8.99609 62.4375 9.33594C64.1484 10.0156 65.127 11.457 65.373 13.6602C65.3965 13.8828 65.4082 15.3594 65.4082 18.0898C65.4082 20.8086 65.4785 22.4023 65.6191 22.8711C65.7715 23.3398 66.1699 23.6855 66.8145 23.9082C67.4707 24.1309 67.7988 24.3418 67.7988 24.541C67.7988 24.9629 67.5879 25.2852 67.166 25.5078C66.3223 25.9531 65.4902 26.1758 64.6699 26.1758C63.8613 26.1758 63.2578 25.9883 62.8594 25.6133C62.1445 24.9453 61.7637 24.6113 61.7168 24.6113C61.6699 24.6113 61.0078 24.9102 59.7305 25.5078C58.4531 26.0938 57.334 26.3867 56.373 26.3867C54.9316 26.3867 53.8008 25.9883 52.9805 25.1914C52.1602 24.3945 51.75 23.4277 51.75 22.291V21.8516C51.75 20.6328 52.2773 19.5605 53.332 18.6348C54.3867 17.709 56.2852 16.9883 59.0273 16.4727C60.0234 16.2852 60.6504 16.1094 60.9082 15.9453C61.4238 15.6172 61.6816 14.9492 61.6816 13.9414C61.6816 12.9336 61.4121 12.1602 60.873 11.6211C60.334 11.082 59.6133 10.8125 58.7109 10.8125C57.8086 10.8125 56.9355 11.3398 56.0918 12.3945C55.2598 13.4375 54.498 13.959 53.8066 13.959C52.9863 13.959 52.5762 13.3672 52.5762 12.1836Z" fill="#064E3B"/>
    <path d="M95.291 1.46094C96.2402 1.46094 96.9316 1.69531 97.3652 2.16406C97.8105 2.62109 98.0332 3.61133 98.0332 5.13477C98.0332 5.99023 97.8398 6.41797 97.4531 6.41797C97.4062 6.41797 97.0312 6.14258 96.3281 5.5918C95.625 5.0293 95.0273 4.64844 94.5352 4.44922C93.3164 3.96875 91.8047 3.72852 90 3.72852C88.8633 3.72852 88.0664 4.09766 87.6094 4.83594C87.1523 5.57422 86.9238 7.03906 86.9238 9.23047C86.9238 10.4609 87.1465 11.2988 87.5918 11.7441C88.0371 12.1895 88.6992 12.4121 89.5781 12.4121C90.4688 12.4121 91.3184 12.166 92.127 11.6738C92.9473 11.1816 93.3809 10.9355 93.4277 10.9355C93.8613 10.9355 94.166 11.1348 94.3418 11.5332C94.5293 11.9316 94.623 12.5762 94.623 13.4668C94.623 15.4355 94.1309 16.4199 93.1465 16.4199C92.9824 16.4199 92.5547 16.2441 91.8633 15.8926C91.1836 15.5293 90.6855 15.3477 90.3691 15.3477C89.2441 15.3477 88.3945 15.5703 87.8203 16.0156C87.2578 16.4492 86.9766 17.334 86.9766 18.6699C86.9766 20.0059 87.0938 21.166 87.3281 22.1504C87.5625 23.1348 87.75 23.7559 87.8906 24.0137C88.0312 24.2715 88.1953 24.541 88.3828 24.8223C88.582 25.1035 88.6816 25.3027 88.6816 25.4199C88.6816 25.8535 87.8906 26.0703 86.3086 26.0703H85.6934L85.0781 26.0527C81.8789 26.0527 80.2793 25.7305 80.2793 25.0859C80.2793 24.7578 80.5898 24.3945 81.2109 23.9961C81.8438 23.5977 82.2305 23.1758 82.3711 22.7305C82.5117 22.2852 82.582 21.207 82.582 19.4961V15.9805L82.6348 14.0996L82.6523 12.2012V10.2852C82.6523 7.56641 82.5469 5.84375 82.3359 5.11719C82.125 4.37891 81.8379 3.88086 81.4746 3.62305C80.584 2.97852 80.1387 2.59766 80.1387 2.48047C80.1387 2.08203 80.3789 1.82422 80.8594 1.70703C81.1641 1.63672 82.1543 1.60156 83.8301 1.60156L88.2422 1.51367L90.1582 1.46094H95.291Z" fill="#064E3B"/>
    <path d="M108.844 25.3145C108.844 25.7715 107.783 26 105.662 26H103.799L103.061 25.9648L101.953 25.9473C100.711 25.9473 100.09 25.7246 100.09 25.2793C100.09 24.9629 100.365 24.6289 100.916 24.2773C101.479 23.9141 101.854 23.4512 102.041 22.8887C102.24 22.3145 102.34 20.6328 102.34 17.8438C102.34 15.0547 102.246 13.3613 102.059 12.7637C101.883 12.166 101.602 11.7383 101.215 11.4805C100.523 11.0234 100.178 10.6895 100.178 10.4785C100.178 10.2676 100.301 10.0801 100.547 9.91602C101.273 9.42383 102.504 9.17773 104.238 9.17773H104.572C105.24 9.17773 105.715 9.51758 105.996 10.1973C106.277 10.8652 106.506 11.1992 106.682 11.1992C106.857 11.1992 107.156 11.0352 107.578 10.707C108.012 10.3789 108.527 10.0508 109.125 9.72266C109.734 9.39453 110.408 9.23047 111.146 9.23047C111.885 9.23047 112.447 9.42383 112.834 9.81055C113.232 10.1855 113.432 10.6719 113.432 11.2695C113.42 11.8789 113.262 12.3359 112.957 12.6406C112.652 12.9453 112.324 13.0977 111.973 13.0977C111.621 13.0977 111.158 12.957 110.584 12.6758C110.01 12.3828 109.529 12.2363 109.143 12.2363C108.756 12.2363 108.334 12.4004 107.877 12.7285C107.42 13.0449 107.027 13.6191 106.699 14.4512C106.383 15.2715 106.225 16.6836 106.225 18.6875C106.225 20.6797 106.365 21.9688 106.646 22.5547C106.928 23.1289 107.361 23.6562 107.947 24.1367C108.545 24.6172 108.844 25.0098 108.844 25.3145Z" fill="#064E3B"/>
    <path d="M126.65 14.5742V14.0293C126.65 13.1621 126.34 12.3828 125.719 11.6914C125.098 10.9883 124.336 10.6367 123.434 10.6367H123.1C122.936 10.6602 122.824 10.6719 122.766 10.6719C121.945 10.6719 121.166 11.1406 120.428 12.0781C119.701 13.0156 119.338 14.0176 119.338 15.084V15.3125C119.338 15.6875 119.561 15.875 120.006 15.875C120.182 15.9102 120.275 15.9277 120.287 15.9277L120.691 15.9453H120.797L120.92 15.9277L124.312 15.7344L124.945 15.6641C126.082 15.6641 126.65 15.3008 126.65 14.5742ZM119.338 19.2324C119.338 20.5684 119.842 21.6875 120.85 22.5898C121.857 23.4922 123.135 23.9434 124.682 23.9434C125.303 23.9434 125.865 23.8555 126.369 23.6797C126.885 23.4922 127.441 23.2695 128.039 23.0117C128.648 22.7539 129.029 22.625 129.182 22.625C129.65 22.625 129.885 22.877 129.885 23.3809C129.885 24.0605 129.018 24.7871 127.283 25.5605C126.158 26.0645 124.951 26.3164 123.662 26.3164H123.275C121.072 26.3164 119.244 25.6484 117.791 24.3125C117.006 23.5859 116.396 22.6602 115.963 21.5352C115.529 20.3984 115.312 19.1797 115.312 17.8789L115.33 17.4746V17.0703C115.33 15.9453 115.588 14.8379 116.104 13.748C116.631 12.6582 117.258 11.7617 117.984 11.0586C119.52 9.58203 121.342 8.83789 123.451 8.82617C126.639 8.82617 128.76 10.0684 129.814 12.5527C130.143 13.3379 130.307 14.0586 130.307 14.7148V15.0664C130.307 15.875 129.973 16.4199 129.305 16.7012C128.637 16.9707 127.061 17.1934 124.576 17.3691C122.092 17.5449 120.744 17.6621 120.533 17.7207C119.736 17.9199 119.338 18.4238 119.338 19.2324Z" fill="#064E3B"/>
    <path d="M144.896 18.1074C145.822 18.9863 146.285 20.0996 146.285 21.4473C146.285 22.7832 145.734 23.9316 144.633 24.8926C143.531 25.8418 142.008 26.3164 140.062 26.3164H139.588C137.373 26.3164 135.686 26.041 134.525 25.4902C133.881 25.1855 133.559 24.5059 133.559 23.4512V23.0117C133.559 21.6641 133.811 20.9902 134.314 20.9902C134.736 20.9902 135.234 21.3887 135.809 22.1855C136.383 22.9707 136.863 23.498 137.25 23.7676C138 24.2832 138.879 24.541 139.887 24.541C140.906 24.541 141.656 24.3301 142.137 23.9082C142.617 23.4746 142.857 22.9062 142.857 22.2031C142.857 21.5 142.447 20.8496 141.627 20.252C141.193 19.9355 140.18 19.4375 138.586 18.7578C137.004 18.0781 135.82 17.3691 135.035 16.6309C134.25 15.8809 133.857 14.8262 133.857 13.4668C133.857 12.1074 134.426 11.0059 135.562 10.1621C136.699 9.30664 138.1 8.87891 139.764 8.87891H140.238C142.418 8.87891 143.947 9.13672 144.826 9.65234C145.283 9.92188 145.512 10.6719 145.512 11.9023C145.512 13.1328 145.219 13.748 144.633 13.748C144.305 13.748 143.854 13.3848 143.279 12.6582C142.717 11.9199 142.201 11.3984 141.732 11.0938C141.264 10.7773 140.613 10.6191 139.781 10.6191C138.961 10.6191 138.311 10.8066 137.83 11.1816C137.35 11.5566 137.109 12.1016 137.109 12.8164C137.109 13.5195 137.549 14.1523 138.428 14.7148C138.65 14.8672 139.623 15.3184 141.346 16.0684C143.068 16.8184 144.252 17.498 144.896 18.1074Z" fill="#064E3B"/>
    <path d="M149.502 25.0332C149.502 24.8223 149.754 24.4414 150.258 23.8906C150.762 23.3281 151.072 22.7656 151.189 22.2031C151.318 21.6406 151.383 18.6758 151.383 13.3086C151.383 7.94141 151.26 4.68945 151.014 3.55273C150.896 3.00195 150.65 2.59766 150.275 2.33984C149.596 1.85938 149.256 1.60156 149.256 1.56641C149.256 1.13281 149.484 0.828125 149.941 0.652344C150.809 0.3125 151.822 0.142578 152.982 0.142578H153.562C154.102 0.142578 154.482 0.359375 154.705 0.792969C154.939 1.22656 155.057 2.18164 155.057 3.6582L155.039 4.30859C155.027 4.74219 155.021 5.17578 155.021 5.60938L154.986 6.91016C154.986 7.34375 154.986 7.77734 154.986 8.21094C154.986 9.74609 155.256 10.5137 155.795 10.5137C155.854 10.502 156.152 10.3789 156.691 10.1445C158.32 9.41797 159.686 9.05469 160.787 9.05469C162.85 9.05469 164.297 9.88086 165.129 11.5332C165.68 12.6582 165.955 15.4238 165.955 19.8301C165.955 21.5293 166.014 22.5898 166.131 23.0117C166.26 23.4219 166.594 23.8496 167.133 24.2949C167.684 24.7402 167.959 25.0215 167.959 25.1387C167.959 25.502 167.719 25.748 167.238 25.877C166.77 26.0059 165.562 26.0703 163.617 26.0703H163.002C161.725 26.0703 161.086 25.8125 161.086 25.2969C161.086 25.1797 161.238 24.8867 161.543 24.418C161.848 23.9375 162.047 23.3984 162.141 22.8008C162.234 22.2031 162.281 20.6387 162.281 18.1074C162.281 15.5762 162.164 13.9824 161.93 13.3262C161.121 12.2715 160.225 11.627 159.24 11.3926C157.893 11.3926 156.814 11.873 156.006 12.834C155.408 13.5371 155.109 15.1426 155.109 17.6504C155.109 20.1465 155.168 21.7402 155.285 22.4316C155.402 23.1113 155.654 23.7324 156.041 24.2949C156.439 24.8457 156.639 25.1855 156.639 25.3145C156.639 25.7363 155.449 25.9473 153.07 25.9473C150.691 25.9473 149.502 25.6426 149.502 25.0332Z" fill="#064E3B"/>
    <path d="M183.568 22.7129C183.662 22.2559 183.709 20.6914 183.709 18.0195C183.709 15.3477 183.504 13.6016 183.094 12.7812C182.684 11.9609 181.922 11.5508 180.809 11.5508C180.141 11.5508 179.449 11.8145 178.734 12.3418C178.02 12.8574 177.545 13.4316 177.311 14.0645C177.076 14.6973 176.959 16.1738 176.959 18.4941C176.959 20.8027 176.977 22.2266 177.012 22.7656C177.059 23.3047 177.146 23.7266 177.275 24.0312L177.504 24.4707C177.691 24.834 177.785 25.0977 177.785 25.2617C177.785 25.6953 176.889 25.9121 175.096 25.9121C173.303 25.9121 172.137 25.7305 171.598 25.3672L171.281 25.0332C171.281 24.7051 171.398 24.4238 171.633 24.1895C172.336 23.4746 172.752 22.9297 172.881 22.5547C173.01 22.1797 173.074 20.5215 173.074 17.5801C173.074 14.627 172.822 12.6992 172.318 11.7969L171.949 11.3223C171.645 10.9355 171.492 10.6426 171.492 10.4434C171.492 10.2324 171.709 9.99219 172.143 9.72266C172.588 9.44141 173.273 9.30078 174.199 9.30078C175.137 9.30078 175.84 9.55273 176.309 10.0566C176.777 10.5488 177.111 10.7949 177.311 10.7949L177.838 10.5488L179.174 9.75781C180.264 9.18359 181.371 8.89648 182.496 8.89648C183.621 8.89648 184.693 9.24219 185.713 9.93359C186.732 10.6133 187.371 10.9531 187.629 10.9531L188.227 10.6719L188.877 10.2852C189.428 9.95703 190.02 9.66406 190.652 9.40625C191.262 9.14844 192.07 9.01953 193.078 9.01953C195 9.01953 196.359 9.81641 197.156 11.4102C197.742 12.582 198.035 15.3242 198.035 19.6367C198.035 21.4883 198.094 22.5664 198.211 22.8711C198.328 23.1641 198.645 23.5215 199.16 23.9434C199.676 24.3652 199.934 24.6113 199.934 24.6816V25.1035L199.6 25.4199C199.037 25.7598 197.607 25.9297 195.311 25.9297C194.209 25.9297 193.658 25.6602 193.658 25.1211C193.658 25.0625 193.734 24.7988 193.887 24.3301C194.051 23.8613 194.145 23.4863 194.168 23.2051C194.203 22.9121 194.221 21.418 194.221 18.7227C194.221 16.0273 194.086 14.3398 193.816 13.6602C193.559 12.9688 193.23 12.4414 192.832 12.0781C192.445 11.7031 191.854 11.5156 191.057 11.5156C190.26 11.5156 189.586 11.7324 189.035 12.166C188.484 12.5996 188.098 13.0859 187.875 13.625C187.652 14.1523 187.541 15.7578 187.541 18.4414C187.541 21.125 187.623 22.6777 187.787 23.0996C187.951 23.5098 188.256 23.9141 188.701 24.3125C189.158 24.7109 189.387 24.9746 189.387 25.1035C189.387 25.6895 188.361 25.9824 186.311 25.9824H183.85C182.619 25.9824 182.004 25.8066 182.004 25.4551C182.004 25.0918 182.156 24.7461 182.461 24.418C183.117 23.7266 183.486 23.1582 183.568 22.7129Z" fill="#064E3B"/>
    <path d="M212.045 17.8613H211.746C210.211 17.8613 208.928 18.207 207.896 18.8984C206.877 19.5781 206.367 20.4277 206.367 21.4473V21.7988C206.367 22.3965 206.549 22.9355 206.912 23.416C207.287 23.8848 207.768 24.1191 208.354 24.1191L208.564 24.1543H209.092C210.311 24.1543 211.307 23.6562 212.08 22.6602C212.42 22.2266 212.59 21.3359 212.59 19.9883C212.59 19.8828 212.59 19.7773 212.59 19.6719L212.607 19.25V18.8281C212.607 18.1836 212.42 17.8613 212.045 17.8613ZM203.502 12.1836C203.502 11.3164 204.188 10.543 205.559 9.86328C206.941 9.17188 208.371 8.82617 209.848 8.82617C209.895 8.82617 209.941 8.82617 209.988 8.82617C211.395 8.82617 212.52 8.99609 213.363 9.33594C215.074 10.0156 216.053 11.457 216.299 13.6602C216.322 13.8828 216.334 15.3594 216.334 18.0898C216.334 20.8086 216.404 22.4023 216.545 22.8711C216.697 23.3398 217.096 23.6855 217.74 23.9082C218.396 24.1309 218.725 24.3418 218.725 24.541C218.725 24.9629 218.514 25.2852 218.092 25.5078C217.248 25.9531 216.416 26.1758 215.596 26.1758C214.787 26.1758 214.184 25.9883 213.785 25.6133C213.07 24.9453 212.689 24.6113 212.643 24.6113C212.596 24.6113 211.934 24.9102 210.656 25.5078C209.379 26.0938 208.26 26.3867 207.299 26.3867C205.857 26.3867 204.727 25.9883 203.906 25.1914C203.086 24.3945 202.676 23.4277 202.676 22.291V21.8516C202.676 20.6328 203.203 19.5605 204.258 18.6348C205.312 17.709 207.211 16.9883 209.953 16.4727C210.949 16.2852 211.576 16.1094 211.834 15.9453C212.35 15.6172 212.607 14.9492 212.607 13.9414C212.607 12.9336 212.338 12.1602 211.799 11.6211C211.26 11.082 210.539 10.8125 209.637 10.8125C208.734 10.8125 207.861 11.3398 207.018 12.3945C206.186 13.4375 205.424 13.959 204.732 13.959C203.912 13.959 203.502 13.3672 203.502 12.1836Z" fill="#064E3B"/>
    <path d="M223.98 25.8594C222.328 25.8594 221.502 25.625 221.502 25.1562C221.502 24.7695 221.719 24.4531 222.152 24.207C222.938 23.7617 223.395 23.3633 223.523 23.0117C223.652 22.6484 223.717 20.9551 223.717 17.9316C223.717 14.8965 223.623 13.1211 223.436 12.6055C223.26 12.0781 222.932 11.6445 222.451 11.3047C221.971 10.9648 221.73 10.6895 221.73 10.4785C221.73 10.2676 221.889 10.0684 222.205 9.88086C222.943 9.44727 224.115 9.23047 225.721 9.23047C226.201 9.23047 226.576 9.39453 226.846 9.72266C226.939 9.83984 227.068 10.0977 227.232 10.4961C227.408 10.8828 227.525 11.0762 227.584 11.0762C227.807 11.0645 228.152 10.9062 228.621 10.6016C230.238 9.51172 231.703 8.9668 233.016 8.9668H233.613C234.562 8.9668 235.418 9.20117 236.18 9.66992C236.941 10.1387 237.527 10.8418 237.938 11.7793C238.359 12.7168 238.57 14.7617 238.57 17.9141C238.57 21.0547 238.635 22.8125 238.764 23.1875C238.904 23.5508 239.285 23.8906 239.906 24.207C240.539 24.5234 240.855 24.834 240.855 25.1387C240.855 25.666 239.191 25.9297 235.863 25.9297H235.336C234.281 25.9297 233.754 25.6777 233.754 25.1738C233.754 25.0684 233.883 24.8164 234.141 24.418C234.398 24.0078 234.574 23.5566 234.668 23.0645C234.762 22.5723 234.809 20.9551 234.809 18.2129C234.809 15.459 234.639 13.6895 234.299 12.9043C233.83 11.8262 233.051 11.2871 231.961 11.2871C231.164 11.2871 230.391 11.4746 229.641 11.8496C228.902 12.2129 228.363 12.7344 228.023 13.4141C227.695 14.082 227.531 15.6934 227.531 18.248C227.531 20.791 227.602 22.332 227.742 22.8711C227.883 23.3984 228.053 23.8262 228.252 24.1543L228.902 25.209C228.902 25.666 227.982 25.8945 226.143 25.8945L225.07 25.8594H223.98Z" fill="#064E3B"/>
    <path d="M11.4434 46.252C11.4434 46.4746 11.1035 46.8027 10.4238 47.2363C9.75586 47.6699 9.33984 48.2617 9.17578 49.0117C9.02344 49.75 8.94727 52.6973 8.94727 57.8535C8.94727 62.998 9.04102 65.9453 9.22852 66.6953C9.42773 67.4336 9.85547 67.9902 10.5117 68.3652C11.1797 68.7285 11.5137 69.0684 11.5137 69.3848C11.5137 69.8184 10.9805 70.0352 9.91406 70.0352L9.52734 70.0176L8.71875 70C8.44922 69.9883 8.17969 69.9824 7.91016 69.9824L7.13672 69.9473H4.76367C2.85352 69.9473 1.89844 69.7773 1.89844 69.4375V69.1914C1.89844 68.9688 2.27344 68.6406 3.02344 68.207C3.78516 67.7617 4.25977 67.1406 4.44727 66.3438C4.63477 65.5352 4.72852 62.6699 4.72852 57.748C4.72852 52.8145 4.61719 49.9375 4.39453 49.1172C4.17188 48.2852 3.82031 47.7402 3.33984 47.4824C2.37891 46.9551 1.89844 46.5566 1.89844 46.2871C1.89844 45.8301 3.70898 45.6016 7.33008 45.6016L9.26367 45.5664H10.4062C11.0977 45.5664 11.4434 45.7949 11.4434 46.252Z" fill="#064E3B"/>
    <path d="M24.3809 69.0332C24.3809 68.8223 24.6328 68.4414 25.1367 67.8906C25.6406 67.3281 25.9512 66.7656 26.0684 66.2031C26.1973 65.6406 26.2617 62.6758 26.2617 57.3086C26.2617 51.9414 26.1387 48.6895 25.8926 47.5527C25.7754 47.002 25.5293 46.5977 25.1543 46.3398C24.4746 45.8594 24.1348 45.6016 24.1348 45.5664C24.1348 45.1328 24.3633 44.8281 24.8203 44.6523C25.6875 44.3125 26.7012 44.1426 27.8613 44.1426H28.4414C28.9805 44.1426 29.3613 44.3594 29.584 44.793C29.8184 45.2266 29.9355 46.1816 29.9355 47.6582L29.918 48.3086C29.9062 48.7422 29.9004 49.1758 29.9004 49.6094L29.8652 50.9102C29.8652 51.3438 29.8652 51.7773 29.8652 52.2109C29.8652 53.7461 30.1348 54.5137 30.6738 54.5137C30.7324 54.502 31.0312 54.3789 31.5703 54.1445C33.1992 53.418 34.5645 53.0547 35.666 53.0547C37.7285 53.0547 39.1758 53.8809 40.0078 55.5332C40.5586 56.6582 40.834 59.4238 40.834 63.8301C40.834 65.5293 40.8926 66.5898 41.0098 67.0117C41.1387 67.4219 41.4727 67.8496 42.0117 68.2949C42.5625 68.7402 42.8379 69.0215 42.8379 69.1387C42.8379 69.502 42.5977 69.748 42.1172 69.877C41.6484 70.0059 40.4414 70.0703 38.4961 70.0703H37.8809C36.6035 70.0703 35.9648 69.8125 35.9648 69.2969C35.9648 69.1797 36.1172 68.8867 36.4219 68.418C36.7266 67.9375 36.9258 67.3984 37.0195 66.8008C37.1133 66.2031 37.1602 64.6387 37.1602 62.1074C37.1602 59.5762 37.043 57.9824 36.8086 57.3262C36 56.2715 35.1035 55.627 34.1191 55.3926C32.7715 55.3926 31.6934 55.873 30.8848 56.834C30.2871 57.5371 29.9883 59.1426 29.9883 61.6504C29.9883 64.1465 30.0469 65.7402 30.1641 66.4316C30.2812 67.1113 30.5332 67.7324 30.9199 68.2949C31.3184 68.8457 31.5176 69.1855 31.5176 69.3145C31.5176 69.7363 30.3281 69.9473 27.9492 69.9473C25.5703 69.9473 24.3809 69.6426 24.3809 69.0332Z" fill="#064E3B"/>
    <path d="M55.0371 61.8613H54.7383C53.2031 61.8613 51.9199 62.207 50.8887 62.8984C49.8691 63.5781 49.3594 64.4277 49.3594 65.4473V65.7988C49.3594 66.3965 49.541 66.9355 49.9043 67.416C50.2793 67.8848 50.7598 68.1191 51.3457 68.1191L51.5566 68.1543H52.084C53.3027 68.1543 54.2988 67.6562 55.0723 66.6602C55.4121 66.2266 55.582 65.3359 55.582 63.9883C55.582 63.8828 55.582 63.7773 55.582 63.6719L55.5996 63.25V62.8281C55.5996 62.1836 55.4121 61.8613 55.0371 61.8613ZM46.4941 56.1836C46.4941 55.3164 47.1797 54.543 48.5508 53.8633C49.9336 53.1719 51.3633 52.8262 52.8398 52.8262C52.8867 52.8262 52.9336 52.8262 52.9805 52.8262C54.3867 52.8262 55.5117 52.9961 56.3555 53.3359C58.0664 54.0156 59.0449 55.457 59.291 57.6602C59.3145 57.8828 59.3262 59.3594 59.3262 62.0898C59.3262 64.8086 59.3965 66.4023 59.5371 66.8711C59.6895 67.3398 60.0879 67.6855 60.7324 67.9082C61.3887 68.1309 61.7168 68.3418 61.7168 68.541C61.7168 68.9629 61.5059 69.2852 61.084 69.5078C60.2402 69.9531 59.4082 70.1758 58.5879 70.1758C57.7793 70.1758 57.1758 69.9883 56.7773 69.6133C56.0625 68.9453 55.6816 68.6113 55.6348 68.6113C55.5879 68.6113 54.9258 68.9102 53.6484 69.5078C52.3711 70.0938 51.252 70.3867 50.291 70.3867C48.8496 70.3867 47.7188 69.9883 46.8984 69.1914C46.0781 68.3945 45.668 67.4277 45.668 66.291V65.8516C45.668 64.6328 46.1953 63.5605 47.25 62.6348C48.3047 61.709 50.2031 60.9883 52.9453 60.4727C53.9414 60.2852 54.5684 60.1094 54.8262 59.9453C55.3418 59.6172 55.5996 58.9492 55.5996 57.9414C55.5996 56.9336 55.3301 56.1602 54.791 55.6211C54.252 55.082 53.5312 54.8125 52.6289 54.8125C51.7266 54.8125 50.8535 55.3398 50.0098 56.3945C49.1777 57.4375 48.416 57.959 47.7246 57.959C46.9043 57.959 46.4941 57.3672 46.4941 56.1836Z" fill="#064E3B"/>
    <path d="M72.5273 70.2285H72.123C71.5723 70.2285 71.0273 69.7188 70.4883 68.6992C70.2188 68.1836 69.3926 66.1621 68.0098 62.6348C66.627 59.1074 65.7832 57.0742 65.4785 56.5352C65.1738 55.9844 64.6992 55.498 64.0547 55.0762C63.4102 54.6426 63.0879 54.3145 63.0879 54.0918C63.0879 53.7285 63.3457 53.4941 63.8613 53.3887C64.377 53.2832 65.5547 53.2305 67.3945 53.2305C69.2344 53.2305 70.1543 53.4941 70.1543 54.0215C70.1543 54.0566 70.0898 54.25 69.9609 54.6016C69.832 54.9414 69.7676 55.3164 69.7676 55.7266C69.7676 57.332 70.6816 60.25 72.5098 64.4805C72.8496 65.2539 73.0898 65.6406 73.2305 65.6406C73.3711 65.6406 73.5996 65.2891 73.916 64.5859C75.8027 60.4141 76.7461 57.5195 76.7461 55.9023C76.7461 55.5039 76.5938 55.082 76.2891 54.6367C75.9844 54.1914 75.832 53.9629 75.832 53.9512C75.832 53.4473 76.9219 53.1953 79.1016 53.1953H79.5234C80.9531 53.1953 81.668 53.4414 81.668 53.9336C81.668 54.3555 81.3574 54.7715 80.7363 55.1816C80.1152 55.5801 79.6406 56.0781 79.3125 56.6758C79.1602 56.9453 78.3809 58.8262 76.9746 62.3184C75.5684 65.7988 74.6191 67.9902 74.127 68.8926C73.6348 69.7832 73.1016 70.2285 72.5273 70.2285Z" fill="#064E3B"/>
    <path d="M94.4824 58.5742V58.0293C94.4824 57.1621 94.1719 56.3828 93.5508 55.6914C92.9297 54.9883 92.168 54.6367 91.2656 54.6367H90.9316C90.7676 54.6602 90.6562 54.6719 90.5977 54.6719C89.7773 54.6719 88.998 55.1406 88.2598 56.0781C87.5332 57.0156 87.1699 58.0176 87.1699 59.084V59.3125C87.1699 59.6875 87.3926 59.875 87.8379 59.875C88.0137 59.9102 88.1074 59.9277 88.1191 59.9277L88.5234 59.9453H88.6289L88.752 59.9277L92.1445 59.7344L92.7773 59.6641C93.9141 59.6641 94.4824 59.3008 94.4824 58.5742ZM87.1699 63.2324C87.1699 64.5684 87.6738 65.6875 88.6816 66.5898C89.6895 67.4922 90.9668 67.9434 92.5137 67.9434C93.1348 67.9434 93.6973 67.8555 94.2012 67.6797C94.7168 67.4922 95.2734 67.2695 95.8711 67.0117C96.4805 66.7539 96.8613 66.625 97.0137 66.625C97.4824 66.625 97.7168 66.877 97.7168 67.3809C97.7168 68.0605 96.8496 68.7871 95.1152 69.5605C93.9902 70.0645 92.7832 70.3164 91.4941 70.3164H91.1074C88.9043 70.3164 87.0762 69.6484 85.623 68.3125C84.8379 67.5859 84.2285 66.6602 83.7949 65.5352C83.3613 64.3984 83.1445 63.1797 83.1445 61.8789L83.1621 61.4746V61.0703C83.1621 59.9453 83.4199 58.8379 83.9355 57.748C84.4629 56.6582 85.0898 55.7617 85.8164 55.0586C87.3516 53.582 89.1738 52.8379 91.2832 52.8262C94.4707 52.8262 96.5918 54.0684 97.6465 56.5527C97.9746 57.3379 98.1387 58.0586 98.1387 58.7148V59.0664C98.1387 59.875 97.8047 60.4199 97.1367 60.7012C96.4688 60.9707 94.8926 61.1934 92.4082 61.3691C89.9238 61.5449 88.5762 61.6621 88.3652 61.7207C87.5684 61.9199 87.1699 62.4238 87.1699 63.2324Z" fill="#064E3B"/>
    <path d="M121.588 58.5742V58.0293C121.588 57.1621 121.277 56.3828 120.656 55.6914C120.035 54.9883 119.273 54.6367 118.371 54.6367H118.037C117.873 54.6602 117.762 54.6719 117.703 54.6719C116.883 54.6719 116.104 55.1406 115.365 56.0781C114.639 57.0156 114.275 58.0176 114.275 59.084V59.3125C114.275 59.6875 114.498 59.875 114.943 59.875C115.119 59.9102 115.213 59.9277 115.225 59.9277L115.629 59.9453H115.734L115.857 59.9277L119.25 59.7344L119.883 59.6641C121.02 59.6641 121.588 59.3008 121.588 58.5742ZM114.275 63.2324C114.275 64.5684 114.779 65.6875 115.787 66.5898C116.795 67.4922 118.072 67.9434 119.619 67.9434C120.24 67.9434 120.803 67.8555 121.307 67.6797C121.822 67.4922 122.379 67.2695 122.977 67.0117C123.586 66.7539 123.967 66.625 124.119 66.625C124.588 66.625 124.822 66.877 124.822 67.3809C124.822 68.0605 123.955 68.7871 122.221 69.5605C121.096 70.0645 119.889 70.3164 118.6 70.3164H118.213C116.01 70.3164 114.182 69.6484 112.729 68.3125C111.943 67.5859 111.334 66.6602 110.9 65.5352C110.467 64.3984 110.25 63.1797 110.25 61.8789L110.268 61.4746V61.0703C110.268 59.9453 110.525 58.8379 111.041 57.748C111.568 56.6582 112.195 55.7617 112.922 55.0586C114.457 53.582 116.279 52.8379 118.389 52.8262C121.576 52.8262 123.697 54.0684 124.752 56.5527C125.08 57.3379 125.244 58.0586 125.244 58.7148V59.0664C125.244 59.875 124.91 60.4199 124.242 60.7012C123.574 60.9707 121.998 61.1934 119.514 61.3691C117.029 61.5449 115.682 61.6621 115.471 61.7207C114.674 61.9199 114.275 62.4238 114.275 63.2324Z" fill="#064E3B"/>
    <path d="M137.689 61.8613H137.391C135.855 61.8613 134.572 62.207 133.541 62.8984C132.521 63.5781 132.012 64.4277 132.012 65.4473V65.7988C132.012 66.3965 132.193 66.9355 132.557 67.416C132.932 67.8848 133.412 68.1191 133.998 68.1191L134.209 68.1543H134.736C135.955 68.1543 136.951 67.6562 137.725 66.6602C138.064 66.2266 138.234 65.3359 138.234 63.9883C138.234 63.8828 138.234 63.7773 138.234 63.6719L138.252 63.25V62.8281C138.252 62.1836 138.064 61.8613 137.689 61.8613ZM129.146 56.1836C129.146 55.3164 129.832 54.543 131.203 53.8633C132.586 53.1719 134.016 52.8262 135.492 52.8262C135.539 52.8262 135.586 52.8262 135.633 52.8262C137.039 52.8262 138.164 52.9961 139.008 53.3359C140.719 54.0156 141.697 55.457 141.943 57.6602C141.967 57.8828 141.979 59.3594 141.979 62.0898C141.979 64.8086 142.049 66.4023 142.189 66.8711C142.342 67.3398 142.74 67.6855 143.385 67.9082C144.041 68.1309 144.369 68.3418 144.369 68.541C144.369 68.9629 144.158 69.2852 143.736 69.5078C142.893 69.9531 142.061 70.1758 141.24 70.1758C140.432 70.1758 139.828 69.9883 139.43 69.6133C138.715 68.9453 138.334 68.6113 138.287 68.6113C138.24 68.6113 137.578 68.9102 136.301 69.5078C135.023 70.0938 133.904 70.3867 132.943 70.3867C131.502 70.3867 130.371 69.9883 129.551 69.1914C128.73 68.3945 128.32 67.4277 128.32 66.291V65.8516C128.32 64.6328 128.848 63.5605 129.902 62.6348C130.957 61.709 132.855 60.9883 135.598 60.4727C136.594 60.2852 137.221 60.1094 137.479 59.9453C137.994 59.6172 138.252 58.9492 138.252 57.9414C138.252 56.9336 137.982 56.1602 137.443 55.6211C136.904 55.082 136.184 54.8125 135.281 54.8125C134.379 54.8125 133.506 55.3398 132.662 56.3945C131.83 57.4375 131.068 57.959 130.377 57.959C129.557 57.959 129.146 57.3672 129.146 56.1836Z" fill="#064E3B"/>
    <path d="M155.953 69.3145C155.953 69.7715 154.893 70 152.771 70H150.908L150.17 69.9648L149.062 69.9473C147.82 69.9473 147.199 69.7246 147.199 69.2793C147.199 68.9629 147.475 68.6289 148.025 68.2773C148.588 67.9141 148.963 67.4512 149.15 66.8887C149.35 66.3145 149.449 64.6328 149.449 61.8438C149.449 59.0547 149.355 57.3613 149.168 56.7637C148.992 56.166 148.711 55.7383 148.324 55.4805C147.633 55.0234 147.287 54.6895 147.287 54.4785C147.287 54.2676 147.41 54.0801 147.656 53.916C148.383 53.4238 149.613 53.1777 151.348 53.1777H151.682C152.35 53.1777 152.824 53.5176 153.105 54.1973C153.387 54.8652 153.615 55.1992 153.791 55.1992C153.967 55.1992 154.266 55.0352 154.688 54.707C155.121 54.3789 155.637 54.0508 156.234 53.7227C156.844 53.3945 157.518 53.2305 158.256 53.2305C158.994 53.2305 159.557 53.4238 159.943 53.8105C160.342 54.1855 160.541 54.6719 160.541 55.2695C160.529 55.8789 160.371 56.3359 160.066 56.6406C159.762 56.9453 159.434 57.0977 159.082 57.0977C158.73 57.0977 158.268 56.957 157.693 56.6758C157.119 56.3828 156.639 56.2363 156.252 56.2363C155.865 56.2363 155.443 56.4004 154.986 56.7285C154.529 57.0449 154.137 57.6191 153.809 58.4512C153.492 59.2715 153.334 60.6836 153.334 62.6875C153.334 64.6797 153.475 65.9688 153.756 66.5547C154.037 67.1289 154.471 67.6562 155.057 68.1367C155.654 68.6172 155.953 69.0098 155.953 69.3145Z" fill="#064E3B"/>
    <path d="M165.34 69.8594C163.688 69.8594 162.861 69.625 162.861 69.1562C162.861 68.7695 163.078 68.4531 163.512 68.207C164.297 67.7617 164.754 67.3633 164.883 67.0117C165.012 66.6484 165.076 64.9551 165.076 61.9316C165.076 58.8965 164.982 57.1211 164.795 56.6055C164.619 56.0781 164.291 55.6445 163.811 55.3047C163.33 54.9648 163.09 54.6895 163.09 54.4785C163.09 54.2676 163.248 54.0684 163.564 53.8809C164.303 53.4473 165.475 53.2305 167.08 53.2305C167.561 53.2305 167.936 53.3945 168.205 53.7227C168.299 53.8398 168.428 54.0977 168.592 54.4961C168.768 54.8828 168.885 55.0762 168.943 55.0762C169.166 55.0645 169.512 54.9062 169.98 54.6016C171.598 53.5117 173.062 52.9668 174.375 52.9668H174.973C175.922 52.9668 176.777 53.2012 177.539 53.6699C178.301 54.1387 178.887 54.8418 179.297 55.7793C179.719 56.7168 179.93 58.7617 179.93 61.9141C179.93 65.0547 179.994 66.8125 180.123 67.1875C180.264 67.5508 180.645 67.8906 181.266 68.207C181.898 68.5234 182.215 68.834 182.215 69.1387C182.215 69.666 180.551 69.9297 177.223 69.9297H176.695C175.641 69.9297 175.113 69.6777 175.113 69.1738C175.113 69.0684 175.242 68.8164 175.5 68.418C175.758 68.0078 175.934 67.5566 176.027 67.0645C176.121 66.5723 176.168 64.9551 176.168 62.2129C176.168 59.459 175.998 57.6895 175.658 56.9043C175.189 55.8262 174.41 55.2871 173.32 55.2871C172.523 55.2871 171.75 55.4746 171 55.8496C170.262 56.2129 169.723 56.7344 169.383 57.4141C169.055 58.082 168.891 59.6934 168.891 62.248C168.891 64.791 168.961 66.332 169.102 66.8711C169.242 67.3984 169.412 67.8262 169.611 68.1543L170.262 69.209C170.262 69.666 169.342 69.8945 167.502 69.8945L166.43 69.8594H165.34Z" fill="#064E3B"/>
    <path d="M195.873 58.5742V58.0293C195.873 57.1621 195.562 56.3828 194.941 55.6914C194.32 54.9883 193.559 54.6367 192.656 54.6367H192.322C192.158 54.6602 192.047 54.6719 191.988 54.6719C191.168 54.6719 190.389 55.1406 189.65 56.0781C188.924 57.0156 188.561 58.0176 188.561 59.084V59.3125C188.561 59.6875 188.783 59.875 189.229 59.875C189.404 59.9102 189.498 59.9277 189.51 59.9277L189.914 59.9453H190.02L190.143 59.9277L193.535 59.7344L194.168 59.6641C195.305 59.6641 195.873 59.3008 195.873 58.5742ZM188.561 63.2324C188.561 64.5684 189.064 65.6875 190.072 66.5898C191.08 67.4922 192.357 67.9434 193.904 67.9434C194.525 67.9434 195.088 67.8555 195.592 67.6797C196.107 67.4922 196.664 67.2695 197.262 67.0117C197.871 66.7539 198.252 66.625 198.404 66.625C198.873 66.625 199.107 66.877 199.107 67.3809C199.107 68.0605 198.24 68.7871 196.506 69.5605C195.381 70.0645 194.174 70.3164 192.885 70.3164H192.498C190.295 70.3164 188.467 69.6484 187.014 68.3125C186.229 67.5859 185.619 66.6602 185.186 65.5352C184.752 64.3984 184.535 63.1797 184.535 61.8789L184.553 61.4746V61.0703C184.553 59.9453 184.811 58.8379 185.326 57.748C185.854 56.6582 186.48 55.7617 187.207 55.0586C188.742 53.582 190.564 52.8379 192.674 52.8262C195.861 52.8262 197.982 54.0684 199.037 56.5527C199.365 57.3379 199.529 58.0586 199.529 58.7148V59.0664C199.529 59.875 199.195 60.4199 198.527 60.7012C197.859 60.9707 196.283 61.1934 193.799 61.3691C191.314 61.5449 189.967 61.6621 189.756 61.7207C188.959 61.9199 188.561 62.4238 188.561 63.2324Z" fill="#064E3B"/>
    <path d="M214.383 57.959C214.383 57.0098 214.078 56.2539 213.469 55.6914C212.859 55.1172 212.051 54.8301 211.043 54.8301H210.709C210.182 54.8301 209.619 54.9883 209.021 55.3047C208.424 55.6211 207.932 56.0781 207.545 56.6758C206.771 57.8711 206.385 59.3535 206.385 61.123V62.1602C206.385 63.918 206.777 65.3711 207.562 66.5195C208.359 67.668 209.326 68.2422 210.463 68.2422H210.973C211.969 68.2422 212.783 67.9023 213.416 67.2227C214.049 66.543 214.365 65.6758 214.365 64.6211L214.4 64.252V63.8828L214.436 62.9688C214.436 62.4062 214.436 61.8438 214.436 61.2812L214.453 60.7188V60.1738L214.436 59.9805V59.0488L214.418 58.873V58.5039C214.395 58.2695 214.383 58.0879 214.383 57.959ZM214.471 52.9844C214.576 52.7266 214.629 51.9531 214.629 50.6641C214.629 49.375 214.529 48.4316 214.33 47.834C214.131 47.2246 213.779 46.7266 213.275 46.3398C212.783 45.9414 212.537 45.6426 212.537 45.4434C212.537 45.2441 212.672 45.0684 212.941 44.916C213.668 44.4941 214.852 44.2832 216.492 44.2832H216.914C217.734 44.2832 218.203 44.7227 218.32 45.6016C218.355 45.8711 218.373 49.2227 218.373 55.6562C218.373 62.0781 218.42 65.6055 218.514 66.2383C218.607 66.8594 218.83 67.3457 219.182 67.6973C219.252 67.7676 219.475 67.9492 219.85 68.2422C220.236 68.5234 220.43 68.7754 220.43 68.998C220.43 69.209 220.266 69.4023 219.938 69.5781C219.27 69.9414 218.18 70.123 216.668 70.123C216.141 70.123 215.719 69.9648 215.402 69.6484C214.781 69.0273 214.441 68.7168 214.383 68.7168C214.336 68.7168 214.072 68.8516 213.592 69.1211C213.111 69.3906 212.531 69.666 211.852 69.9473C211.184 70.2168 210.352 70.3516 209.355 70.3516C208.359 70.3516 207.439 70.1348 206.596 69.7012C205.037 68.9043 203.941 67.5859 203.309 65.7461C202.934 64.6445 202.746 63.4375 202.746 62.125C202.746 59.4766 203.502 57.3203 205.014 55.6562C206.537 53.9922 208.635 53.1602 211.307 53.1602L213.609 53.3711C214.078 53.3711 214.365 53.2422 214.471 52.9844Z" fill="#064E3B"/>
    <path d="M226.793 58.0645C226.371 58.0645 225.891 57.877 225.352 57.502C224.824 57.1152 224.561 56.5762 224.561 55.8848V55.4102C224.561 54.9766 224.771 54.5137 225.193 54.0215C225.627 53.5176 226.125 53.2656 226.688 53.2656L226.846 53.2305H227.32C227.438 53.2539 227.52 53.2656 227.566 53.2656C228.082 53.2656 228.545 53.5059 228.955 53.9863C229.365 54.4668 229.57 54.9941 229.57 55.5684V55.6562C229.57 56.1602 229.377 56.6816 228.99 57.2207C228.604 57.7598 228.088 58.0293 227.443 58.0293L227.285 58.0645H226.793ZM227.162 70.0176H226.758C226.641 69.9941 226.559 69.9824 226.512 69.9824C225.984 69.9824 225.516 69.7363 225.105 69.2441C224.695 68.752 224.49 68.2305 224.49 67.6797V67.6094C224.49 67.0352 224.713 66.4902 225.158 65.9746C225.604 65.4473 226.172 65.1836 226.863 65.1836H227.268C227.701 65.1836 228.182 65.377 228.709 65.7637C229.248 66.1387 229.518 66.666 229.518 67.3457V67.75C229.518 68.3828 229.26 68.9219 228.744 69.3672C228.24 69.8008 227.713 70.0176 227.162 70.0176Z" fill="#064E3B"/>
    <path d="M10.7754 202.861H10.4766C8.94141 202.861 7.6582 203.207 6.62695 203.898C5.60742 204.578 5.09766 205.428 5.09766 206.447V206.799C5.09766 207.396 5.2793 207.936 5.64258 208.416C6.01758 208.885 6.49805 209.119 7.08398 209.119L7.29492 209.154H7.82227C9.04102 209.154 10.0371 208.656 10.8105 207.66C11.1504 207.227 11.3203 206.336 11.3203 204.988C11.3203 204.883 11.3203 204.777 11.3203 204.672L11.3379 204.25V203.828C11.3379 203.184 11.1504 202.861 10.7754 202.861ZM2.23242 197.184C2.23242 196.316 2.91797 195.543 4.28906 194.863C5.67188 194.172 7.10156 193.826 8.57812 193.826C8.625 193.826 8.67188 193.826 8.71875 193.826C10.125 193.826 11.25 193.996 12.0938 194.336C13.8047 195.016 14.7832 196.457 15.0293 198.66C15.0527 198.883 15.0645 200.359 15.0645 203.09C15.0645 205.809 15.1348 207.402 15.2754 207.871C15.4277 208.34 15.8262 208.686 16.4707 208.908C17.127 209.131 17.4551 209.342 17.4551 209.541C17.4551 209.963 17.2441 210.285 16.8223 210.508C15.9785 210.953 15.1465 211.176 14.3262 211.176C13.5176 211.176 12.9141 210.988 12.5156 210.613C11.8008 209.945 11.4199 209.611 11.373 209.611C11.3262 209.611 10.6641 209.91 9.38672 210.508C8.10938 211.094 6.99023 211.387 6.0293 211.387C4.58789 211.387 3.45703 210.988 2.63672 210.191C1.81641 209.395 1.40625 208.428 1.40625 207.291V206.852C1.40625 205.633 1.93359 204.561 2.98828 203.635C4.04297 202.709 5.94141 201.988 8.68359 201.473C9.67969 201.285 10.3066 201.109 10.5645 200.945C11.0801 200.617 11.3379 199.949 11.3379 198.941C11.3379 197.934 11.0684 197.16 10.5293 196.621C9.99023 196.082 9.26953 195.812 8.36719 195.812C7.46484 195.812 6.5918 196.34 5.74805 197.395C4.91602 198.438 4.1543 198.959 3.46289 198.959C2.64258 198.959 2.23242 198.367 2.23242 197.184Z" fill="#064E3B"/>
    <path d="M22.7109 210.859C21.0586 210.859 20.2324 210.625 20.2324 210.156C20.2324 209.77 20.4492 209.453 20.8828 209.207C21.668 208.762 22.125 208.363 22.2539 208.012C22.3828 207.648 22.4473 205.955 22.4473 202.932C22.4473 199.896 22.3535 198.121 22.166 197.605C21.9902 197.078 21.6621 196.645 21.1816 196.305C20.7012 195.965 20.4609 195.689 20.4609 195.479C20.4609 195.268 20.6191 195.068 20.9355 194.881C21.6738 194.447 22.8457 194.23 24.4512 194.23C24.9316 194.23 25.3066 194.395 25.5762 194.723C25.6699 194.84 25.7988 195.098 25.9629 195.496C26.1387 195.883 26.2559 196.076 26.3145 196.076C26.5371 196.064 26.8828 195.906 27.3516 195.602C28.9688 194.512 30.4336 193.967 31.7461 193.967H32.3438C33.293 193.967 34.1484 194.201 34.9102 194.67C35.6719 195.139 36.2578 195.842 36.668 196.779C37.0898 197.717 37.3008 199.762 37.3008 202.914C37.3008 206.055 37.3652 207.812 37.4941 208.188C37.6348 208.551 38.0156 208.891 38.6367 209.207C39.2695 209.523 39.5859 209.834 39.5859 210.139C39.5859 210.666 37.9219 210.93 34.5938 210.93H34.0664C33.0117 210.93 32.4844 210.678 32.4844 210.174C32.4844 210.068 32.6133 209.816 32.8711 209.418C33.1289 209.008 33.3047 208.557 33.3984 208.064C33.4922 207.572 33.5391 205.955 33.5391 203.213C33.5391 200.459 33.3691 198.689 33.0293 197.904C32.5605 196.826 31.7812 196.287 30.6914 196.287C29.8945 196.287 29.1211 196.475 28.3711 196.85C27.6328 197.213 27.0938 197.734 26.7539 198.414C26.4258 199.082 26.2617 200.693 26.2617 203.248C26.2617 205.791 26.332 207.332 26.4727 207.871C26.6133 208.398 26.7832 208.826 26.9824 209.154L27.6328 210.209C27.6328 210.666 26.7129 210.895 24.873 210.895L23.8008 210.859H22.7109Z" fill="#064E3B"/>
    <path d="M53.7891 198.959C53.7891 198.01 53.4844 197.254 52.875 196.691C52.2656 196.117 51.457 195.83 50.4492 195.83H50.1152C49.5879 195.83 49.0254 195.988 48.4277 196.305C47.8301 196.621 47.3379 197.078 46.9512 197.676C46.1777 198.871 45.791 200.354 45.791 202.123V203.16C45.791 204.918 46.1836 206.371 46.9688 207.52C47.7656 208.668 48.7324 209.242 49.8691 209.242H50.3789C51.375 209.242 52.1895 208.902 52.8223 208.223C53.4551 207.543 53.7715 206.676 53.7715 205.621L53.8066 205.252V204.883L53.8418 203.969C53.8418 203.406 53.8418 202.844 53.8418 202.281L53.8594 201.719V201.174L53.8418 200.98V200.049L53.8242 199.873V199.504C53.8008 199.27 53.7891 199.088 53.7891 198.959ZM53.877 193.984C53.9824 193.727 54.0352 192.953 54.0352 191.664C54.0352 190.375 53.9355 189.432 53.7363 188.834C53.5371 188.225 53.1855 187.727 52.6816 187.34C52.1895 186.941 51.9434 186.643 51.9434 186.443C51.9434 186.244 52.0781 186.068 52.3477 185.916C53.0742 185.494 54.2578 185.283 55.8984 185.283H56.3203C57.1406 185.283 57.6094 185.723 57.7266 186.602C57.7617 186.871 57.7793 190.223 57.7793 196.656C57.7793 203.078 57.8262 206.605 57.9199 207.238C58.0137 207.859 58.2363 208.346 58.5879 208.697C58.6582 208.768 58.8809 208.949 59.2559 209.242C59.6426 209.523 59.8359 209.775 59.8359 209.998C59.8359 210.209 59.6719 210.402 59.3438 210.578C58.6758 210.941 57.5859 211.123 56.0742 211.123C55.5469 211.123 55.125 210.965 54.8086 210.648C54.1875 210.027 53.8477 209.717 53.7891 209.717C53.7422 209.717 53.4785 209.852 52.998 210.121C52.5176 210.391 51.9375 210.666 51.2578 210.947C50.5898 211.217 49.7578 211.352 48.7617 211.352C47.7656 211.352 46.8457 211.135 46.002 210.701C44.4434 209.904 43.3477 208.586 42.7148 206.746C42.3398 205.645 42.1523 204.438 42.1523 203.125C42.1523 200.477 42.9082 198.32 44.4199 196.656C45.9434 194.992 48.041 194.16 50.7129 194.16L53.0156 194.371C53.4844 194.371 53.7715 194.242 53.877 193.984Z" fill="#064E3B"/>
    <path d="M85.043 198.941C84.5508 198.941 83.8652 198.432 82.9863 197.412C82.1191 196.393 81.1113 195.883 79.9629 195.883C78.8262 195.883 77.8711 196.451 77.0977 197.588C76.3242 198.713 75.9375 200.312 75.9375 202.387C75.9375 204.461 76.4121 206.084 77.3613 207.256C78.3223 208.416 79.5703 208.996 81.1055 208.996C81.9492 208.996 82.6523 208.891 83.2148 208.68C83.7891 208.469 84.3164 208.246 84.7969 208.012C85.2891 207.766 85.6348 207.643 85.834 207.643C86.1738 207.643 86.3438 207.865 86.3438 208.311C86.3438 208.99 85.6582 209.664 84.2871 210.332C82.916 211 81.5859 211.334 80.2969 211.334C77.7891 211.334 75.7734 210.549 74.25 208.979C73.6289 208.334 73.1074 207.508 72.6855 206.5C72.2637 205.48 72.0527 204.391 72.0527 203.23V202.369C72.0527 202.346 72.0527 202.316 72.0527 202.281C72.0527 202.258 72.0527 202.234 72.0527 202.211C72.0527 201.191 72.2812 200.137 72.7383 199.047C73.6406 196.914 75.0938 195.438 77.0977 194.617C78.2578 194.148 79.4121 193.914 80.5605 193.914H80.9648C82.5469 193.914 83.8887 194.189 84.9902 194.74C85.8809 195.186 86.3262 195.93 86.3262 196.973C86.3262 197.664 86.1855 198.168 85.9043 198.484C85.6348 198.789 85.3477 198.941 85.043 198.941Z" fill="#064E3B"/>
    <path d="M93.1465 201.947V202.598C93.1465 204.59 93.5332 206.242 94.3066 207.555C94.6699 208.176 95.1328 208.668 95.6953 209.031C96.2578 209.395 96.8262 209.576 97.4004 209.576H97.752C98.8184 209.576 99.7383 209.061 100.512 208.029C101.297 206.986 101.689 205.51 101.689 203.6V202.352C101.689 200.465 101.297 198.865 100.512 197.553C99.7383 196.229 98.7539 195.566 97.5586 195.566H97.0137C95.9355 195.566 95.0215 196.146 94.2715 197.307C93.5215 198.467 93.1465 200.014 93.1465 201.947ZM105.926 202.018V202.896C105.926 203.822 105.738 204.836 105.363 205.938C104.578 208.234 103.014 209.84 100.67 210.754C99.6504 211.152 98.666 211.352 97.7168 211.352H97.1367C94.8984 211.352 93.0293 210.602 91.5293 209.102C90.8496 208.422 90.2988 207.525 89.877 206.412C89.4551 205.299 89.2441 204.115 89.2441 202.861V202.562C89.2441 201.426 89.4434 200.277 89.8418 199.117C90.6152 196.855 92.1328 195.285 94.3945 194.406C95.4141 194.008 96.3926 193.809 97.3301 193.809H98.209C99.252 193.809 100.277 194.043 101.285 194.512C103.195 195.402 104.525 196.82 105.275 198.766C105.709 199.914 105.926 200.998 105.926 202.018Z" fill="#064E3B"/>
    <path d="M126.756 209.084C127.271 209.482 127.529 209.77 127.529 209.945C127.529 210.109 127.441 210.268 127.266 210.42C126.762 210.877 125.684 211.105 124.031 211.105C123.492 211.105 123.07 211.018 122.766 210.842C122.473 210.654 122.209 210.32 121.975 209.84C121.752 209.359 121.564 209.119 121.412 209.119C121.26 209.131 120.92 209.324 120.393 209.699C118.916 210.766 117.504 211.299 116.156 211.299C116.145 211.299 116.127 211.299 116.104 211.299H115.576C113.643 211.299 112.242 210.479 111.375 208.838C110.93 207.982 110.701 205.891 110.689 202.562C110.689 199.223 110.637 197.389 110.531 197.061C110.426 196.721 110.051 196.404 109.406 196.111C108.773 195.807 108.457 195.572 108.457 195.408C108.457 194.975 108.662 194.693 109.072 194.564C109.986 194.271 111.152 194.125 112.57 194.125C113.391 194.125 113.912 194.459 114.135 195.127C114.428 195.982 114.574 198.027 114.574 201.262C114.574 204.484 114.715 206.441 114.996 207.133C115.477 208.316 116.35 208.908 117.615 208.908C118.271 208.908 118.922 208.738 119.566 208.398C120.223 208.059 120.732 207.602 121.096 207.027C121.459 206.453 121.641 204.877 121.641 202.299C121.641 199.709 121.553 198.08 121.377 197.412C121.213 196.744 120.955 196.223 120.604 195.848C120.252 195.461 120.076 195.156 120.076 194.934C120.076 194.418 121.453 194.16 124.207 194.16C124.781 194.16 125.156 194.289 125.332 194.547C125.508 194.793 125.596 195.25 125.596 195.918L125.543 196.955L125.455 201.631C125.455 204.678 125.543 206.582 125.719 207.344C125.895 208.094 126.24 208.674 126.756 209.084Z" fill="#064E3B"/>
    <path d="M132.855 210.859C131.203 210.859 130.377 210.625 130.377 210.156C130.377 209.77 130.594 209.453 131.027 209.207C131.812 208.762 132.27 208.363 132.398 208.012C132.527 207.648 132.592 205.955 132.592 202.932C132.592 199.896 132.498 198.121 132.311 197.605C132.135 197.078 131.807 196.645 131.326 196.305C130.846 195.965 130.605 195.689 130.605 195.479C130.605 195.268 130.764 195.068 131.08 194.881C131.818 194.447 132.99 194.23 134.596 194.23C135.076 194.23 135.451 194.395 135.721 194.723C135.814 194.84 135.943 195.098 136.107 195.496C136.283 195.883 136.4 196.076 136.459 196.076C136.682 196.064 137.027 195.906 137.496 195.602C139.113 194.512 140.578 193.967 141.891 193.967H142.488C143.438 193.967 144.293 194.201 145.055 194.67C145.816 195.139 146.402 195.842 146.812 196.779C147.234 197.717 147.445 199.762 147.445 202.914C147.445 206.055 147.51 207.812 147.639 208.188C147.779 208.551 148.16 208.891 148.781 209.207C149.414 209.523 149.73 209.834 149.73 210.139C149.73 210.666 148.066 210.93 144.738 210.93H144.211C143.156 210.93 142.629 210.678 142.629 210.174C142.629 210.068 142.758 209.816 143.016 209.418C143.273 209.008 143.449 208.557 143.543 208.064C143.637 207.572 143.684 205.955 143.684 203.213C143.684 200.459 143.514 198.689 143.174 197.904C142.705 196.826 141.926 196.287 140.836 196.287C140.039 196.287 139.266 196.475 138.516 196.85C137.777 197.213 137.238 197.734 136.898 198.414C136.57 199.082 136.406 200.693 136.406 203.248C136.406 205.791 136.477 207.332 136.617 207.871C136.758 208.398 136.928 208.826 137.127 209.154L137.777 210.209C137.777 210.666 136.857 210.895 135.018 210.895L133.945 210.859H132.855Z" fill="#064E3B"/>
    <path d="M159.785 208.68L162.457 208.275C162.762 208.275 162.914 208.516 162.914 208.996C162.914 209.465 162.463 209.951 161.561 210.455C160.658 210.959 159.709 211.211 158.713 211.211H158.361C157.576 211.211 156.867 211.006 156.234 210.596C155.602 210.186 155.139 209.682 154.846 209.084C154.342 208.041 154.09 206.066 154.09 203.16C154.09 200.242 153.984 198.42 153.773 197.693C153.574 196.967 153.311 196.469 152.982 196.199C152.373 195.707 152.068 195.438 152.068 195.391C152.068 195.086 152.227 194.828 152.543 194.617C153.352 194.078 153.791 193.773 153.861 193.703C153.943 193.621 154.395 192.66 155.215 190.82C155.625 189.906 156.088 189.449 156.604 189.449C157.131 189.449 157.482 189.637 157.658 190.012C157.705 190.105 157.805 190.615 157.957 191.541C158.121 192.467 158.35 193.064 158.643 193.334C158.936 193.592 159.586 193.844 160.594 194.09C161.602 194.324 162.105 194.664 162.105 195.109C162.105 195.555 161.549 195.889 160.436 196.111C159.322 196.334 158.648 196.621 158.414 196.973C158.004 197.57 157.799 199.258 157.799 202.035C157.799 204.812 157.928 206.564 158.186 207.291C158.514 208.217 159.047 208.68 159.785 208.68Z" fill="#064E3B"/>
    <path d="M172.002 188.43C172.002 188.945 171.779 189.426 171.334 189.871C170.9 190.305 170.467 190.521 170.033 190.521C169.939 190.545 169.863 190.557 169.805 190.557L169.418 190.592C168.832 190.592 168.305 190.398 167.836 190.012C167.379 189.625 167.15 189.127 167.15 188.518V188.201C167.15 187.592 167.391 187.082 167.871 186.672C168.363 186.25 168.926 186.039 169.559 186.039H169.646L170.244 186.109C170.607 186.109 170.982 186.309 171.369 186.707C171.768 187.094 171.967 187.486 171.967 187.885L172.002 188.043V188.43ZM166.412 196.27C165.803 195.977 165.498 195.701 165.498 195.443C165.498 195.186 165.621 194.98 165.867 194.828C166.723 194.312 168.076 194.055 169.928 194.055H170.438C171.07 194.055 171.428 194.348 171.51 194.934C171.557 195.25 171.58 197.383 171.58 201.332C171.58 205.27 171.662 207.531 171.826 208.117C171.99 208.691 172.383 209.137 173.004 209.453C173.625 209.758 173.936 210.068 173.936 210.385C173.936 210.83 172.482 211.053 169.576 211.053L169.049 211.07H166.904C166.049 211.07 165.621 210.859 165.621 210.438C165.621 210.086 165.879 209.746 166.395 209.418C166.922 209.09 167.285 208.727 167.484 208.328C167.707 207.895 167.818 206.881 167.818 205.287L167.836 204.725V204.18L167.854 203.354V202.809L167.871 202.264C167.871 199.486 167.777 197.869 167.59 197.412C167.414 196.943 167.021 196.562 166.412 196.27Z" fill="#064E3B"/>
    <path d="M179.262 210.859C177.609 210.859 176.783 210.625 176.783 210.156C176.783 209.77 177 209.453 177.434 209.207C178.219 208.762 178.676 208.363 178.805 208.012C178.934 207.648 178.998 205.955 178.998 202.932C178.998 199.896 178.904 198.121 178.717 197.605C178.541 197.078 178.213 196.645 177.732 196.305C177.252 195.965 177.012 195.689 177.012 195.479C177.012 195.268 177.17 195.068 177.486 194.881C178.225 194.447 179.396 194.23 181.002 194.23C181.482 194.23 181.857 194.395 182.127 194.723C182.221 194.84 182.35 195.098 182.514 195.496C182.689 195.883 182.807 196.076 182.865 196.076C183.088 196.064 183.434 195.906 183.902 195.602C185.52 194.512 186.984 193.967 188.297 193.967H188.895C189.844 193.967 190.699 194.201 191.461 194.67C192.223 195.139 192.809 195.842 193.219 196.779C193.641 197.717 193.852 199.762 193.852 202.914C193.852 206.055 193.916 207.812 194.045 208.188C194.186 208.551 194.566 208.891 195.188 209.207C195.82 209.523 196.137 209.834 196.137 210.139C196.137 210.666 194.473 210.93 191.145 210.93H190.617C189.562 210.93 189.035 210.678 189.035 210.174C189.035 210.068 189.164 209.816 189.422 209.418C189.68 209.008 189.855 208.557 189.949 208.064C190.043 207.572 190.09 205.955 190.09 203.213C190.09 200.459 189.92 198.689 189.58 197.904C189.111 196.826 188.332 196.287 187.242 196.287C186.445 196.287 185.672 196.475 184.922 196.85C184.184 197.213 183.645 197.734 183.305 198.414C182.977 199.082 182.812 200.693 182.812 203.248C182.812 205.791 182.883 207.332 183.023 207.871C183.164 208.398 183.334 208.826 183.533 209.154L184.184 210.209C184.184 210.666 183.264 210.895 181.424 210.895L180.352 210.859H179.262Z" fill="#064E3B"/>
    <path d="M206.033 194.951H205.576C204.955 194.951 204.352 195.309 203.766 196.023C203.18 196.738 202.887 197.57 202.887 198.52L202.852 198.801L202.834 199.24V199.697L202.852 199.838C202.852 201.057 203.115 202.041 203.643 202.791C204.17 203.541 204.955 203.916 205.998 203.916H206.121C206.93 203.916 207.621 203.6 208.195 202.967C208.77 202.334 209.057 201.496 209.057 200.453V199.768C209.021 199.486 209.004 199.258 209.004 199.082C209.004 197.969 208.693 197.002 208.072 196.182C207.463 195.361 206.783 194.951 206.033 194.951ZM204.469 210.578C203.648 210.578 202.951 210.865 202.377 211.439C201.803 212.014 201.516 212.734 201.516 213.602V213.742C201.516 214.738 201.908 215.523 202.693 216.098C203.479 216.672 204.551 216.959 205.91 216.959H206.367C208.008 216.959 209.326 216.584 210.322 215.834C211.318 215.084 211.816 214.205 211.816 213.197L211.799 213.057C211.799 212.389 211.523 211.85 210.973 211.439C210.422 211.041 209.771 210.842 209.021 210.842C208.553 210.783 208.213 210.754 208.002 210.754L207.404 210.701H207.105L206.051 210.631L205.33 210.578H204.469ZM215.279 194.758C215.279 195.426 214.857 195.854 214.014 196.041C213.17 196.217 212.748 196.562 212.748 197.078L212.801 197.447L212.871 197.869L212.959 198.326C213.018 198.713 213.047 199.258 213.047 199.961C213.047 200.664 212.848 201.391 212.449 202.141C211.336 204.215 209.191 205.352 206.016 205.551C204.996 205.621 204.346 205.709 204.064 205.814C203.455 206.049 203.15 206.441 203.15 206.992C203.15 207.543 203.602 207.93 204.504 208.152C204.633 208.188 205.799 208.299 208.002 208.486C210.205 208.662 211.676 208.938 212.414 209.312C213.973 210.086 214.752 211.205 214.752 212.67C214.752 214.592 213.891 216.156 212.168 217.363C210.457 218.57 208.213 219.174 205.436 219.174C203.479 219.174 201.85 218.799 200.549 218.049C199.951 217.709 199.465 217.264 199.09 216.713C198.727 216.174 198.545 215.611 198.545 215.025C198.545 213.982 198.855 213.115 199.477 212.424C200.473 211.322 200.971 210.736 200.971 210.666C200.971 210.596 200.754 210.285 200.32 209.734C199.887 209.184 199.67 208.609 199.67 208.012C199.67 207.414 199.951 206.77 200.514 206.078C201.088 205.375 201.375 204.982 201.375 204.9C201.375 204.818 201.023 204.221 200.32 203.107C199.617 201.982 199.266 200.916 199.266 199.908C199.266 198.9 199.482 198.004 199.916 197.219C201.146 194.98 203.438 193.861 206.789 193.861H207.299L209.742 194.02L210.639 194.055C210.943 194.066 211.254 194.072 211.57 194.072L213.434 193.949C214.664 193.949 215.279 194.219 215.279 194.758Z" fill="#064E3B"/>
    <path d="M220.852 211.422C220.242 211.422 219.686 211.205 219.182 210.771C218.678 210.338 218.426 209.77 218.426 209.066V208.908C218.426 208.229 218.684 207.666 219.199 207.221C219.727 206.775 220.26 206.553 220.799 206.553H221.115C221.291 206.588 221.42 206.605 221.502 206.605C221.912 206.605 222.34 206.828 222.785 207.273C223.23 207.719 223.453 208.234 223.453 208.82V209.066C223.453 209.605 223.236 210.127 222.803 210.631C222.381 211.123 221.895 211.369 221.344 211.369L220.939 211.422H220.852Z" fill="#064E3B"/>
    <path d="M229.957 211.422C229.348 211.422 228.791 211.205 228.287 210.771C227.783 210.338 227.531 209.77 227.531 209.066V208.908C227.531 208.229 227.789 207.666 228.305 207.221C228.832 206.775 229.365 206.553 229.904 206.553H230.221C230.396 206.588 230.525 206.605 230.607 206.605C231.018 206.605 231.445 206.828 231.891 207.273C232.336 207.719 232.559 208.234 232.559 208.82V209.066C232.559 209.605 232.342 210.127 231.908 210.631C231.486 211.123 231 211.369 230.449 211.369L230.045 211.422H229.957Z" fill="#064E3B"/>
    <path d="M239.062 211.422C238.453 211.422 237.896 211.205 237.393 210.771C236.889 210.338 236.637 209.77 236.637 209.066V208.908C236.637 208.229 236.895 207.666 237.41 207.221C237.938 206.775 238.471 206.553 239.01 206.553H239.326C239.502 206.588 239.631 206.605 239.713 206.605C240.123 206.605 240.551 206.828 240.996 207.273C241.441 207.719 241.664 208.234 241.664 208.82V209.066C241.664 209.605 241.447 210.127 241.014 210.631C240.592 211.123 240.105 211.369 239.555 211.369L239.15 211.422H239.062Z" fill="#064E3B"/>
    <path d="M36.1875 110.219C36.1875 107.5 35.2969 105.062 33.5156 102.906C31.7656 100.75 29.3906 99.6719 26.3906 99.6719H24.7031C22.7656 99.6719 20.9531 100.516 19.2656 102.203C17.6094 103.859 16.7812 106.047 16.7812 108.766V109.891C16.7812 112.547 18.0938 115.344 20.7188 118.281C23.375 121.219 26.1406 122.688 29.0156 122.688C30.7031 122.688 32.2969 121.5 33.7969 119.125C35.3281 116.719 36.0938 114.594 36.0938 112.75L36.1875 112.047V110.219ZM13.6406 141.344V142.609C13.6406 146.141 14.8438 149.219 17.25 151.844C19.6562 154.469 22.6094 155.781 26.1094 155.781H27.3281C29.9844 155.781 32.3906 154.781 34.5469 152.781C36.7344 150.781 37.8281 148.312 37.8281 145.375V144.109C37.8281 140.766 36.4531 137.828 33.7031 135.297C29.2344 131.172 25.5312 129.109 22.5938 129.109H22.2188C20.1875 129.109 18.0312 130.891 15.75 134.453C14.3438 136.641 13.6406 138.938 13.6406 141.344ZM4.21875 144.156C4.21875 141.125 4.92188 138.547 6.32812 136.422C7.73438 134.266 9.15625 132.578 10.5938 131.359C13.7188 128.703 15.2812 127.344 15.2812 127.281L11.8125 123.672C8.375 120.078 6.65625 116.078 6.65625 111.672C6.65625 107.266 8.5 103.547 12.1875 100.516C15.875 97.4844 20.3125 95.9688 25.5 95.9688H26.5781C32.0781 95.9688 36.4375 97.375 39.6562 100.188C42.9062 103 44.5312 106.766 44.5312 111.484C44.5312 115.109 42.5781 118.766 38.6719 122.453C36.6094 124.391 35.5781 125.562 35.5781 125.969L39.9375 129.438C44.6875 133.219 47.0625 137.688 47.0625 142.844V143.875C47.0625 146.438 46.4531 148.812 45.2344 151C44.0156 153.188 42.4219 155.031 40.4531 156.531C36.4844 159.531 31.375 161.031 25.125 161.031C18.9062 161.031 13.8594 159.469 9.98438 156.344C6.14062 153.219 4.21875 149.156 4.21875 144.156Z" fill="#064E3B"/>
    <path d="M67.6133 131.25H67.9648C68.681 131.25 69.0391 131.413 69.0391 131.738C69.0391 132.064 68.7591 132.923 68.1992 134.316C62.0143 149.785 58.349 158.815 57.2031 161.406C56.5911 162.786 55.9206 163.477 55.1914 163.477H54.8398C54.1237 163.477 53.7656 163.333 53.7656 163.047C53.7656 161.628 57.6654 151.816 65.4648 133.613C66.1419 132.038 66.8581 131.25 67.6133 131.25Z" fill="#064E3B"/>
    <path d="M84.625 139.258C84.625 138.125 84.2539 137.109 83.5117 136.211C82.7826 135.312 81.793 134.863 80.543 134.863H79.8398C79.0326 134.863 78.2773 135.215 77.5742 135.918C76.8841 136.608 76.5391 137.52 76.5391 138.652V139.121C76.5391 140.228 77.0859 141.393 78.1797 142.617C79.2865 143.841 80.4388 144.453 81.6367 144.453C82.3398 144.453 83.0039 143.958 83.6289 142.969C84.2669 141.966 84.5859 141.081 84.5859 140.312L84.625 140.02V139.258ZM75.2305 152.227V152.754C75.2305 154.225 75.7318 155.508 76.7344 156.602C77.737 157.695 78.9674 158.242 80.4258 158.242H80.9336C82.0404 158.242 83.043 157.826 83.9414 156.992C84.8529 156.159 85.3086 155.13 85.3086 153.906V153.379C85.3086 151.986 84.7357 150.762 83.5898 149.707C81.7279 147.988 80.1849 147.129 78.9609 147.129H78.8047C77.9583 147.129 77.0599 147.871 76.1094 149.355C75.5234 150.267 75.2305 151.224 75.2305 152.227ZM71.3047 153.398C71.3047 152.135 71.5977 151.061 72.1836 150.176C72.7695 149.277 73.362 148.574 73.9609 148.066C75.263 146.96 75.9141 146.393 75.9141 146.367L74.4688 144.863C73.0365 143.366 72.3203 141.699 72.3203 139.863C72.3203 138.027 73.0885 136.478 74.625 135.215C76.1615 133.952 78.0104 133.32 80.1719 133.32H80.6211C82.9128 133.32 84.7292 133.906 86.0703 135.078C87.4245 136.25 88.1016 137.819 88.1016 139.785C88.1016 141.296 87.2878 142.819 85.6602 144.355C84.8008 145.163 84.3711 145.651 84.3711 145.82L86.1875 147.266C88.1667 148.841 89.1562 150.703 89.1562 152.852V153.281C89.1562 154.349 88.9023 155.339 88.3945 156.25C87.8867 157.161 87.2227 157.93 86.4023 158.555C84.7487 159.805 82.6198 160.43 80.0156 160.43C77.4245 160.43 75.3216 159.779 73.707 158.477C72.1055 157.174 71.3047 155.482 71.3047 153.398Z" fill="#064E3B"/>
    <path d="M156.203 132.203V131.922C156.203 128.984 153.688 121.641 148.656 109.891C147.781 107.859 147.328 106.844 147.297 106.844L145.938 109.984C140.75 122.078 138.156 129.422 138.156 132.016C138.156 132.453 138.422 132.688 138.953 132.719C139.516 132.75 139.938 132.766 140.219 132.766L143.875 132.859H147.203L147.531 132.812C153.312 132.812 156.203 132.609 156.203 132.203ZM117.109 157.188C117.109 156.406 118 155.5 119.781 154.469C121.562 153.438 122.875 152.125 123.719 150.531C124.562 148.938 125.75 146.062 127.281 141.906C128.812 137.719 130.891 132.453 133.516 126.109C136.172 119.766 138.266 114.078 139.797 109.047C141.359 103.984 142.422 100.781 142.984 99.4375C144.266 96.375 146.078 94.8438 148.422 94.8438H149.734C150.328 94.8438 151.062 95.1719 151.938 95.8281C153.719 97.1719 155.578 100.047 157.516 104.453C158.172 105.953 159.156 108.531 160.469 112.188C161.781 115.812 164.406 122.922 168.344 133.516C172.281 144.109 174.484 149.875 174.953 150.812C175.734 152.438 177.062 153.75 178.938 154.75C180.812 155.719 181.75 156.5 181.75 157.094C181.75 158.406 180.969 159.219 179.406 159.531C178.344 159.75 175.656 159.859 171.344 159.859L168.625 159.906C162.844 159.906 159.953 159.125 159.953 157.562C159.953 157.281 160.312 156.609 161.031 155.547C161.781 154.484 162.156 153.141 162.156 151.516C162.156 149.891 161.562 147.562 160.375 144.531C159.219 141.5 158.234 139.625 157.422 138.906C156.641 138.188 153.25 137.828 147.25 137.828C141.25 137.828 137.75 138.156 136.75 138.812C135.75 139.469 134.672 141.234 133.516 144.109C132.359 146.984 131.781 149.328 131.781 151.141C131.781 152.922 132.328 154.5 133.422 155.875C134.547 157.25 135.109 157.969 135.109 158.031C135.109 159.156 133.188 159.719 129.344 159.719C125.531 159.719 122.531 159.578 120.344 159.297C118.188 158.984 117.109 158.281 117.109 157.188Z" fill="#064E3B"/>
    <path d="M193.75 129.461V130.211C193.75 132.039 193.078 133.844 191.734 135.625C190.406 137.406 189.219 138.297 188.172 138.297H188.031C187.469 138.297 187.188 137.992 187.188 137.383L188.711 135.344C189.383 134.453 189.719 133.602 189.719 132.789C189.719 132.32 189.289 131.734 188.43 131.031C187.57 130.328 187.141 129.539 187.141 128.664V128.5L187.164 128.336C187.164 127.648 187.453 127.039 188.031 126.508C188.625 125.977 189.32 125.711 190.117 125.711H190.469L190.656 125.734C191.531 125.734 192.266 126.062 192.859 126.719C193.453 127.375 193.75 128.289 193.75 129.461Z" fill="#064E3B"/>
    <path d="M212.523 149.477C213.758 150.648 214.375 152.133 214.375 153.93C214.375 155.711 213.641 157.242 212.172 158.523C210.703 159.789 208.672 160.422 206.078 160.422H205.445C202.492 160.422 200.242 160.055 198.695 159.32C197.836 158.914 197.406 158.008 197.406 156.602V156.016C197.406 154.219 197.742 153.32 198.414 153.32C198.977 153.32 199.641 153.852 200.406 154.914C201.172 155.961 201.812 156.664 202.328 157.023C203.328 157.711 204.5 158.055 205.844 158.055C207.203 158.055 208.203 157.773 208.844 157.211C209.484 156.633 209.805 155.875 209.805 154.938C209.805 154 209.258 153.133 208.164 152.336C207.586 151.914 206.234 151.25 204.109 150.344C202 149.438 200.422 148.492 199.375 147.508C198.328 146.508 197.805 145.102 197.805 143.289C197.805 141.477 198.562 140.008 200.078 138.883C201.594 137.742 203.461 137.172 205.68 137.172H206.312C209.219 137.172 211.258 137.516 212.43 138.203C213.039 138.562 213.344 139.562 213.344 141.203C213.344 142.844 212.953 143.664 212.172 143.664C211.734 143.664 211.133 143.18 210.367 142.211C209.617 141.227 208.93 140.531 208.305 140.125C207.68 139.703 206.812 139.492 205.703 139.492C204.609 139.492 203.742 139.742 203.102 140.242C202.461 140.742 202.141 141.469 202.141 142.422C202.141 143.359 202.727 144.203 203.898 144.953C204.195 145.156 205.492 145.758 207.789 146.758C210.086 147.758 211.664 148.664 212.523 149.477Z" fill="#064E3B"/>
</svg>
