<svg width="232" height="148" viewBox="0 0 232 148" fill="none" xmlns="http://www.w3.org/2000/svg">
<path d="M0 15C0 6.71573 6.71573 0 15 0H93C101.284 0 108 6.71573 108 15V85C108 93.2843 101.284 100 93 100H15C6.71573 100 0 93.2843 0 85V15Z" fill="#FF5E5B"/>
<path d="M151 15C151 6.71573 157.716 0 166 0H217C225.284 0 232 6.71573 232 15V47C232 55.2843 225.284 62 217 62H166C157.716 62 151 55.2843 151 47V15Z" fill="#2E86AB"/>
<path d="M0 129C0 120.716 6.71573 114 15 114H217C225.284 114 232 120.716 232 129V133C232 141.284 225.284 148 217 148H15C6.71573 148 0 141.284 0 133V129Z" fill="#2C2C54"/>
</svg>
