<svg width="171" height="35" viewBox="0 0 171 35" fill="none" xmlns="http://www.w3.org/2000/svg">
<path d="M0 15C0 6.71573 6.71573 0 15 0H34C42.2843 0 49 6.71573 49 15V20C49 28.2843 42.2843 35 34 35H15C6.71573 35 0 28.2843 0 20V15Z" fill="#E2E8F0"/>
<path d="M122 15C122 6.71573 128.716 0 137 0H156C164.284 0 171 6.71573 171 15V20C171 28.2843 164.284 35 156 35H137C128.716 35 122 28.2843 122 20V15Z" fill="#DCFCE7"/>
<path d="M61 15C61 6.71573 67.7157 0 76 0H95C103.284 0 110 6.71573 110 15V20C110 28.2843 103.284 35 95 35H76C67.7157 35 61 28.2843 61 20V15Z" fill="#E5E5E5"/>
</svg>
