<svg width="251" height="36" viewBox="0 0 251 36" fill="none" xmlns="http://www.w3.org/2000/svg">
<rect width="251" height="36" rx="10" fill="#FAFAFA" fill-opacity="0.93"/>
<g clip-path="url(#clip0_1_7)">
<path d="M20.5322 23.0332C21.9297 23.0332 23.2393 22.6113 24.3291 21.8906L28.1787 25.749C28.4336 25.9951 28.7588 26.1182 29.1104 26.1182C29.8398 26.1182 30.376 25.5469 30.376 24.8262C30.376 24.4922 30.2617 24.167 30.0156 23.9209L26.1924 20.0801C26.9834 18.9551 27.4492 17.5928 27.4492 16.1162C27.4492 12.3105 24.3379 9.19922 20.5322 9.19922C16.7354 9.19922 13.6152 12.3105 13.6152 16.1162C13.6152 19.9219 16.7266 23.0332 20.5322 23.0332ZM20.5322 21.1875C17.7461 21.1875 15.4609 18.9023 15.4609 16.1162C15.4609 13.3301 17.7461 11.0449 20.5322 11.0449C23.3184 11.0449 25.6035 13.3301 25.6035 16.1162C25.6035 18.9023 23.3184 21.1875 20.5322 21.1875Z" fill="#3C3C43" fill-opacity="0.6"/>
</g>
<path d="M41.4536 24.2822C44.1265 24.2822 45.8779 22.8877 45.8779 20.6465V20.6382C45.8779 18.9116 44.8901 17.9072 42.3916 17.3511L41.0635 17.0522C39.4365 16.6953 38.7808 16.0479 38.7808 15.0933V15.085C38.7808 13.8315 39.9346 13.126 41.4287 13.1177C42.9893 13.1094 43.9854 13.8896 44.1514 14.9438L44.168 15.0518H45.6621L45.6538 14.9355C45.5293 13.1509 43.8608 11.7397 41.4702 11.7397C38.9966 11.7397 37.2617 13.1426 37.2534 15.1265V15.1348C37.2534 16.8696 38.291 17.9736 40.6899 18.5049L42.0181 18.7954C43.6616 19.1606 44.3506 19.8413 44.3506 20.8374V20.8457C44.3506 22.0659 43.1636 22.9043 41.5366 22.9043C39.8101 22.9043 38.5649 22.1489 38.457 20.9536L38.4487 20.8623H36.9546L36.9629 20.9536C37.1372 22.9043 38.8306 24.2822 41.4536 24.2822ZM51.4299 24.1577C53.5383 24.1577 54.8166 22.9624 55.1237 21.7505L55.1403 21.6841H53.696L53.6628 21.7588C53.4221 22.2983 52.675 22.8711 51.4631 22.8711C49.8693 22.8711 48.8483 21.792 48.8068 19.9409H55.2483V19.3765C55.2483 16.7036 53.7707 14.894 51.3386 14.894C48.9065 14.894 47.3293 16.7866 47.3293 19.5508V19.5591C47.3293 22.3647 48.8733 24.1577 51.4299 24.1577ZM51.3303 16.1807C52.6501 16.1807 53.6296 17.019 53.779 18.7871H48.8317C48.9895 17.0854 50.0022 16.1807 51.3303 16.1807ZM59.5385 24.1577C60.7421 24.1577 61.6801 23.6348 62.2445 22.6802H62.3774V24H63.8217V17.874C63.8217 16.0146 62.6015 14.894 60.4184 14.894C58.5092 14.894 57.1479 15.8403 56.9154 17.2432L56.9071 17.293H58.3515L58.3598 17.2681C58.5922 16.5708 59.2978 16.1724 60.3686 16.1724C61.705 16.1724 62.3774 16.77 62.3774 17.874V18.6875L59.8124 18.8452C57.7289 18.9697 56.5502 19.8911 56.5502 21.4849V21.5015C56.5502 23.1284 57.8368 24.1577 59.5385 24.1577ZM58.0278 21.4683V21.4517C58.0278 20.5635 58.6254 20.082 59.9867 19.999L62.3774 19.8496V20.6631C62.3774 21.9414 61.3066 22.9043 59.8373 22.9043C58.7997 22.9043 58.0278 22.373 58.0278 21.4683ZM66.0533 24H67.4977V18.4551C67.4977 17.1436 68.4772 16.272 69.8551 16.272C70.1705 16.272 70.4445 16.3052 70.7433 16.355V14.9521C70.6022 14.9272 70.295 14.894 70.0211 14.894C68.8092 14.894 67.9708 15.4419 67.6305 16.3799H67.4977V15.0518H66.0533V24ZM75.5316 24.1577C77.6815 24.1577 78.8851 23.0039 79.2503 21.3853L79.2669 21.2939L77.8392 21.3022L77.8226 21.3521C77.4906 22.3481 76.7269 22.8794 75.5233 22.8794C73.9295 22.8794 72.9002 21.5596 72.9002 19.501V19.4844C72.9002 17.4673 73.9129 16.1724 75.5233 16.1724C76.8099 16.1724 77.6068 16.8862 77.8309 17.7661L77.8392 17.791H79.2752L79.2669 17.7412C79.0013 16.1475 77.6981 14.894 75.5233 14.894C73.0164 14.894 71.4227 16.7036 71.4227 19.4844V19.501C71.4227 22.3398 73.0247 24.1577 75.5316 24.1577ZM81.0586 24H82.503V18.7041C82.503 17.1353 83.4078 16.1724 84.8355 16.1724C86.2632 16.1724 86.9273 16.9443 86.9273 18.5547V24H88.3716V18.2061C88.3716 16.0811 87.251 14.894 85.2422 14.894C83.9224 14.894 83.084 15.4502 82.6358 16.3965H82.503V11.499H81.0586V24Z" fill="#3C3C43" fill-opacity="0.6"/>
<defs>
<clipPath id="clip0_1_7">
<rect width="28" height="28" fill="white" transform="translate(8 4)"/>
</clipPath>
</defs>
</svg>
